<?xml version="1.0" standalone="no"?>
<!DOCTYPE svg PUBLIC "-//W3C//DTD SVG 1.1//EN" "http://www.w3.org/Graphics/SVG/1.1/DTD/svg11.dtd">
<svg width="250mm" height="40mm" viewBox="1 -40 250 40" xmlns="http://www.w3.org/2000/svg" version="1.1">
<title>OpenSCAD Model</title>
<path d="
M 245.071,-0.272583 L 247,-1.07179 L 248.657,-2.34314 L 249.928,-4 L 250.727,-5.92944 L 251,-8
 L 251,-32 L 250.727,-34.0705 L 249.928,-36 L 248.657,-37.6568 L 247,-38.9282 L 245.071,-39.7274
 L 243,-40 L 9,-40 L 6.92944,-39.7274 L 5,-38.9282 L 3.34314,-37.6568 L 2.07179,-36
 L 1.27258,-34.0705 L 1,-32 L 1,-8 L 1.27258,-5.92944 L 2.07179,-4 L 3.34314,-2.34314
 L 5,-1.07179 L 6.92944,-0.272583 L 9,-0 L 243,-0 z
M 145.375,-29.4547 L 144.769,-29.6171 L 144.2,-29.8823 L 143.686,-30.2422 L 143.242,-30.686 L 142.882,-31.2
 L 142.617,-31.7687 L 142.455,-32.3749 L 142.4,-33 L 142.455,-33.6251 L 142.617,-34.2313 L 142.882,-34.8
 L 143.242,-35.314 L 143.686,-35.7578 L 144.2,-36.1177 L 144.769,-36.3829 L 145.375,-36.5453 L 146,-36.6
 L 146.625,-36.5453 L 147.231,-36.3829 L 147.8,-36.1177 L 148.314,-35.7578 L 148.758,-35.314 L 149.118,-34.8
 L 149.383,-34.2313 L 149.545,-33.6251 L 149.6,-33 L 149.545,-32.3749 L 149.383,-31.7687 L 149.118,-31.2
 L 148.758,-30.686 L 148.314,-30.2422 L 147.8,-29.8823 L 147.231,-29.6171 L 146.625,-29.4547 L 146,-29.4
 z
M 99.3749,-29.4547 L 98.7687,-29.6171 L 98.2,-29.8823 L 97.686,-30.2422 L 97.2422,-30.686 L 96.8823,-31.2
 L 96.6171,-31.7687 L 96.4547,-32.3749 L 96.4,-33 L 96.4547,-33.6251 L 96.6171,-34.2313 L 96.8823,-34.8
 L 97.2422,-35.314 L 97.686,-35.7578 L 98.2,-36.1177 L 98.7687,-36.3829 L 99.3749,-36.5453 L 100,-36.6
 L 100.625,-36.5453 L 101.231,-36.3829 L 101.8,-36.1177 L 102.314,-35.7578 L 102.758,-35.314 L 103.118,-34.8
 L 103.383,-34.2313 L 103.545,-33.6251 L 103.6,-33 L 103.545,-32.3749 L 103.383,-31.7687 L 103.118,-31.2
 L 102.758,-30.686 L 102.314,-30.2422 L 101.8,-29.8823 L 101.231,-29.6171 L 100.625,-29.4547 L 100,-29.4
 z
M 59.427,-29.7501 L 58.8713,-29.899 L 58.35,-30.1421 L 57.8788,-30.472 L 57.472,-30.8788 L 57.1421,-31.35
 L 56.899,-31.8713 L 56.7501,-32.427 L 56.7,-33 L 56.7501,-33.573 L 56.899,-34.1287 L 57.1421,-34.65
 L 57.472,-35.1212 L 57.8788,-35.5279 L 58.35,-35.8579 L 58.8713,-36.101 L 59.427,-36.2499 L 60,-36.3
 L 60.573,-36.2499 L 61.1287,-36.101 L 61.65,-35.8579 L 62.1212,-35.5279 L 62.5279,-35.1212 L 62.8579,-34.65
 L 63.101,-34.1287 L 63.2499,-33.573 L 63.3,-33 L 63.2499,-32.427 L 63.101,-31.8713 L 62.8579,-31.35
 L 62.5279,-30.8788 L 62.1212,-30.472 L 61.65,-30.1421 L 61.1287,-29.899 L 60.573,-29.7501 L 60,-29.7
 z
M 79.427,-29.7501 L 78.8713,-29.899 L 78.35,-30.1421 L 77.8788,-30.472 L 77.472,-30.8788 L 77.1421,-31.35
 L 76.899,-31.8713 L 76.7501,-32.427 L 76.7,-33 L 76.7501,-33.573 L 76.899,-34.1287 L 77.1421,-34.65
 L 77.472,-35.1212 L 77.8788,-35.5279 L 78.35,-35.8579 L 78.8713,-36.101 L 79.427,-36.2499 L 80,-36.3
 L 80.573,-36.2499 L 81.1287,-36.101 L 81.65,-35.8579 L 82.1212,-35.5279 L 82.5279,-35.1212 L 82.8579,-34.65
 L 83.101,-34.1287 L 83.2499,-33.573 L 83.3,-33 L 83.2499,-32.427 L 83.101,-31.8713 L 82.8579,-31.35
 L 82.5279,-30.8788 L 82.1212,-30.472 L 81.65,-30.1421 L 81.1287,-29.899 L 80.573,-29.7501 L 80,-29.7
 z
M 232.375,-16.4547 L 231.769,-16.6171 L 231.2,-16.8823 L 230.686,-17.2422 L 230.242,-17.686 L 229.882,-18.2
 L 229.617,-18.7687 L 229.455,-19.3749 L 229.4,-20 L 229.455,-20.6251 L 229.617,-21.2313 L 229.882,-21.8
 L 230.242,-22.314 L 230.686,-22.7578 L 231.2,-23.1177 L 231.769,-23.3829 L 232.375,-23.5453 L 233,-23.6
 L 233.625,-23.5453 L 234.231,-23.3829 L 234.8,-23.1177 L 235.314,-22.7578 L 235.758,-22.314 L 236.118,-21.8
 L 236.383,-21.2313 L 236.545,-20.6251 L 236.6,-20 L 236.545,-19.3749 L 236.383,-18.7687 L 236.118,-18.2
 L 235.758,-17.686 L 235.314,-17.2422 L 234.8,-16.8823 L 234.231,-16.6171 L 233.625,-16.4547 L 233,-16.4
 z
M 174.375,-16.0547 L 173.769,-16.2171 L 173.2,-16.4823 L 172.686,-16.8422 L 172.242,-17.286 L 171.882,-17.8
 L 171.617,-18.3687 L 171.455,-18.9749 L 171.4,-19.6 L 171.455,-20.2251 L 171.617,-20.8313 L 171.882,-21.4
 L 172.242,-21.914 L 172.686,-22.3578 L 173.2,-22.7177 L 173.769,-22.9829 L 174.375,-23.1453 L 175,-23.2
 L 175.625,-23.1453 L 176.231,-22.9829 L 176.8,-22.7177 L 177.314,-22.3578 L 177.758,-21.914 L 178.118,-21.4
 L 178.383,-20.8313 L 178.545,-20.2251 L 178.6,-19.6 L 178.545,-18.9749 L 178.383,-18.3687 L 178.118,-17.8
 L 177.758,-17.286 L 177.314,-16.8422 L 176.8,-16.4823 L 176.231,-16.2171 L 175.625,-16.0547 L 175,-16
 z
M 203.775,-16.0547 L 203.169,-16.2171 L 202.6,-16.4823 L 202.086,-16.8422 L 201.642,-17.286 L 201.282,-17.8
 L 201.017,-18.3687 L 200.855,-18.9749 L 200.8,-19.6 L 200.855,-20.2251 L 201.017,-20.8313 L 201.282,-21.4
 L 201.642,-21.914 L 202.086,-22.3578 L 202.6,-22.7177 L 203.169,-22.9829 L 203.775,-23.1453 L 204.4,-23.2
 L 205.025,-23.1453 L 205.631,-22.9829 L 206.2,-22.7177 L 206.714,-22.3578 L 207.158,-21.914 L 207.518,-21.4
 L 207.783,-20.8313 L 207.945,-20.2251 L 208,-19.6 L 207.945,-18.9749 L 207.783,-18.3687 L 207.518,-17.8
 L 207.158,-17.286 L 206.714,-16.8422 L 206.2,-16.4823 L 205.631,-16.2171 L 205.025,-16.0547 L 204.4,-16
 z
M 189.612,-18.5511 L 189.25,-18.701 L 188.939,-18.9393 L 188.701,-19.25 L 188.551,-19.6118 L 188.5,-20
 L 188.551,-20.3882 L 188.701,-20.75 L 188.939,-21.0607 L 189.25,-21.299 L 189.612,-21.4489 L 190,-21.5
 L 190.388,-21.4489 L 190.75,-21.299 L 191.061,-21.0607 L 191.299,-20.75 L 191.449,-20.3882 L 191.5,-20
 L 191.449,-19.6118 L 191.299,-19.25 L 191.061,-18.9393 L 190.75,-18.701 L 190.388,-18.5511 L 190,-18.5
 z
M 72.1118,-18.5511 L 71.75,-18.701 L 71.4393,-18.9393 L 71.201,-19.25 L 71.0511,-19.6118 L 71,-20
 L 71.0511,-20.3882 L 71.201,-20.75 L 71.4393,-21.0607 L 71.75,-21.299 L 72.1118,-21.4489 L 72.5,-21.5
 L 72.8882,-21.4489 L 73.25,-21.299 L 73.5607,-21.0607 L 73.799,-20.75 L 73.9489,-20.3882 L 74,-20
 L 73.9489,-19.6118 L 73.799,-19.25 L 73.5607,-18.9393 L 73.25,-18.701 L 72.8882,-18.5511 L 72.5,-18.5
 z
M 27.9845,-5.50633 L 26.8058,-5.82214 L 25.7,-6.33781 L 24.7005,-7.03767 L 23.8377,-7.90048 L 23.1378,-8.89999
 L 22.6221,-10.0058 L 22.3063,-11.1844 L 22.2,-12.4 L 22.3063,-13.6155 L 22.6221,-14.7941 L 23.1378,-15.9
 L 23.8377,-16.8995 L 24.7005,-17.7623 L 25.7,-18.4622 L 26.8058,-18.9778 L 27.9845,-19.2936 L 29.2,-19.4
 L 30.4155,-19.2936 L 31.5941,-18.9778 L 32.7,-18.4622 L 33.6995,-17.7623 L 34.5623,-16.8995 L 35.2622,-15.9
 L 35.7778,-14.7941 L 36.0936,-13.6155 L 36.2,-12.4 L 36.0936,-11.1844 L 35.7778,-10.0058 L 35.2622,-8.89999
 L 34.5623,-7.90048 L 33.6995,-7.03767 L 32.7,-6.33781 L 31.5941,-5.82214 L 30.4155,-5.50633 L 29.2,-5.39999
 z
M 6.57486,-8.85469 L 5.96872,-9.01711 L 5.39999,-9.2823 L 4.88596,-9.64223 L 4.44223,-10.086 L 4.08231,-10.6
 L 3.81709,-11.1687 L 3.65468,-11.7749 L 3.59999,-12.4 L 3.65468,-13.0251 L 3.81709,-13.6313 L 4.08231,-14.2
 L 4.44223,-14.714 L 4.88596,-15.1577 L 5.39999,-15.5177 L 5.96872,-15.7829 L 6.57486,-15.9453 L 7.2,-16
 L 7.82512,-15.9453 L 8.43126,-15.7829 L 9,-15.5177 L 9.51402,-15.1577 L 9.95775,-14.714 L 10.3177,-14.2
 L 10.5829,-13.6313 L 10.7453,-13.0251 L 10.8,-12.4 L 10.7453,-11.7749 L 10.5829,-11.1687 L 10.3177,-10.6
 L 9.95775,-10.086 L 9.51402,-9.64223 L 9,-9.2823 L 8.43126,-9.01711 L 7.82512,-8.85469 L 7.2,-8.79999
 z
M 50.5749,-8.85469 L 49.9687,-9.01711 L 49.4,-9.2823 L 48.886,-9.64223 L 48.4422,-10.086 L 48.0823,-10.6
 L 47.8171,-11.1687 L 47.6547,-11.7749 L 47.6,-12.4 L 47.6547,-13.0251 L 47.8171,-13.6313 L 48.0823,-14.2
 L 48.4422,-14.714 L 48.886,-15.1577 L 49.4,-15.5177 L 49.9687,-15.7829 L 50.5749,-15.9453 L 51.2,-16
 L 51.8251,-15.9453 L 52.4313,-15.7829 L 53,-15.5177 L 53.514,-15.1577 L 53.9577,-14.714 L 54.3177,-14.2
 L 54.5829,-13.6313 L 54.7453,-13.0251 L 54.8,-12.4 L 54.7453,-11.7749 L 54.5829,-11.1687 L 54.3177,-10.6
 L 53.9577,-10.086 L 53.514,-9.64223 L 53,-9.2823 L 52.4313,-9.01711 L 51.8251,-8.85469 L 51.2,-8.79999
 z
M 145.375,-2.45468 L 144.769,-2.6171 L 144.2,-2.88229 L 143.686,-3.24223 L 143.242,-3.68596 L 142.882,-4.2
 L 142.617,-4.76872 L 142.455,-5.37486 L 142.4,-6 L 142.455,-6.62512 L 142.617,-7.23126 L 142.882,-7.79999
 L 143.242,-8.31403 L 143.686,-8.75775 L 144.2,-9.11769 L 144.769,-9.38289 L 145.375,-9.5453 L 146,-9.59999
 L 146.625,-9.5453 L 147.231,-9.38289 L 147.8,-9.11769 L 148.314,-8.75775 L 148.758,-8.31403 L 149.118,-7.79999
 L 149.383,-7.23126 L 149.545,-6.62512 L 149.6,-6 L 149.545,-5.37486 L 149.383,-4.76872 L 149.118,-4.2
 L 148.758,-3.68596 L 148.314,-3.24223 L 147.8,-2.88229 L 147.231,-2.6171 L 146.625,-2.45468 L 146,-2.39999
 z
M 99.3749,-2.45468 L 98.7687,-2.6171 L 98.2,-2.88229 L 97.686,-3.24223 L 97.2422,-3.68596 L 96.8823,-4.2
 L 96.6171,-4.76872 L 96.4547,-5.37486 L 96.4,-6 L 96.4547,-6.62512 L 96.6171,-7.23126 L 96.8823,-7.79999
 L 97.2422,-8.31403 L 97.686,-8.75775 L 98.2,-9.11769 L 98.7687,-9.38289 L 99.3749,-9.5453 L 100,-9.59999
 L 100.625,-9.5453 L 101.231,-9.38289 L 101.8,-9.11769 L 102.314,-8.75775 L 102.758,-8.31403 L 103.118,-7.79999
 L 103.383,-7.23126 L 103.545,-6.62512 L 103.6,-6 L 103.545,-5.37486 L 103.383,-4.76872 L 103.118,-4.2
 L 102.758,-3.68596 L 102.314,-3.24223 L 101.8,-2.88229 L 101.231,-2.6171 L 100.625,-2.45468 L 100,-2.39999
 z
M 77.0012,-3.69199 L 76.35,-3.96173 L 75.7908,-4.39081 L 75.3617,-4.95 L 75.092,-5.60118 L 75,-6.29999
 L 75.092,-6.99881 L 75.3617,-7.64999 L 75.7908,-8.20918 L 76.35,-8.63826 L 77.0012,-8.90799 L 77.7,-9
 L 78.3988,-8.90799 L 79.05,-8.63826 L 79.6092,-8.20918 L 80.0383,-7.64999 L 80.308,-6.99881 L 80.4,-6.29999
 L 80.308,-5.60118 L 80.0383,-4.95 L 79.6092,-4.39081 L 79.05,-3.96173 L 78.3988,-3.69199 L 77.7,-3.59999
 z
" stroke="black" fill="lightgray" stroke-width="0.5"/>
</svg>
