solid OpenSCAD_Model
  facet normal 0.923876 0.382692 0
    outer loop
      vertex 2.59056 1 18
      vertex 2.42487 1.4 1
      vertex 2.42487 1.4 18
    endloop
  endfacet
  facet normal 0.923876 0.382692 0
    outer loop
      vertex 2.42487 1.4 1
      vertex 2.59056 1 18
      vertex 2.59056 1 1
    endloop
  endfacet
  facet normal 0.793355 0.608759 0
    outer loop
      vertex 2.42487 1.4 18
      vertex 1.9799 1.9799 1
      vertex 1.9799 1.9799 18
    endloop
  endfacet
  facet normal 0.793355 0.608759 0
    outer loop
      vertex 1.9799 1.9799 1
      vertex 2.42487 1.4 18
      vertex 2.42487 1.4 1
    endloop
  endfacet
  facet normal 0.793355 -0.608759 0
    outer loop
      vertex 1.9799 -1.9799 18
      vertex 2.42487 -1.4 1
      vertex 2.42487 -1.4 18
    endloop
  endfacet
  facet normal 0.793355 -0.608759 0
    outer loop
      vertex 2.42487 -1.4 1
      vertex 1.9799 -1.9799 18
      vertex 1.9799 -1.9799 1
    endloop
  endfacet
  facet normal 0.608759 0.793355 -0
    outer loop
      vertex 1.9799 1.9799 1
      vertex 1.4 2.42487 18
      vertex 1.9799 1.9799 18
    endloop
  endfacet
  facet normal 0.608759 0.793355 0
    outer loop
      vertex 1.4 2.42487 18
      vertex 1.9799 1.9799 1
      vertex 1.4 2.42487 1
    endloop
  endfacet
  facet normal -0.793355 0.608759 0
    outer loop
      vertex -2.42487 1.4 1
      vertex -1.9799 1.9799 18
      vertex -1.9799 1.9799 1
    endloop
  endfacet
  facet normal -0.793355 0.608759 0
    outer loop
      vertex -1.9799 1.9799 18
      vertex -2.42487 1.4 1
      vertex -2.42487 1.4 18
    endloop
  endfacet
  facet normal 0 0 -1
    outer loop
      vertex 1.33035 -0.888912 0
      vertex 10.5 0 0
      vertex 5.25 -9.09327 0
    endloop
  endfacet
  facet normal 0 0 -1
    outer loop
      vertex 1.56926 0.312144 0
      vertex 10.5 0 0
      vertex 1.6 0 0
    endloop
  endfacet
  facet normal -0 0 -1
    outer loop
      vertex 10.5 0 0
      vertex 1.56926 -0.312144 0
      vertex 1.6 0 0
    endloop
  endfacet
  facet normal 0 0 -1
    outer loop
      vertex 10.5 0 0
      vertex 1.47821 -0.612293 0
      vertex 1.56926 -0.312144 0
    endloop
  endfacet
  facet normal 0 0 -1
    outer loop
      vertex 10.5 0 0
      vertex 1.33035 -0.888912 0
      vertex 1.47821 -0.612293 0
    endloop
  endfacet
  facet normal 0 0 -1
    outer loop
      vertex 5.25 -9.09327 0
      vertex 1.13137 -1.13137 0
      vertex 1.33035 -0.888912 0
    endloop
  endfacet
  facet normal 0 0 -1
    outer loop
      vertex 5.25 -9.09327 0
      vertex 0.888912 -1.33035 0
      vertex 1.13137 -1.13137 0
    endloop
  endfacet
  facet normal 0 0 -1
    outer loop
      vertex 5.25 -9.09327 0
      vertex 0.612293 -1.47821 0
      vertex 0.888912 -1.33035 0
    endloop
  endfacet
  facet normal 0 0 -1
    outer loop
      vertex 5.25 -9.09327 0
      vertex 0.312144 -1.56926 0
      vertex 0.612293 -1.47821 0
    endloop
  endfacet
  facet normal 0 0 -1
    outer loop
      vertex 5.25 -9.09327 0
      vertex 0 -1.6 0
      vertex 0.312144 -1.56926 0
    endloop
  endfacet
  facet normal 0 0 -1
    outer loop
      vertex -5.25 -9.09327 0
      vertex 0 -1.6 0
      vertex 5.25 -9.09327 0
    endloop
  endfacet
  facet normal -0 0 -1
    outer loop
      vertex 0 -1.6 0
      vertex -5.25 -9.09327 0
      vertex -0.312144 -1.56926 0
    endloop
  endfacet
  facet normal -0 0 -1
    outer loop
      vertex -0.312144 -1.56926 0
      vertex -5.25 -9.09327 0
      vertex -0.612293 -1.47821 0
    endloop
  endfacet
  facet normal -0 0 -1
    outer loop
      vertex -0.612293 -1.47821 0
      vertex -5.25 -9.09327 0
      vertex -0.888912 -1.33035 0
    endloop
  endfacet
  facet normal -0 0 -1
    outer loop
      vertex -0.888912 -1.33035 0
      vertex -5.25 -9.09327 0
      vertex -1.13137 -1.13137 0
    endloop
  endfacet
  facet normal 0 0 -1
    outer loop
      vertex -1.47821 -0.612293 0
      vertex -10.5 0 0
      vertex -1.56926 -0.312144 0
    endloop
  endfacet
  facet normal 0 0 -1
    outer loop
      vertex -1.33035 -0.888912 0
      vertex -10.5 0 0
      vertex -1.47821 -0.612293 0
    endloop
  endfacet
  facet normal 0 0 -1
    outer loop
      vertex -10.5 0 0
      vertex -1.33035 -0.888912 0
      vertex -5.25 -9.09327 0
    endloop
  endfacet
  facet normal -0 0 -1
    outer loop
      vertex -1.13137 -1.13137 0
      vertex -5.25 -9.09327 0
      vertex -1.33035 -0.888912 0
    endloop
  endfacet
  facet normal 0 0 -1
    outer loop
      vertex 1.47821 0.612293 0
      vertex 10.5 0 0
      vertex 1.56926 0.312144 0
    endloop
  endfacet
  facet normal 0 0 -1
    outer loop
      vertex 1.33035 0.888912 0
      vertex 10.5 0 0
      vertex 1.47821 0.612293 0
    endloop
  endfacet
  facet normal 0 0 -1
    outer loop
      vertex 10.5 0 0
      vertex 1.33035 0.888912 0
      vertex 5.25 9.09327 0
    endloop
  endfacet
  facet normal 0 0 -1
    outer loop
      vertex 1.13137 1.13137 0
      vertex 5.25 9.09327 0
      vertex 1.33035 0.888912 0
    endloop
  endfacet
  facet normal 0 0 -1
    outer loop
      vertex 0.888912 1.33035 0
      vertex 5.25 9.09327 0
      vertex 1.13137 1.13137 0
    endloop
  endfacet
  facet normal 0 0 -1
    outer loop
      vertex 0.612293 1.47821 0
      vertex 5.25 9.09327 0
      vertex 0.888912 1.33035 0
    endloop
  endfacet
  facet normal 0 0 -1
    outer loop
      vertex 0.312144 1.56926 0
      vertex 5.25 9.09327 0
      vertex 0.612293 1.47821 0
    endloop
  endfacet
  facet normal 0 0 -1
    outer loop
      vertex 0 1.6 0
      vertex 5.25 9.09327 0
      vertex 0.312144 1.56926 0
    endloop
  endfacet
  facet normal 0 0 -1
    outer loop
      vertex -5.25 9.09327 0
      vertex 0 1.6 0
      vertex -0.312144 1.56926 0
    endloop
  endfacet
  facet normal 0 0 -1
    outer loop
      vertex -5.25 9.09327 0
      vertex -0.312144 1.56926 0
      vertex -0.612293 1.47821 0
    endloop
  endfacet
  facet normal 0 0 -1
    outer loop
      vertex -5.25 9.09327 0
      vertex -0.612293 1.47821 0
      vertex -0.888912 1.33035 0
    endloop
  endfacet
  facet normal 0 0 -1
    outer loop
      vertex -5.25 9.09327 0
      vertex -0.888912 1.33035 0
      vertex -1.13137 1.13137 0
    endloop
  endfacet
  facet normal 0 0 -1
    outer loop
      vertex -5.25 9.09327 0
      vertex -1.13137 1.13137 0
      vertex -1.33035 0.888912 0
    endloop
  endfacet
  facet normal 0 0 -1
    outer loop
      vertex -1.56926 -0.312144 0
      vertex -10.5 0 0
      vertex -1.6 0 0
    endloop
  endfacet
  facet normal 0 0 -1
    outer loop
      vertex -1.6 0 0
      vertex -10.5 0 0
      vertex -1.56926 0.312144 0
    endloop
  endfacet
  facet normal 0 0 -1
    outer loop
      vertex 0 1.6 0
      vertex -5.25 9.09327 0
      vertex 5.25 9.09327 0
    endloop
  endfacet
  facet normal 0 0 -1
    outer loop
      vertex -10.5 0 0
      vertex -1.33035 0.888912 0
      vertex -1.47821 0.612293 0
    endloop
  endfacet
  facet normal -0 0 -1
    outer loop
      vertex -1.56926 0.312144 0
      vertex -10.5 0 0
      vertex -1.47821 0.612293 0
    endloop
  endfacet
  facet normal -0 0 -1
    outer loop
      vertex -1.33035 0.888912 0
      vertex -10.5 0 0
      vertex -5.25 9.09327 0
    endloop
  endfacet
  facet normal -0.382682 -0.92388 0
    outer loop
      vertex -1.4 -2.42487 1
      vertex -0.724693 -2.70459 18
      vertex -1.4 -2.42487 18
    endloop
  endfacet
  facet normal -0.382682 -0.92388 -0
    outer loop
      vertex -0.724693 -2.70459 18
      vertex -1.4 -2.42487 1
      vertex -0.724693 -2.70459 1
    endloop
  endfacet
  facet normal -0.130529 -0.991444 0
    outer loop
      vertex -0.724693 -2.70459 1
      vertex 0 -2.8 18
      vertex -0.724693 -2.70459 18
    endloop
  endfacet
  facet normal -0.130529 -0.991444 -0
    outer loop
      vertex 0 -2.8 18
      vertex -0.724693 -2.70459 1
      vertex 0 -2.8 1
    endloop
  endfacet
  facet normal -0.923876 -0.382692 0
    outer loop
      vertex -2.42487 -1.4 1
      vertex -2.59056 -1 18
      vertex -2.59056 -1 1
    endloop
  endfacet
  facet normal -0.923876 -0.382692 0
    outer loop
      vertex -2.59056 -1 18
      vertex -2.42487 -1.4 1
      vertex -2.42487 -1.4 18
    endloop
  endfacet
  facet normal 0.382682 0.92388 -0
    outer loop
      vertex 1.4 2.42487 1
      vertex 0.724693 2.70459 18
      vertex 1.4 2.42487 18
    endloop
  endfacet
  facet normal 0.382682 0.92388 0
    outer loop
      vertex 0.724693 2.70459 18
      vertex 1.4 2.42487 1
      vertex 0.724693 2.70459 1
    endloop
  endfacet
  facet normal 0.923876 -0.382692 0
    outer loop
      vertex 2.42487 -1.4 18
      vertex 2.59056 -1 1
      vertex 2.59056 -1 18
    endloop
  endfacet
  facet normal 0.923876 -0.382692 0
    outer loop
      vertex 2.59056 -1 1
      vertex 2.42487 -1.4 18
      vertex 2.42487 -1.4 1
    endloop
  endfacet
  facet normal -0.382682 0.92388 0
    outer loop
      vertex -0.724693 2.70459 1
      vertex -1.4 2.42487 18
      vertex -0.724693 2.70459 18
    endloop
  endfacet
  facet normal -0.382682 0.92388 0
    outer loop
      vertex -1.4 2.42487 18
      vertex -0.724693 2.70459 1
      vertex -1.4 2.42487 1
    endloop
  endfacet
  facet normal 0.382682 -0.92388 0
    outer loop
      vertex 0.724693 -2.70459 1
      vertex 1.4 -2.42487 18
      vertex 0.724693 -2.70459 18
    endloop
  endfacet
  facet normal 0.382682 -0.92388 0
    outer loop
      vertex 1.4 -2.42487 18
      vertex 0.724693 -2.70459 1
      vertex 1.4 -2.42487 1
    endloop
  endfacet
  facet normal -0.923876 0.382692 0
    outer loop
      vertex -2.59056 1 1
      vertex -2.42487 1.4 18
      vertex -2.42487 1.4 1
    endloop
  endfacet
  facet normal -0.923876 0.382692 0
    outer loop
      vertex -2.42487 1.4 18
      vertex -2.59056 1 1
      vertex -2.59056 1 18
    endloop
  endfacet
  facet normal 0.608759 -0.793355 0
    outer loop
      vertex 1.4 -2.42487 1
      vertex 1.9799 -1.9799 18
      vertex 1.4 -2.42487 18
    endloop
  endfacet
  facet normal 0.608759 -0.793355 0
    outer loop
      vertex 1.9799 -1.9799 18
      vertex 1.4 -2.42487 1
      vertex 1.9799 -1.9799 1
    endloop
  endfacet
  facet normal -0.793355 -0.608759 0
    outer loop
      vertex -1.9799 -1.9799 1
      vertex -2.42487 -1.4 18
      vertex -2.42487 -1.4 1
    endloop
  endfacet
  facet normal -0.793355 -0.608759 0
    outer loop
      vertex -2.42487 -1.4 18
      vertex -1.9799 -1.9799 1
      vertex -1.9799 -1.9799 18
    endloop
  endfacet
  facet normal -0.130529 0.991444 0
    outer loop
      vertex 0 2.8 1
      vertex -0.724693 2.70459 18
      vertex 0 2.8 18
    endloop
  endfacet
  facet normal -0.130529 0.991444 0
    outer loop
      vertex -0.724693 2.70459 18
      vertex 0 2.8 1
      vertex -0.724693 2.70459 1
    endloop
  endfacet
  facet normal -0.608759 0.793355 0
    outer loop
      vertex -1.4 2.42487 1
      vertex -1.9799 1.9799 18
      vertex -1.4 2.42487 18
    endloop
  endfacet
  facet normal -0.608759 0.793355 0
    outer loop
      vertex -1.9799 1.9799 18
      vertex -1.4 2.42487 1
      vertex -1.9799 1.9799 1
    endloop
  endfacet
  facet normal 0.130529 -0.991444 0
    outer loop
      vertex 0 -2.8 1
      vertex 0.724693 -2.70459 18
      vertex 0 -2.8 18
    endloop
  endfacet
  facet normal 0.130529 -0.991444 0
    outer loop
      vertex 0.724693 -2.70459 18
      vertex 0 -2.8 1
      vertex 0.724693 -2.70459 1
    endloop
  endfacet
  facet normal 0.130529 0.991444 -0
    outer loop
      vertex 0.724693 2.70459 1
      vertex 0 2.8 18
      vertex 0.724693 2.70459 18
    endloop
  endfacet
  facet normal 0.130529 0.991444 0
    outer loop
      vertex 0 2.8 18
      vertex 0.724693 2.70459 1
      vertex 0 2.8 1
    endloop
  endfacet
  facet normal -0.608759 -0.793355 0
    outer loop
      vertex -1.9799 -1.9799 1
      vertex -1.4 -2.42487 18
      vertex -1.9799 -1.9799 18
    endloop
  endfacet
  facet normal -0.608759 -0.793355 -0
    outer loop
      vertex -1.4 -2.42487 18
      vertex -1.9799 -1.9799 1
      vertex -1.4 -2.42487 1
    endloop
  endfacet
  facet normal -0.710811 0.545421 0.444145
    outer loop
      vertex -1.73205 1 19.6
      vertex -1.9799 1.9799 18
      vertex -2.42487 1.4 18
    endloop
  endfacet
  facet normal -0.71083 0.545402 0.444137
    outer loop
      vertex -1.9799 1.9799 18
      vertex -1.73205 1 19.6
      vertex -1.59784 1 19.8148
    endloop
  endfacet
  facet normal -0.710799 0.545434 0.444147
    outer loop
      vertex -1.59784 1 19.8148
      vertex -1.27279 1.27279 20
      vertex -1.9799 1.9799 18
    endloop
  endfacet
  facet normal -0.710797 0.545416 0.444172
    outer loop
      vertex -1.27279 1.27279 20
      vertex -1.59784 1 19.8148
      vertex -1.48211 1 20
    endloop
  endfacet
  facet normal -0.116939 0.888292 0.444143
    outer loop
      vertex 0 1.8 20
      vertex -0.724693 2.70459 18
      vertex -0.465874 1.73867 20
    endloop
  endfacet
  facet normal -0.342866 0.827756 0.444143
    outer loop
      vertex -0.724693 2.70459 18
      vertex -1.4 2.42487 18
      vertex -0.9 1.55885 20
    endloop
  endfacet
  facet normal 0.116939 -0.888292 0.444143
    outer loop
      vertex 0.465874 -1.73867 20
      vertex 0 -1.8 20
      vertex 0.724693 -2.70459 18
    endloop
  endfacet
  facet normal 0.545421 -0.710811 0.444144
    outer loop
      vertex 1.9799 -1.9799 18
      vertex 0.9 -1.55885 20
      vertex 1.4 -2.42487 18
    endloop
  endfacet
  facet normal 0.545421 0.710811 0.444144
    outer loop
      vertex 1.4 2.42487 18
      vertex 0.9 1.55885 20
      vertex 1.9799 1.9799 18
    endloop
  endfacet
  facet normal -0.116939 -0.888292 0.444143
    outer loop
      vertex -0.465874 -1.73867 20
      vertex -0.724693 -2.70459 18
      vertex 0 -1.8 20
    endloop
  endfacet
  facet normal -0.827751 0.342875 0.444145
    outer loop
      vertex -2.42487 1.4 18
      vertex -2.59056 1 18
      vertex -1.73205 1 19.6
    endloop
  endfacet
  facet normal 0.342866 0.827756 0.444143
    outer loop
      vertex 1.4 2.42487 18
      vertex 0.724693 2.70459 18
      vertex 0.9 1.55885 20
    endloop
  endfacet
  facet normal -0.545432 -0.7108 0.444147
    outer loop
      vertex -1.27279 -1.27279 20
      vertex -1.9799 -1.9799 18
      vertex -0.9 -1.55885 20
    endloop
  endfacet
  facet normal 0.342866 -0.827756 0.444143
    outer loop
      vertex 0.9 -1.55885 20
      vertex 0.465874 -1.73867 20
      vertex 0.724693 -2.70459 18
    endloop
  endfacet
  facet normal -0.116948 0.88829 0.444145
    outer loop
      vertex 0 2.8 18
      vertex -0.724693 2.70459 18
      vertex 0 1.8 20
    endloop
  endfacet
  facet normal 0.71083 -0.545402 0.444137
    outer loop
      vertex 1.9799 -1.9799 18
      vertex 1.73205 -1 19.6
      vertex 1.59784 -1 19.8148
    endloop
  endfacet
  facet normal 0.710811 -0.545421 0.444145
    outer loop
      vertex 1.73205 -1 19.6
      vertex 1.9799 -1.9799 18
      vertex 2.42487 -1.4 18
    endloop
  endfacet
  facet normal -0.342866 0.827756 0.444143
    outer loop
      vertex -0.724693 2.70459 18
      vertex -0.9 1.55885 20
      vertex -0.465874 1.73867 20
    endloop
  endfacet
  facet normal 0.342866 -0.827756 0.444143
    outer loop
      vertex 0.9 -1.55885 20
      vertex 0.724693 -2.70459 18
      vertex 1.4 -2.42487 18
    endloop
  endfacet
  facet normal 0.545432 0.7108 0.444147
    outer loop
      vertex 1.9799 1.9799 18
      vertex 0.9 1.55885 20
      vertex 1.27279 1.27279 20
    endloop
  endfacet
  facet normal -0.545432 0.7108 0.444147
    outer loop
      vertex -0.9 1.55885 20
      vertex -1.9799 1.9799 18
      vertex -1.27279 1.27279 20
    endloop
  endfacet
  facet normal 0.342866 0.827756 0.444143
    outer loop
      vertex 0.724693 2.70459 18
      vertex 0.465874 1.73867 20
      vertex 0.9 1.55885 20
    endloop
  endfacet
  facet normal 0.116948 -0.88829 0.444145
    outer loop
      vertex 0 -1.8 20
      vertex 0 -2.8 18
      vertex 0.724693 -2.70459 18
    endloop
  endfacet
  facet normal -0.545421 0.710811 0.444144
    outer loop
      vertex -1.4 2.42487 18
      vertex -1.9799 1.9799 18
      vertex -0.9 1.55885 20
    endloop
  endfacet
  facet normal 0.116948 0.88829 0.444145
    outer loop
      vertex 0 2.8 18
      vertex 0 1.8 20
      vertex 0.724693 2.70459 18
    endloop
  endfacet
  facet normal 0.827751 -0.342875 0.444145
    outer loop
      vertex 2.59056 -1 18
      vertex 1.73205 -1 19.6
      vertex 2.42487 -1.4 18
    endloop
  endfacet
  facet normal -0.710811 -0.545421 0.444145
    outer loop
      vertex -1.9799 -1.9799 18
      vertex -1.73205 -1 19.6
      vertex -2.42487 -1.4 18
    endloop
  endfacet
  facet normal -0.71083 -0.545402 0.444137
    outer loop
      vertex -1.73205 -1 19.6
      vertex -1.9799 -1.9799 18
      vertex -1.59784 -1 19.8148
    endloop
  endfacet
  facet normal 0.116939 0.888292 0.444143
    outer loop
      vertex 0.724693 2.70459 18
      vertex 0 1.8 20
      vertex 0.465874 1.73867 20
    endloop
  endfacet
  facet normal -0.710797 -0.545416 0.444172
    outer loop
      vertex -1.59784 -1 19.8148
      vertex -1.27279 -1.27279 20
      vertex -1.48211 -1 20
    endloop
  endfacet
  facet normal -0.710799 -0.545434 0.444147
    outer loop
      vertex -1.27279 -1.27279 20
      vertex -1.59784 -1 19.8148
      vertex -1.9799 -1.9799 18
    endloop
  endfacet
  facet normal 0.545432 -0.7108 0.444147
    outer loop
      vertex 1.27279 -1.27279 20
      vertex 0.9 -1.55885 20
      vertex 1.9799 -1.9799 18
    endloop
  endfacet
  facet normal -0.116948 -0.88829 0.444145
    outer loop
      vertex 0 -1.8 20
      vertex -0.724693 -2.70459 18
      vertex 0 -2.8 18
    endloop
  endfacet
  facet normal -0.545421 -0.710811 0.444144
    outer loop
      vertex -0.9 -1.55885 20
      vertex -1.9799 -1.9799 18
      vertex -1.4 -2.42487 18
    endloop
  endfacet
  facet normal -0.342866 -0.827756 0.444143
    outer loop
      vertex -0.465874 -1.73867 20
      vertex -0.9 -1.55885 20
      vertex -0.724693 -2.70459 18
    endloop
  endfacet
  facet normal -0.342866 -0.827756 0.444143
    outer loop
      vertex -0.9 -1.55885 20
      vertex -1.4 -2.42487 18
      vertex -0.724693 -2.70459 18
    endloop
  endfacet
  facet normal 0.710797 -0.545416 0.444172
    outer loop
      vertex 1.27279 -1.27279 20
      vertex 1.59784 -1 19.8148
      vertex 1.48211 -1 20
    endloop
  endfacet
  facet normal 0.710799 -0.545434 0.444147
    outer loop
      vertex 1.59784 -1 19.8148
      vertex 1.27279 -1.27279 20
      vertex 1.9799 -1.9799 18
    endloop
  endfacet
  facet normal 0.710797 0.545416 0.444172
    outer loop
      vertex 1.59784 1 19.8148
      vertex 1.27279 1.27279 20
      vertex 1.48211 1 20
    endloop
  endfacet
  facet normal 0.710799 0.545434 0.444147
    outer loop
      vertex 1.27279 1.27279 20
      vertex 1.59784 1 19.8148
      vertex 1.9799 1.9799 18
    endloop
  endfacet
  facet normal 0.71083 0.545402 0.444137
    outer loop
      vertex 1.73205 1 19.6
      vertex 1.9799 1.9799 18
      vertex 1.59784 1 19.8148
    endloop
  endfacet
  facet normal 0.710811 0.545421 0.444145
    outer loop
      vertex 1.9799 1.9799 18
      vertex 1.73205 1 19.6
      vertex 2.42487 1.4 18
    endloop
  endfacet
  facet normal 0.827751 0.342875 0.444145
    outer loop
      vertex 2.42487 1.4 18
      vertex 1.73205 1 19.6
      vertex 2.59056 1 18
    endloop
  endfacet
  facet normal -0.827751 -0.342875 0.444145
    outer loop
      vertex -1.73205 -1 19.6
      vertex -2.59056 -1 18
      vertex -2.42487 -1.4 18
    endloop
  endfacet
  facet normal 0 0 1
    outer loop
      vertex 0.9 1.55885 20
      vertex 1.48211 1 20
      vertex 1.27279 1.27279 20
    endloop
  endfacet
  facet normal 0 0 1
    outer loop
      vertex 0.465874 1.73867 20
      vertex 1.48211 1 20
      vertex 0.9 1.55885 20
    endloop
  endfacet
  facet normal 0 0 1
    outer loop
      vertex 0 1.8 20
      vertex 1.48211 1 20
      vertex 0.465874 1.73867 20
    endloop
  endfacet
  facet normal -0 0 1
    outer loop
      vertex -0.465874 1.73867 20
      vertex 1.48211 1 20
      vertex 0 1.8 20
    endloop
  endfacet
  facet normal -0 0 1
    outer loop
      vertex -0.9 1.55885 20
      vertex 1.48211 1 20
      vertex -0.465874 1.73867 20
    endloop
  endfacet
  facet normal 0 0 1
    outer loop
      vertex -1.48211 1 20
      vertex -0.9 1.55885 20
      vertex -1.27279 1.27279 20
    endloop
  endfacet
  facet normal 0 0 1
    outer loop
      vertex -0.9 1.55885 20
      vertex -1.48211 1 20
      vertex 1.48211 1 20
    endloop
  endfacet
  facet normal 0 0 1
    outer loop
      vertex 1.48211 -1 20
      vertex 0.9 -1.55885 20
      vertex 1.27279 -1.27279 20
    endloop
  endfacet
  facet normal 0 0 1
    outer loop
      vertex 1.48211 -1 20
      vertex 0.465874 -1.73867 20
      vertex 0.9 -1.55885 20
    endloop
  endfacet
  facet normal 0 0 1
    outer loop
      vertex 1.48211 -1 20
      vertex 0 -1.8 20
      vertex 0.465874 -1.73867 20
    endloop
  endfacet
  facet normal 0 0 1
    outer loop
      vertex 1.48211 -1 20
      vertex -0.465874 -1.73867 20
      vertex 0 -1.8 20
    endloop
  endfacet
  facet normal 0 0 1
    outer loop
      vertex 1.48211 -1 20
      vertex -0.9 -1.55885 20
      vertex -0.465874 -1.73867 20
    endloop
  endfacet
  facet normal -0 0 1
    outer loop
      vertex -1.48211 -1 20
      vertex -0.9 -1.55885 20
      vertex 1.48211 -1 20
    endloop
  endfacet
  facet normal 0 0 1
    outer loop
      vertex -0.9 -1.55885 20
      vertex -1.48211 -1 20
      vertex -1.27279 -1.27279 20
    endloop
  endfacet
  facet normal 0 -1 0
    outer loop
      vertex -5.25 -9.09327 0
      vertex 5.25 -9.09327 1
      vertex -5.25 -9.09327 1
    endloop
  endfacet
  facet normal 0 -1 -0
    outer loop
      vertex 5.25 -9.09327 1
      vertex -5.25 -9.09327 0
      vertex 5.25 -9.09327 0
    endloop
  endfacet
  facet normal 0.866025 -0.5 0
    outer loop
      vertex 5.25 -9.09327 1
      vertex 10.5 0 0
      vertex 10.5 0 1
    endloop
  endfacet
  facet normal 0.866025 -0.5 0
    outer loop
      vertex 10.5 0 0
      vertex 5.25 -9.09327 1
      vertex 5.25 -9.09327 0
    endloop
  endfacet
  facet normal 0 1 -0
    outer loop
      vertex 5.25 9.09327 0
      vertex -5.25 9.09327 1
      vertex 5.25 9.09327 1
    endloop
  endfacet
  facet normal 0 1 0
    outer loop
      vertex -5.25 9.09327 1
      vertex 5.25 9.09327 0
      vertex -5.25 9.09327 0
    endloop
  endfacet
  facet normal 0.866025 0.5 0
    outer loop
      vertex 10.5 0 1
      vertex 5.25 9.09327 0
      vertex 5.25 9.09327 1
    endloop
  endfacet
  facet normal 0.866025 0.5 0
    outer loop
      vertex 5.25 9.09327 0
      vertex 10.5 0 1
      vertex 10.5 0 0
    endloop
  endfacet
  facet normal -0.866025 0.5 0
    outer loop
      vertex -10.5 0 0
      vertex -5.25 9.09327 1
      vertex -5.25 9.09327 0
    endloop
  endfacet
  facet normal -0.866025 0.5 0
    outer loop
      vertex -5.25 9.09327 1
      vertex -10.5 0 0
      vertex -10.5 0 1
    endloop
  endfacet
  facet normal -0.866025 -0.5 0
    outer loop
      vertex -5.25 -9.09327 0
      vertex -10.5 0 1
      vertex -10.5 0 0
    endloop
  endfacet
  facet normal -0.866025 -0.5 0
    outer loop
      vertex -10.5 0 1
      vertex -5.25 -9.09327 0
      vertex -5.25 -9.09327 1
    endloop
  endfacet
  facet normal -0 0 1
    outer loop
      vertex 5 1 1
      vertex 10.5 0 1
      vertex 5.25 9.09327 1
    endloop
  endfacet
  facet normal 0 0 1
    outer loop
      vertex 5 -1 1
      vertex 10.5 0 1
      vertex 5 1 1
    endloop
  endfacet
  facet normal -0 0 1
    outer loop
      vertex 1.9799 1.9799 1
      vertex 5 1 1
      vertex 5.25 9.09327 1
    endloop
  endfacet
  facet normal 0 0 1
    outer loop
      vertex 5 1 1
      vertex 2.42487 1.4 1
      vertex 2.59056 1 1
    endloop
  endfacet
  facet normal 0 0 1
    outer loop
      vertex 5 1 1
      vertex 1.9799 1.9799 1
      vertex 2.42487 1.4 1
    endloop
  endfacet
  facet normal 0 0 1
    outer loop
      vertex 5.25 9.09327 1
      vertex 1.4 2.42487 1
      vertex 1.9799 1.9799 1
    endloop
  endfacet
  facet normal 0 0 1
    outer loop
      vertex 5.25 9.09327 1
      vertex 0.724693 2.70459 1
      vertex 1.4 2.42487 1
    endloop
  endfacet
  facet normal 0 0 1
    outer loop
      vertex 5.25 9.09327 1
      vertex 0 2.8 1
      vertex 0.724693 2.70459 1
    endloop
  endfacet
  facet normal -0 0 1
    outer loop
      vertex -5.25 9.09327 1
      vertex 0 2.8 1
      vertex 5.25 9.09327 1
    endloop
  endfacet
  facet normal 0 0 1
    outer loop
      vertex 0 2.8 1
      vertex -5.25 9.09327 1
      vertex -0.724693 2.70459 1
    endloop
  endfacet
  facet normal 0 0 1
    outer loop
      vertex -0.724693 2.70459 1
      vertex -5.25 9.09327 1
      vertex -1.4 2.42487 1
    endloop
  endfacet
  facet normal 0 0 1
    outer loop
      vertex -2.42487 1.4 1
      vertex -5 1 1
      vertex -2.59056 1 1
    endloop
  endfacet
  facet normal 0 0 1
    outer loop
      vertex -1.9799 1.9799 1
      vertex -5 1 1
      vertex -2.42487 1.4 1
    endloop
  endfacet
  facet normal 0 0 1
    outer loop
      vertex -1.4 2.42487 1
      vertex -5.25 9.09327 1
      vertex -1.9799 1.9799 1
    endloop
  endfacet
  facet normal 0 0 1
    outer loop
      vertex -10.5 0 1
      vertex -5 1 1
      vertex -5.25 9.09327 1
    endloop
  endfacet
  facet normal 0 0 1
    outer loop
      vertex -1.9799 1.9799 1
      vertex -5.25 9.09327 1
      vertex -5 1 1
    endloop
  endfacet
  facet normal 0 0 1
    outer loop
      vertex 10.5 0 1
      vertex 5 -1 1
      vertex 5.25 -9.09327 1
    endloop
  endfacet
  facet normal 0 0 1
    outer loop
      vertex 2.42487 -1.4 1
      vertex 5 -1 1
      vertex 2.59056 -1 1
    endloop
  endfacet
  facet normal 0 0 1
    outer loop
      vertex 1.9799 -1.9799 1
      vertex 5 -1 1
      vertex 2.42487 -1.4 1
    endloop
  endfacet
  facet normal 0 0 1
    outer loop
      vertex 5 -1 1
      vertex 1.9799 -1.9799 1
      vertex 5.25 -9.09327 1
    endloop
  endfacet
  facet normal -0 0 1
    outer loop
      vertex 1.4 -2.42487 1
      vertex 5.25 -9.09327 1
      vertex 1.9799 -1.9799 1
    endloop
  endfacet
  facet normal -0 0 1
    outer loop
      vertex 0.724693 -2.70459 1
      vertex 5.25 -9.09327 1
      vertex 1.4 -2.42487 1
    endloop
  endfacet
  facet normal -0 0 1
    outer loop
      vertex 0 -2.8 1
      vertex 5.25 -9.09327 1
      vertex 0.724693 -2.70459 1
    endloop
  endfacet
  facet normal 0 0 1
    outer loop
      vertex -5.25 -9.09327 1
      vertex 0 -2.8 1
      vertex -0.724693 -2.70459 1
    endloop
  endfacet
  facet normal 0 0 1
    outer loop
      vertex -5.25 -9.09327 1
      vertex -0.724693 -2.70459 1
      vertex -1.4 -2.42487 1
    endloop
  endfacet
  facet normal 0 0 1
    outer loop
      vertex -5.25 -9.09327 1
      vertex -1.4 -2.42487 1
      vertex -1.9799 -1.9799 1
    endloop
  endfacet
  facet normal -0 0 1
    outer loop
      vertex -5 -1 1
      vertex -2.42487 -1.4 1
      vertex -2.59056 -1 1
    endloop
  endfacet
  facet normal 0 0 1
    outer loop
      vertex -5 -1 1
      vertex -1.9799 -1.9799 1
      vertex -2.42487 -1.4 1
    endloop
  endfacet
  facet normal 0 0 1
    outer loop
      vertex -5.25 -9.09327 1
      vertex -1.9799 -1.9799 1
      vertex -5 -1 1
    endloop
  endfacet
  facet normal 0 0 1
    outer loop
      vertex 0 -2.8 1
      vertex -5.25 -9.09327 1
      vertex 5.25 -9.09327 1
    endloop
  endfacet
  facet normal 0 0 1
    outer loop
      vertex -5 1 1
      vertex -10.5 0 1
      vertex -5 -1 1
    endloop
  endfacet
  facet normal 0 0 1
    outer loop
      vertex -5 -1 1
      vertex -10.5 0 1
      vertex -5.25 -9.09327 1
    endloop
  endfacet
  facet normal -0 0 1
    outer loop
      vertex 2.59056 1 1
      vertex 5 -1 1
      vertex 5 1 1
    endloop
  endfacet
  facet normal 0 0 1
    outer loop
      vertex 2.59056 1 1
      vertex 2.59056 -1 1
      vertex 5 -1 1
    endloop
  endfacet
  facet normal 0 0 1
    outer loop
      vertex 2.59056 1 1
      vertex 1.6 0 1
      vertex 2.59056 -1 1
    endloop
  endfacet
  facet normal 0 0 1
    outer loop
      vertex 2.59056 1 1
      vertex 1.56926 0.312144 1
      vertex 1.6 0 1
    endloop
  endfacet
  facet normal 0 0 1
    outer loop
      vertex 2.59056 1 1
      vertex 1.47821 0.612293 1
      vertex 1.56926 0.312144 1
    endloop
  endfacet
  facet normal 0 0 1
    outer loop
      vertex 2.59056 1 1
      vertex 1.33035 0.888912 1
      vertex 1.47821 0.612293 1
    endloop
  endfacet
  facet normal 0 -0 1
    outer loop
      vertex 1.33035 0.888912 1
      vertex 2.59056 1 1
      vertex 1.23918 1 1
    endloop
  endfacet
  facet normal -0 0 1
    outer loop
      vertex 1.56926 -0.312144 1
      vertex 2.59056 -1 1
      vertex 1.6 0 1
    endloop
  endfacet
  facet normal -0 0 1
    outer loop
      vertex 1.47821 -0.612293 1
      vertex 2.59056 -1 1
      vertex 1.56926 -0.312144 1
    endloop
  endfacet
  facet normal -0 0 1
    outer loop
      vertex 1.33035 -0.888912 1
      vertex 2.59056 -1 1
      vertex 1.47821 -0.612293 1
    endloop
  endfacet
  facet normal 0 0 1
    outer loop
      vertex 2.59056 -1 1
      vertex 1.33035 -0.888912 1
      vertex 1.23918 -1 1
    endloop
  endfacet
  facet normal 0 0 1
    outer loop
      vertex -1.56926 0.312144 1
      vertex -2.59056 1 1
      vertex -1.6 0 1
    endloop
  endfacet
  facet normal 0 0 1
    outer loop
      vertex -1.47821 0.612293 1
      vertex -2.59056 1 1
      vertex -1.56926 0.312144 1
    endloop
  endfacet
  facet normal 0 0 1
    outer loop
      vertex -1.33035 0.888912 1
      vertex -2.59056 1 1
      vertex -1.47821 0.612293 1
    endloop
  endfacet
  facet normal -0 0 1
    outer loop
      vertex -2.59056 1 1
      vertex -1.33035 0.888912 1
      vertex -1.23918 1 1
    endloop
  endfacet
  facet normal 0 0 1
    outer loop
      vertex -2.59056 -1 1
      vertex -1.6 0 1
      vertex -2.59056 1 1
    endloop
  endfacet
  facet normal 0 0 1
    outer loop
      vertex -1.6 0 1
      vertex -2.59056 -1 1
      vertex -1.56926 -0.312144 1
    endloop
  endfacet
  facet normal 0 0 1
    outer loop
      vertex -1.56926 -0.312144 1
      vertex -2.59056 -1 1
      vertex -1.47821 -0.612293 1
    endloop
  endfacet
  facet normal 0 0 1
    outer loop
      vertex -1.33035 -0.888912 1
      vertex -2.59056 -1 1
      vertex -1.23918 -1 1
    endloop
  endfacet
  facet normal 0 0 1
    outer loop
      vertex -1.47821 -0.612293 1
      vertex -2.59056 -1 1
      vertex -1.33035 -0.888912 1
    endloop
  endfacet
  facet normal -0 0 1
    outer loop
      vertex -5 1 1
      vertex -2.59056 -1 1
      vertex -2.59056 1 1
    endloop
  endfacet
  facet normal 0 0 1
    outer loop
      vertex -2.59056 -1 1
      vertex -5 1 1
      vertex -5 -1 1
    endloop
  endfacet
  facet normal -0.95694 -0.290287 0
    outer loop
      vertex 1.56926 0.312144 0
      vertex 1.47821 0.612293 1
      vertex 1.47821 0.612293 0
    endloop
  endfacet
  facet normal -0.95694 -0.290287 0
    outer loop
      vertex 1.47821 0.612293 1
      vertex 1.56926 0.312144 0
      vertex 1.56926 0.312144 1
    endloop
  endfacet
  facet normal -0.290287 0.95694 0
    outer loop
      vertex 0.612293 -1.47821 0
      vertex 0.312144 -1.56926 2
      vertex 0.612293 -1.47821 2
    endloop
  endfacet
  facet normal -0.290287 0.95694 0
    outer loop
      vertex 0.312144 -1.56926 2
      vertex 0.612293 -1.47821 0
      vertex 0.312144 -1.56926 0
    endloop
  endfacet
  facet normal 0.881916 0.471407 0
    outer loop
      vertex -1.33035 -0.888912 1
      vertex -1.47821 -0.612293 0
      vertex -1.47821 -0.612293 1
    endloop
  endfacet
  facet normal 0.881916 0.471407 0
    outer loop
      vertex -1.47821 -0.612293 0
      vertex -1.33035 -0.888912 1
      vertex -1.33035 -0.888912 0
    endloop
  endfacet
  facet normal -0.995186 0.0980061 0
    outer loop
      vertex 1.56926 -0.312144 0
      vertex 1.6 0 1
      vertex 1.6 0 0
    endloop
  endfacet
  facet normal -0.995186 0.0980061 0
    outer loop
      vertex 1.6 0 1
      vertex 1.56926 -0.312144 0
      vertex 1.56926 -0.312144 1
    endloop
  endfacet
  facet normal 0.634393 -0.773011 0
    outer loop
      vertex -1.13137 1.13137 0
      vertex -0.888912 1.33035 2
      vertex -1.13137 1.13137 2
    endloop
  endfacet
  facet normal 0.634393 -0.773011 0
    outer loop
      vertex -0.888912 1.33035 2
      vertex -1.13137 1.13137 0
      vertex -0.888912 1.33035 0
    endloop
  endfacet
  facet normal -0.0980061 -0.995186 0
    outer loop
      vertex 0 1.6 0
      vertex 0.312144 1.56926 2
      vertex 0 1.6 2
    endloop
  endfacet
  facet normal -0.0980061 -0.995186 -0
    outer loop
      vertex 0.312144 1.56926 2
      vertex 0 1.6 0
      vertex 0.312144 1.56926 0
    endloop
  endfacet
  facet normal -0.0980061 0.995186 0
    outer loop
      vertex 0.312144 -1.56926 0
      vertex 0 -1.6 2
      vertex 0.312144 -1.56926 2
    endloop
  endfacet
  facet normal -0.0980061 0.995186 0
    outer loop
      vertex 0 -1.6 2
      vertex 0.312144 -1.56926 0
      vertex 0 -1.6 0
    endloop
  endfacet
  facet normal -0.471407 0.881916 0
    outer loop
      vertex 0.888912 -1.33035 0
      vertex 0.612293 -1.47821 2
      vertex 0.888912 -1.33035 2
    endloop
  endfacet
  facet normal -0.471407 0.881916 0
    outer loop
      vertex 0.612293 -1.47821 2
      vertex 0.888912 -1.33035 0
      vertex 0.612293 -1.47821 0
    endloop
  endfacet
  facet normal 0.995186 -0.0980061 0
    outer loop
      vertex -1.6 0 1
      vertex -1.56926 0.312144 0
      vertex -1.56926 0.312144 1
    endloop
  endfacet
  facet normal 0.995186 -0.0980061 0
    outer loop
      vertex -1.56926 0.312144 0
      vertex -1.6 0 1
      vertex -1.6 0 0
    endloop
  endfacet
  facet normal -0.773018 -0.634384 0
    outer loop
      vertex 1.13137 1.13137 0
      vertex 1.23918 1 1
      vertex 1.13137 1.13137 2
    endloop
  endfacet
  facet normal -0.773011 -0.634393 -1.93085e-06
    outer loop
      vertex 1.33035 0.888912 0
      vertex 1.23918 1 1
      vertex 1.13137 1.13137 0
    endloop
  endfacet
  facet normal -0.773002 -0.634403 0
    outer loop
      vertex 1.23918 1 1
      vertex 1.33035 0.888912 0
      vertex 1.33035 0.888912 1
    endloop
  endfacet
  facet normal -0.773018 -0.634384 0
    outer loop
      vertex 1.13137 1.13137 2
      vertex 1.23918 1 1
      vertex 1.23918 1 2
    endloop
  endfacet
  facet normal -0.995186 -0.0980061 0
    outer loop
      vertex 1.6 0 0
      vertex 1.56926 0.312144 1
      vertex 1.56926 0.312144 0
    endloop
  endfacet
  facet normal -0.995186 -0.0980061 0
    outer loop
      vertex 1.56926 0.312144 1
      vertex 1.6 0 0
      vertex 1.6 0 1
    endloop
  endfacet
  facet normal -0.773002 0.634403 0
    outer loop
      vertex 1.33035 -0.888912 0
      vertex 1.23918 -1 1
      vertex 1.33035 -0.888912 1
    endloop
  endfacet
  facet normal -0.773011 0.634393 -1.93085e-06
    outer loop
      vertex 1.13137 -1.13137 0
      vertex 1.23918 -1 1
      vertex 1.33035 -0.888912 0
    endloop
  endfacet
  facet normal -0.773018 0.634384 0
    outer loop
      vertex 1.13137 -1.13137 2
      vertex 1.23918 -1 1
      vertex 1.13137 -1.13137 0
    endloop
  endfacet
  facet normal -0.773018 0.634384 0
    outer loop
      vertex 1.23918 -1 1
      vertex 1.13137 -1.13137 2
      vertex 1.23918 -1 2
    endloop
  endfacet
  facet normal 0.0980061 0.995186 -0
    outer loop
      vertex 0 -1.6 0
      vertex -0.312144 -1.56926 2
      vertex 0 -1.6 2
    endloop
  endfacet
  facet normal 0.0980061 0.995186 0
    outer loop
      vertex -0.312144 -1.56926 2
      vertex 0 -1.6 0
      vertex -0.312144 -1.56926 0
    endloop
  endfacet
  facet normal -0.881916 -0.471407 0
    outer loop
      vertex 1.47821 0.612293 0
      vertex 1.33035 0.888912 1
      vertex 1.33035 0.888912 0
    endloop
  endfacet
  facet normal -0.881916 -0.471407 0
    outer loop
      vertex 1.33035 0.888912 1
      vertex 1.47821 0.612293 0
      vertex 1.47821 0.612293 1
    endloop
  endfacet
  facet normal 0.290287 -0.95694 0
    outer loop
      vertex -0.612293 1.47821 0
      vertex -0.312144 1.56926 2
      vertex -0.612293 1.47821 2
    endloop
  endfacet
  facet normal 0.290287 -0.95694 0
    outer loop
      vertex -0.312144 1.56926 2
      vertex -0.612293 1.47821 0
      vertex -0.312144 1.56926 0
    endloop
  endfacet
  facet normal 0.471407 -0.881916 0
    outer loop
      vertex -0.888912 1.33035 0
      vertex -0.612293 1.47821 2
      vertex -0.888912 1.33035 2
    endloop
  endfacet
  facet normal 0.471407 -0.881916 0
    outer loop
      vertex -0.612293 1.47821 2
      vertex -0.888912 1.33035 0
      vertex -0.612293 1.47821 0
    endloop
  endfacet
  facet normal -0.881916 0.471407 0
    outer loop
      vertex 1.33035 -0.888912 0
      vertex 1.47821 -0.612293 1
      vertex 1.47821 -0.612293 0
    endloop
  endfacet
  facet normal -0.881916 0.471407 0
    outer loop
      vertex 1.47821 -0.612293 1
      vertex 1.33035 -0.888912 0
      vertex 1.33035 -0.888912 1
    endloop
  endfacet
  facet normal 0.773018 0.634384 0
    outer loop
      vertex -1.23918 -1 2
      vertex -1.13137 -1.13137 2
      vertex -1.23918 -1 1
    endloop
  endfacet
  facet normal 0.773002 0.634403 0
    outer loop
      vertex -1.23918 -1 1
      vertex -1.33035 -0.888912 0
      vertex -1.33035 -0.888912 1
    endloop
  endfacet
  facet normal 0.773018 0.634384 -0
    outer loop
      vertex -1.13137 -1.13137 0
      vertex -1.23918 -1 1
      vertex -1.13137 -1.13137 2
    endloop
  endfacet
  facet normal 0.773011 0.634393 -1.93085e-06
    outer loop
      vertex -1.23918 -1 1
      vertex -1.13137 -1.13137 0
      vertex -1.33035 -0.888912 0
    endloop
  endfacet
  facet normal 0.995186 0.0980061 0
    outer loop
      vertex -1.56926 -0.312144 1
      vertex -1.6 0 0
      vertex -1.6 0 1
    endloop
  endfacet
  facet normal 0.995186 0.0980061 0
    outer loop
      vertex -1.6 0 0
      vertex -1.56926 -0.312144 1
      vertex -1.56926 -0.312144 0
    endloop
  endfacet
  facet normal -0.95694 0.290287 0
    outer loop
      vertex 1.47821 -0.612293 0
      vertex 1.56926 -0.312144 1
      vertex 1.56926 -0.312144 0
    endloop
  endfacet
  facet normal -0.95694 0.290287 0
    outer loop
      vertex 1.56926 -0.312144 1
      vertex 1.47821 -0.612293 0
      vertex 1.47821 -0.612293 1
    endloop
  endfacet
  facet normal -0.634393 -0.773011 0
    outer loop
      vertex 0.888912 1.33035 0
      vertex 1.13137 1.13137 2
      vertex 0.888912 1.33035 2
    endloop
  endfacet
  facet normal -0.634393 -0.773011 -0
    outer loop
      vertex 1.13137 1.13137 2
      vertex 0.888912 1.33035 0
      vertex 1.13137 1.13137 0
    endloop
  endfacet
  facet normal 0.290287 0.95694 -0
    outer loop
      vertex -0.312144 -1.56926 0
      vertex -0.612293 -1.47821 2
      vertex -0.312144 -1.56926 2
    endloop
  endfacet
  facet normal 0.290287 0.95694 0
    outer loop
      vertex -0.612293 -1.47821 2
      vertex -0.312144 -1.56926 0
      vertex -0.612293 -1.47821 0
    endloop
  endfacet
  facet normal 0.0980061 -0.995186 0
    outer loop
      vertex -0.312144 1.56926 0
      vertex 0 1.6 2
      vertex -0.312144 1.56926 2
    endloop
  endfacet
  facet normal 0.0980061 -0.995186 0
    outer loop
      vertex 0 1.6 2
      vertex -0.312144 1.56926 0
      vertex 0 1.6 0
    endloop
  endfacet
  facet normal -0.471407 -0.881916 0
    outer loop
      vertex 0.612293 1.47821 0
      vertex 0.888912 1.33035 2
      vertex 0.612293 1.47821 2
    endloop
  endfacet
  facet normal -0.471407 -0.881916 -0
    outer loop
      vertex 0.888912 1.33035 2
      vertex 0.612293 1.47821 0
      vertex 0.888912 1.33035 0
    endloop
  endfacet
  facet normal 0.881916 -0.471407 0
    outer loop
      vertex -1.47821 0.612293 1
      vertex -1.33035 0.888912 0
      vertex -1.33035 0.888912 1
    endloop
  endfacet
  facet normal 0.881916 -0.471407 0
    outer loop
      vertex -1.33035 0.888912 0
      vertex -1.47821 0.612293 1
      vertex -1.47821 0.612293 0
    endloop
  endfacet
  facet normal 0.95694 0.290287 0
    outer loop
      vertex -1.47821 -0.612293 1
      vertex -1.56926 -0.312144 0
      vertex -1.56926 -0.312144 1
    endloop
  endfacet
  facet normal 0.95694 0.290287 0
    outer loop
      vertex -1.56926 -0.312144 0
      vertex -1.47821 -0.612293 1
      vertex -1.47821 -0.612293 0
    endloop
  endfacet
  facet normal 0.634393 0.773011 -0
    outer loop
      vertex -0.888912 -1.33035 0
      vertex -1.13137 -1.13137 2
      vertex -0.888912 -1.33035 2
    endloop
  endfacet
  facet normal 0.634393 0.773011 0
    outer loop
      vertex -1.13137 -1.13137 2
      vertex -0.888912 -1.33035 0
      vertex -1.13137 -1.13137 0
    endloop
  endfacet
  facet normal 0.471407 0.881916 -0
    outer loop
      vertex -0.612293 -1.47821 0
      vertex -0.888912 -1.33035 2
      vertex -0.612293 -1.47821 2
    endloop
  endfacet
  facet normal 0.471407 0.881916 0
    outer loop
      vertex -0.888912 -1.33035 2
      vertex -0.612293 -1.47821 0
      vertex -0.888912 -1.33035 0
    endloop
  endfacet
  facet normal -0.634393 0.773011 0
    outer loop
      vertex 1.13137 -1.13137 0
      vertex 0.888912 -1.33035 2
      vertex 1.13137 -1.13137 2
    endloop
  endfacet
  facet normal -0.634393 0.773011 0
    outer loop
      vertex 0.888912 -1.33035 2
      vertex 1.13137 -1.13137 0
      vertex 0.888912 -1.33035 0
    endloop
  endfacet
  facet normal 0.773018 -0.634384 0
    outer loop
      vertex -1.23918 1 1
      vertex -1.13137 1.13137 2
      vertex -1.23918 1 2
    endloop
  endfacet
  facet normal 0.773018 -0.634384 0
    outer loop
      vertex -1.13137 1.13137 2
      vertex -1.23918 1 1
      vertex -1.13137 1.13137 0
    endloop
  endfacet
  facet normal 0.773002 -0.634403 0
    outer loop
      vertex -1.33035 0.888912 0
      vertex -1.23918 1 1
      vertex -1.33035 0.888912 1
    endloop
  endfacet
  facet normal 0.773011 -0.634393 -1.93085e-06
    outer loop
      vertex -1.23918 1 1
      vertex -1.33035 0.888912 0
      vertex -1.13137 1.13137 0
    endloop
  endfacet
  facet normal -0.290287 -0.95694 0
    outer loop
      vertex 0.312144 1.56926 0
      vertex 0.612293 1.47821 2
      vertex 0.312144 1.56926 2
    endloop
  endfacet
  facet normal -0.290287 -0.95694 -0
    outer loop
      vertex 0.612293 1.47821 2
      vertex 0.312144 1.56926 0
      vertex 0.612293 1.47821 0
    endloop
  endfacet
  facet normal 0.95694 -0.290287 0
    outer loop
      vertex -1.56926 0.312144 1
      vertex -1.47821 0.612293 0
      vertex -1.47821 0.612293 1
    endloop
  endfacet
  facet normal 0.95694 -0.290287 0
    outer loop
      vertex -1.47821 0.612293 0
      vertex -1.56926 0.312144 1
      vertex -1.56926 0.312144 0
    endloop
  endfacet
  facet normal 0.467801 0.87517 -0.123447
    outer loop
      vertex -0.420951 -1.01627 6
      vertex -0.612293 -1.47821 2
      vertex -0.888912 -1.33035 2
    endloop
  endfacet
  facet normal -0.0972565 0.987574 -0.123447
    outer loop
      vertex 0 -1.1 6
      vertex 0.312144 -1.56926 2
      vertex 0 -1.6 2
    endloop
  endfacet
  facet normal -0.767063 0.629583 -0.123447
    outer loop
      vertex 1.07664 -1 3.01007
      vertex 1.13137 -1.13137 2
      vertex 1 -1 3.48629
    endloop
  endfacet
  facet normal -0.767106 0.629532 -0.123442
    outer loop
      vertex 1.23918 -1 2
      vertex 1.13137 -1.13137 2
      vertex 1.07664 -1 3.01007
    endloop
  endfacet
  facet normal 0.467862 -0.875135 -0.123465
    outer loop
      vertex -0.668179 1 5.17847
      vertex -0.420951 1.01627 6
      vertex -0.451384 1 6
    endloop
  endfacet
  facet normal 0.467804 -0.875169 -0.123447
    outer loop
      vertex -0.420951 1.01627 6
      vertex -0.668179 1 5.17847
      vertex -0.888912 1.33035 2
    endloop
  endfacet
  facet normal 0.767063 -0.629583 -0.123447
    outer loop
      vertex -1 1 3.48629
      vertex -1.07664 1 3.01007
      vertex -1.13137 1.13137 2
    endloop
  endfacet
  facet normal -0.767063 -0.629583 -0.123447
    outer loop
      vertex 1.13137 1.13137 2
      vertex 1.07664 1 3.01007
      vertex 1 1 3.48629
    endloop
  endfacet
  facet normal 0.0972849 -0.987571 -0.123449
    outer loop
      vertex 0 1.1 6
      vertex -0.214599 1.07886 6
      vertex -0.312144 1.56926 2
    endloop
  endfacet
  facet normal -0.767106 -0.629532 -0.123442
    outer loop
      vertex 1.13137 1.13137 2
      vertex 1.23918 1 2
      vertex 1.07664 1 3.01007
    endloop
  endfacet
  facet normal 0.767063 0.629583 -0.123447
    outer loop
      vertex -1.07664 -1 3.01007
      vertex -1 -1 3.48629
      vertex -1.13137 -1.13137 2
    endloop
  endfacet
  facet normal 0.629541 -0.767098 -0.123447
    outer loop
      vertex -0.888912 1.33035 2
      vertex -0.816062 1 4.42431
      vertex -1.13137 1.13137 2
    endloop
  endfacet
  facet normal 0.629541 -0.767098 -0.123447
    outer loop
      vertex -0.816062 1 4.42431
      vertex -0.888912 1.33035 2
      vertex -0.668179 1 5.17847
    endloop
  endfacet
  facet normal 0.629531 -0.767106 -0.123446
    outer loop
      vertex -0.816062 1 4.42431
      vertex -1 1 3.48629
      vertex -1.13137 1.13137 2
    endloop
  endfacet
  facet normal 0.288038 -0.949629 -0.123446
    outer loop
      vertex -0.214599 1.07886 6
      vertex -0.420951 1.01627 6
      vertex -0.612293 1.47821 2
    endloop
  endfacet
  facet normal -0.0972849 -0.987571 -0.123449
    outer loop
      vertex 0.312144 1.56926 2
      vertex 0.214599 1.07886 6
      vertex 0 1.1 6
    endloop
  endfacet
  facet normal 0.629531 0.767106 -0.123446
    outer loop
      vertex -1 -1 3.48629
      vertex -0.816062 -1 4.42431
      vertex -1.13137 -1.13137 2
    endloop
  endfacet
  facet normal -0.288067 0.94962 -0.123448
    outer loop
      vertex 0.612293 -1.47821 2
      vertex 0.312144 -1.56926 2
      vertex 0.214599 -1.07886 6
    endloop
  endfacet
  facet normal 0.288067 0.94962 -0.123448
    outer loop
      vertex -0.214599 -1.07886 6
      vertex -0.312144 -1.56926 2
      vertex -0.612293 -1.47821 2
    endloop
  endfacet
  facet normal -0.629541 0.767098 -0.123447
    outer loop
      vertex 0.888912 -1.33035 2
      vertex 0.816062 -1 4.42431
      vertex 1.13137 -1.13137 2
    endloop
  endfacet
  facet normal -0.629541 0.767098 -0.123447
    outer loop
      vertex 0.816062 -1 4.42431
      vertex 0.888912 -1.33035 2
      vertex 0.668179 -1 5.17847
    endloop
  endfacet
  facet normal -0.467801 -0.87517 -0.123447
    outer loop
      vertex 0.612293 1.47821 2
      vertex 0.888912 1.33035 2
      vertex 0.420951 1.01627 6
    endloop
  endfacet
  facet normal -0.629531 0.767106 -0.123446
    outer loop
      vertex 1 -1 3.48629
      vertex 1.13137 -1.13137 2
      vertex 0.816062 -1 4.42431
    endloop
  endfacet
  facet normal -0.467862 0.875135 -0.123465
    outer loop
      vertex 0.668179 -1 5.17847
      vertex 0.420951 -1.01627 6
      vertex 0.451384 -1 6
    endloop
  endfacet
  facet normal -0.467804 0.875169 -0.123447
    outer loop
      vertex 0.420951 -1.01627 6
      vertex 0.668179 -1 5.17847
      vertex 0.888912 -1.33035 2
    endloop
  endfacet
  facet normal -0.467862 -0.875135 -0.123465
    outer loop
      vertex 0.420951 1.01627 6
      vertex 0.668179 1 5.17847
      vertex 0.451384 1 6
    endloop
  endfacet
  facet normal -0.467804 -0.875169 -0.123447
    outer loop
      vertex 0.668179 1 5.17847
      vertex 0.420951 1.01627 6
      vertex 0.888912 1.33035 2
    endloop
  endfacet
  facet normal -0.629541 -0.767098 -0.123447
    outer loop
      vertex 0.888912 1.33035 2
      vertex 0.816062 1 4.42431
      vertex 0.668179 1 5.17847
    endloop
  endfacet
  facet normal -0.629541 -0.767098 -0.123447
    outer loop
      vertex 0.816062 1 4.42431
      vertex 0.888912 1.33035 2
      vertex 1.13137 1.13137 2
    endloop
  endfacet
  facet normal 0.767106 0.629532 -0.123442
    outer loop
      vertex -1.07664 -1 3.01007
      vertex -1.13137 -1.13137 2
      vertex -1.23918 -1 2
    endloop
  endfacet
  facet normal 0.288067 -0.94962 -0.123448
    outer loop
      vertex -0.312144 1.56926 2
      vertex -0.214599 1.07886 6
      vertex -0.612293 1.47821 2
    endloop
  endfacet
  facet normal 0.767106 -0.629532 -0.123442
    outer loop
      vertex -1.13137 1.13137 2
      vertex -1.07664 1 3.01007
      vertex -1.23918 1 2
    endloop
  endfacet
  facet normal -0.0972565 -0.987574 -0.123447
    outer loop
      vertex 0 1.6 2
      vertex 0.312144 1.56926 2
      vertex 0 1.1 6
    endloop
  endfacet
  facet normal 0.467862 0.875135 -0.123465
    outer loop
      vertex -0.420951 -1.01627 6
      vertex -0.668179 -1 5.17847
      vertex -0.451384 -1 6
    endloop
  endfacet
  facet normal 0.467804 0.875169 -0.123447
    outer loop
      vertex -0.668179 -1 5.17847
      vertex -0.420951 -1.01627 6
      vertex -0.888912 -1.33035 2
    endloop
  endfacet
  facet normal 0.0972565 -0.987574 -0.123447
    outer loop
      vertex 0 1.6 2
      vertex 0 1.1 6
      vertex -0.312144 1.56926 2
    endloop
  endfacet
  facet normal 0.288038 0.949629 -0.123446
    outer loop
      vertex -0.420951 -1.01627 6
      vertex -0.214599 -1.07886 6
      vertex -0.612293 -1.47821 2
    endloop
  endfacet
  facet normal 0.467801 -0.87517 -0.123447
    outer loop
      vertex -0.612293 1.47821 2
      vertex -0.420951 1.01627 6
      vertex -0.888912 1.33035 2
    endloop
  endfacet
  facet normal -0.629531 -0.767106 -0.123446
    outer loop
      vertex 1.13137 1.13137 2
      vertex 1 1 3.48629
      vertex 0.816062 1 4.42431
    endloop
  endfacet
  facet normal -0.288038 -0.949629 -0.123446
    outer loop
      vertex 0.612293 1.47821 2
      vertex 0.420951 1.01627 6
      vertex 0.214599 1.07886 6
    endloop
  endfacet
  facet normal -0.467801 0.87517 -0.123447
    outer loop
      vertex 0.888912 -1.33035 2
      vertex 0.612293 -1.47821 2
      vertex 0.420951 -1.01627 6
    endloop
  endfacet
  facet normal 0.629541 0.767098 -0.123447
    outer loop
      vertex -0.888912 -1.33035 2
      vertex -0.816062 -1 4.42431
      vertex -0.668179 -1 5.17847
    endloop
  endfacet
  facet normal 0.629541 0.767098 -0.123447
    outer loop
      vertex -0.816062 -1 4.42431
      vertex -0.888912 -1.33035 2
      vertex -1.13137 -1.13137 2
    endloop
  endfacet
  facet normal -0.288038 0.949629 -0.123446
    outer loop
      vertex 0.420951 -1.01627 6
      vertex 0.612293 -1.47821 2
      vertex 0.214599 -1.07886 6
    endloop
  endfacet
  facet normal -0.288067 -0.94962 -0.123448
    outer loop
      vertex 0.312144 1.56926 2
      vertex 0.612293 1.47821 2
      vertex 0.214599 1.07886 6
    endloop
  endfacet
  facet normal 0.0972849 0.987571 -0.123449
    outer loop
      vertex -0.214599 -1.07886 6
      vertex 0 -1.1 6
      vertex -0.312144 -1.56926 2
    endloop
  endfacet
  facet normal 0.0972565 0.987574 -0.123447
    outer loop
      vertex 0 -1.1 6
      vertex 0 -1.6 2
      vertex -0.312144 -1.56926 2
    endloop
  endfacet
  facet normal -0.0972849 0.987571 -0.123449
    outer loop
      vertex 0.214599 -1.07886 6
      vertex 0.312144 -1.56926 2
      vertex 0 -1.1 6
    endloop
  endfacet
  facet normal 0 0 -1
    outer loop
      vertex 0.214599 -1.07886 6
      vertex 0.451384 -1 6
      vertex 0.420951 -1.01627 6
    endloop
  endfacet
  facet normal 0 0 -1
    outer loop
      vertex 0 -1.1 6
      vertex 0.451384 -1 6
      vertex 0.214599 -1.07886 6
    endloop
  endfacet
  facet normal 0 0 -1
    outer loop
      vertex -0.214599 -1.07886 6
      vertex 0.451384 -1 6
      vertex 0 -1.1 6
    endloop
  endfacet
  facet normal 0 0 -1
    outer loop
      vertex -0.451384 -1 6
      vertex -0.214599 -1.07886 6
      vertex -0.420951 -1.01627 6
    endloop
  endfacet
  facet normal 0 0 -1
    outer loop
      vertex -0.214599 -1.07886 6
      vertex -0.451384 -1 6
      vertex 0.451384 -1 6
    endloop
  endfacet
  facet normal 0 0 -1
    outer loop
      vertex 0.451384 1 6
      vertex 0.214599 1.07886 6
      vertex 0.420951 1.01627 6
    endloop
  endfacet
  facet normal 0 0 -1
    outer loop
      vertex 0.451384 1 6
      vertex 0 1.1 6
      vertex 0.214599 1.07886 6
    endloop
  endfacet
  facet normal 0 0 -1
    outer loop
      vertex 0.451384 1 6
      vertex -0.214599 1.07886 6
      vertex 0 1.1 6
    endloop
  endfacet
  facet normal 0 0 -1
    outer loop
      vertex -0.451384 1 6
      vertex -0.214599 1.07886 6
      vertex 0.451384 1 6
    endloop
  endfacet
  facet normal 0 0 -1
    outer loop
      vertex -0.214599 1.07886 6
      vertex -0.451384 1 6
      vertex -0.420951 1.01627 6
    endloop
  endfacet
  facet normal 0 -1 0
    outer loop
      vertex -1.59784 1 19.8148
      vertex 1.48211 1 20
      vertex -1.48211 1 20
    endloop
  endfacet
  facet normal 0 -1 0
    outer loop
      vertex -1.59784 1 19.8148
      vertex 1.59784 1 19.8148
      vertex 1.48211 1 20
    endloop
  endfacet
  facet normal 0 -1 0
    outer loop
      vertex -1.73205 1 19.6
      vertex 1.59784 1 19.8148
      vertex -1.59784 1 19.8148
    endloop
  endfacet
  facet normal 0 -1 0
    outer loop
      vertex -1.73205 1 19.6
      vertex 1.73205 1 19.6
      vertex 1.59784 1 19.8148
    endloop
  endfacet
  facet normal 0 -1 0
    outer loop
      vertex -2.59056 1 18
      vertex 1.73205 1 19.6
      vertex -1.73205 1 19.6
    endloop
  endfacet
  facet normal 0 -1 0
    outer loop
      vertex -2.59056 1 18
      vertex 2.59056 1 18
      vertex 1.73205 1 19.6
    endloop
  endfacet
  facet normal 0 -1 0
    outer loop
      vertex -2.59056 1 18
      vertex -0.451384 1 6
      vertex 2.59056 1 18
    endloop
  endfacet
  facet normal 0 -1 0
    outer loop
      vertex -2.59056 1 18
      vertex -0.668179 1 5.17847
      vertex -0.451384 1 6
    endloop
  endfacet
  facet normal 0 -1 0
    outer loop
      vertex -2.59056 1 1
      vertex -0.668179 1 5.17847
      vertex -2.59056 1 18
    endloop
  endfacet
  facet normal 0 -1 0
    outer loop
      vertex -0.668179 1 5.17847
      vertex -2.59056 1 1
      vertex -0.816062 1 4.42431
    endloop
  endfacet
  facet normal 0 -1 0
    outer loop
      vertex -0.816062 1 4.42431
      vertex -2.59056 1 1
      vertex -1 1 3.48629
    endloop
  endfacet
  facet normal 0 -1 0
    outer loop
      vertex -1 1 3.48629
      vertex -2.59056 1 1
      vertex -1.07664 1 3.01007
    endloop
  endfacet
  facet normal 0 -1 0
    outer loop
      vertex -1.07664 1 3.01007
      vertex -2.59056 1 1
      vertex -1.23918 1 2
    endloop
  endfacet
  facet normal 0 -1 -0
    outer loop
      vertex -1.23918 1 2
      vertex -2.59056 1 1
      vertex -1.23918 1 1
    endloop
  endfacet
  facet normal 0 -1 0
    outer loop
      vertex 0.451384 1 6
      vertex 2.59056 1 18
      vertex -0.451384 1 6
    endloop
  endfacet
  facet normal 0 -1 0
    outer loop
      vertex 0.668179 1 5.17847
      vertex 2.59056 1 18
      vertex 0.451384 1 6
    endloop
  endfacet
  facet normal 0 -1 0
    outer loop
      vertex 2.59056 1 1
      vertex 0.668179 1 5.17847
      vertex 0.816062 1 4.42431
    endloop
  endfacet
  facet normal 0 -1 0
    outer loop
      vertex 2.59056 1 1
      vertex 0.816062 1 4.42431
      vertex 1 1 3.48629
    endloop
  endfacet
  facet normal 0 -1 0
    outer loop
      vertex 2.59056 1 1
      vertex 1 1 3.48629
      vertex 1.07664 1 3.01007
    endloop
  endfacet
  facet normal 0 -1 0
    outer loop
      vertex 2.59056 1 1
      vertex 1.07664 1 3.01007
      vertex 1.23918 1 2
    endloop
  endfacet
  facet normal 0 -1 0
    outer loop
      vertex 2.59056 1 1
      vertex 1.23918 1 2
      vertex 1.23918 1 1
    endloop
  endfacet
  facet normal 0 -1 0
    outer loop
      vertex 0.668179 1 5.17847
      vertex 2.59056 1 1
      vertex 2.59056 1 18
    endloop
  endfacet
  facet normal 0 1 0
    outer loop
      vertex 1.59784 -1 19.8148
      vertex -1.48211 -1 20
      vertex 1.48211 -1 20
    endloop
  endfacet
  facet normal 0 1 0
    outer loop
      vertex 1.59784 -1 19.8148
      vertex -1.59784 -1 19.8148
      vertex -1.48211 -1 20
    endloop
  endfacet
  facet normal 0 1 0
    outer loop
      vertex 1.73205 -1 19.6
      vertex -1.59784 -1 19.8148
      vertex 1.59784 -1 19.8148
    endloop
  endfacet
  facet normal 0 1 0
    outer loop
      vertex 1.73205 -1 19.6
      vertex -1.73205 -1 19.6
      vertex -1.59784 -1 19.8148
    endloop
  endfacet
  facet normal 0 1 0
    outer loop
      vertex 2.59056 -1 18
      vertex -1.73205 -1 19.6
      vertex 1.73205 -1 19.6
    endloop
  endfacet
  facet normal 0 1 0
    outer loop
      vertex 2.59056 -1 18
      vertex -2.59056 -1 18
      vertex -1.73205 -1 19.6
    endloop
  endfacet
  facet normal 0 1 0
    outer loop
      vertex 2.59056 -1 18
      vertex 0.451384 -1 6
      vertex -2.59056 -1 18
    endloop
  endfacet
  facet normal 0 1 0
    outer loop
      vertex 2.59056 -1 18
      vertex 0.668179 -1 5.17847
      vertex 0.451384 -1 6
    endloop
  endfacet
  facet normal 0 1 -0
    outer loop
      vertex 2.59056 -1 1
      vertex 0.668179 -1 5.17847
      vertex 2.59056 -1 18
    endloop
  endfacet
  facet normal 0 1 0
    outer loop
      vertex 0.668179 -1 5.17847
      vertex 2.59056 -1 1
      vertex 0.816062 -1 4.42431
    endloop
  endfacet
  facet normal 0 1 0
    outer loop
      vertex 0.816062 -1 4.42431
      vertex 2.59056 -1 1
      vertex 1 -1 3.48629
    endloop
  endfacet
  facet normal 0 1 0
    outer loop
      vertex 1 -1 3.48629
      vertex 2.59056 -1 1
      vertex 1.07664 -1 3.01007
    endloop
  endfacet
  facet normal 0 1 0
    outer loop
      vertex 1.07664 -1 3.01007
      vertex 2.59056 -1 1
      vertex 1.23918 -1 2
    endloop
  endfacet
  facet normal 0 1 0
    outer loop
      vertex 1.23918 -1 2
      vertex 2.59056 -1 1
      vertex 1.23918 -1 1
    endloop
  endfacet
  facet normal 0 1 -0
    outer loop
      vertex -0.451384 -1 6
      vertex -2.59056 -1 18
      vertex 0.451384 -1 6
    endloop
  endfacet
  facet normal 0 1 -0
    outer loop
      vertex -0.668179 -1 5.17847
      vertex -2.59056 -1 18
      vertex -0.451384 -1 6
    endloop
  endfacet
  facet normal 0 1 0
    outer loop
      vertex -2.59056 -1 1
      vertex -0.668179 -1 5.17847
      vertex -0.816062 -1 4.42431
    endloop
  endfacet
  facet normal 0 1 0
    outer loop
      vertex -2.59056 -1 1
      vertex -0.816062 -1 4.42431
      vertex -1 -1 3.48629
    endloop
  endfacet
  facet normal 0 1 0
    outer loop
      vertex -2.59056 -1 1
      vertex -1 -1 3.48629
      vertex -1.07664 -1 3.01007
    endloop
  endfacet
  facet normal 0 1 0
    outer loop
      vertex -2.59056 -1 1
      vertex -1.07664 -1 3.01007
      vertex -1.23918 -1 2
    endloop
  endfacet
  facet normal 0 1 0
    outer loop
      vertex -2.59056 -1 1
      vertex -1.23918 -1 2
      vertex -1.23918 -1 1
    endloop
  endfacet
  facet normal 0 1 0
    outer loop
      vertex -0.668179 -1 5.17847
      vertex -2.59056 -1 1
      vertex -2.59056 -1 18
    endloop
  endfacet
endsolid OpenSCAD_Model
