solid OpenSCAD_Model
  facet normal 0.980785 0.19509 0
    outer loop
      vertex 9.91445 1.30526 1.2
      vertex 9.65926 2.58819 0
      vertex 9.65926 2.58819 1.2
    endloop
  endfacet
  facet normal 0.980785 0.19509 0
    outer loop
      vertex 9.65926 2.58819 0
      vertex 9.91445 1.30526 1.2
      vertex 9.91445 1.30526 0
    endloop
  endfacet
  facet normal 0.997859 0.0654022 0
    outer loop
      vertex 10 0 1.2
      vertex 9.91445 1.30526 0
      vertex 9.91445 1.30526 1.2
    endloop
  endfacet
  facet normal 0.997859 0.0654022 0
    outer loop
      vertex 9.91445 1.30526 0
      vertex 10 0 1.2
      vertex 10 0 0
    endloop
  endfacet
  facet normal 0.946931 0.321438 0
    outer loop
      vertex 9.65926 2.58819 1.2
      vertex 9.2388 3.82683 0
      vertex 9.2388 3.82683 1.2
    endloop
  endfacet
  facet normal 0.946931 0.321438 0
    outer loop
      vertex 9.2388 3.82683 0
      vertex 9.65926 2.58819 1.2
      vertex 9.65926 2.58819 0
    endloop
  endfacet
  facet normal 0.321438 0.946931 -0
    outer loop
      vertex 3.82683 9.2388 0
      vertex 2.58819 9.65926 1.2
      vertex 3.82683 9.2388 1.2
    endloop
  endfacet
  facet normal 0.321438 0.946931 0
    outer loop
      vertex 2.58819 9.65926 1.2
      vertex 3.82683 9.2388 0
      vertex 2.58819 9.65926 0
    endloop
  endfacet
  facet normal 0.19509 0.980785 -0
    outer loop
      vertex 2.58819 9.65926 0
      vertex 1.30526 9.91445 1.2
      vertex 2.58819 9.65926 1.2
    endloop
  endfacet
  facet normal 0.19509 0.980785 0
    outer loop
      vertex 1.30526 9.91445 1.2
      vertex 2.58819 9.65926 0
      vertex 1.30526 9.91445 0
    endloop
  endfacet
  facet normal 0.896871 0.442293 0
    outer loop
      vertex 9.2388 3.82683 1.2
      vertex 8.66025 5 0
      vertex 8.66025 5 1.2
    endloop
  endfacet
  facet normal 0.896871 0.442293 0
    outer loop
      vertex 8.66025 5 0
      vertex 9.2388 3.82683 1.2
      vertex 9.2388 3.82683 0
    endloop
  endfacet
  facet normal 0.19509 -0.980785 0
    outer loop
      vertex 1.30526 -9.91445 0
      vertex 2.58819 -9.65926 1.2
      vertex 1.30526 -9.91445 1.2
    endloop
  endfacet
  facet normal 0.19509 -0.980785 0
    outer loop
      vertex 2.58819 -9.65926 1.2
      vertex 1.30526 -9.91445 0
      vertex 2.58819 -9.65926 0
    endloop
  endfacet
  facet normal 0.0654022 -0.997859 0
    outer loop
      vertex 0 -10 0
      vertex 1.30526 -9.91445 1.2
      vertex 0 -10 1.2
    endloop
  endfacet
  facet normal 0.0654022 -0.997859 0
    outer loop
      vertex 1.30526 -9.91445 1.2
      vertex 0 -10 0
      vertex 1.30526 -9.91445 0
    endloop
  endfacet
  facet normal -0.555571 0.831469 0
    outer loop
      vertex -5 8.66025 0
      vertex -6.08761 7.93353 1.2
      vertex -5 8.66025 1.2
    endloop
  endfacet
  facet normal -0.555571 0.831469 0
    outer loop
      vertex -6.08761 7.93353 1.2
      vertex -5 8.66025 0
      vertex -6.08761 7.93353 0
    endloop
  endfacet
  facet normal 0.659341 0.751844 -0
    outer loop
      vertex 7.07107 7.07107 0
      vertex 6.08761 7.93353 1.2
      vertex 7.07107 7.07107 1.2
    endloop
  endfacet
  facet normal 0.659341 0.751844 0
    outer loop
      vertex 6.08761 7.93353 1.2
      vertex 7.07107 7.07107 0
      vertex 6.08761 7.93353 0
    endloop
  endfacet
  facet normal 0.896871 -0.442293 0
    outer loop
      vertex 8.66025 -5 1.2
      vertex 9.2388 -3.82683 0
      vertex 9.2388 -3.82683 1.2
    endloop
  endfacet
  facet normal 0.896871 -0.442293 0
    outer loop
      vertex 9.2388 -3.82683 0
      vertex 8.66025 -5 1.2
      vertex 8.66025 -5 0
    endloop
  endfacet
  facet normal -0.896871 0.442293 0
    outer loop
      vertex -9.2388 3.82683 0
      vertex -8.66025 5 1.2
      vertex -8.66025 5 0
    endloop
  endfacet
  facet normal -0.896871 0.442293 0
    outer loop
      vertex -8.66025 5 1.2
      vertex -9.2388 3.82683 0
      vertex -9.2388 3.82683 1.2
    endloop
  endfacet
  facet normal 0.659341 -0.751844 0
    outer loop
      vertex 6.08761 -7.93353 0
      vertex 7.07107 -7.07107 1.2
      vertex 6.08761 -7.93353 1.2
    endloop
  endfacet
  facet normal 0.659341 -0.751844 0
    outer loop
      vertex 7.07107 -7.07107 1.2
      vertex 6.08761 -7.93353 0
      vertex 7.07107 -7.07107 0
    endloop
  endfacet
  facet normal 0.751844 -0.659341 0
    outer loop
      vertex 7.07107 -7.07107 1.2
      vertex 7.93353 -6.08761 0
      vertex 7.93353 -6.08761 1.2
    endloop
  endfacet
  facet normal 0.751844 -0.659341 0
    outer loop
      vertex 7.93353 -6.08761 0
      vertex 7.07107 -7.07107 1.2
      vertex 7.07107 -7.07107 0
    endloop
  endfacet
  facet normal 0.321438 -0.946931 0
    outer loop
      vertex 2.58819 -9.65926 0
      vertex 3.82683 -9.2388 1.2
      vertex 2.58819 -9.65926 1.2
    endloop
  endfacet
  facet normal 0.321438 -0.946931 0
    outer loop
      vertex 3.82683 -9.2388 1.2
      vertex 2.58819 -9.65926 0
      vertex 3.82683 -9.2388 0
    endloop
  endfacet
  facet normal -0.997859 -0.0654022 0
    outer loop
      vertex -9.91445 -1.30526 0
      vertex -10 0 1.2
      vertex -10 0 0
    endloop
  endfacet
  facet normal -0.997859 -0.0654022 0
    outer loop
      vertex -10 0 1.2
      vertex -9.91445 -1.30526 0
      vertex -9.91445 -1.30526 1.2
    endloop
  endfacet
  facet normal -0.659341 0.751844 0
    outer loop
      vertex -6.08761 7.93353 0
      vertex -7.07107 7.07107 1.2
      vertex -6.08761 7.93353 1.2
    endloop
  endfacet
  facet normal -0.659341 0.751844 0
    outer loop
      vertex -7.07107 7.07107 1.2
      vertex -6.08761 7.93353 0
      vertex -7.07107 7.07107 0
    endloop
  endfacet
  facet normal -0.321438 0.946931 0
    outer loop
      vertex -2.58819 9.65926 0
      vertex -3.82683 9.2388 1.2
      vertex -2.58819 9.65926 1.2
    endloop
  endfacet
  facet normal -0.321438 0.946931 0
    outer loop
      vertex -3.82683 9.2388 1.2
      vertex -2.58819 9.65926 0
      vertex -3.82683 9.2388 0
    endloop
  endfacet
  facet normal -0.831469 -0.555571 0
    outer loop
      vertex -7.93353 -6.08761 0
      vertex -8.66025 -5 1.2
      vertex -8.66025 -5 0
    endloop
  endfacet
  facet normal -0.831469 -0.555571 0
    outer loop
      vertex -8.66025 -5 1.2
      vertex -7.93353 -6.08761 0
      vertex -7.93353 -6.08761 1.2
    endloop
  endfacet
  facet normal 0.751844 0.659341 0
    outer loop
      vertex 7.93353 6.08761 1.2
      vertex 7.07107 7.07107 0
      vertex 7.07107 7.07107 1.2
    endloop
  endfacet
  facet normal 0.751844 0.659341 0
    outer loop
      vertex 7.07107 7.07107 0
      vertex 7.93353 6.08761 1.2
      vertex 7.93353 6.08761 0
    endloop
  endfacet
  facet normal -0.321438 -0.946931 0
    outer loop
      vertex -3.82683 -9.2388 0
      vertex -2.58819 -9.65926 1.2
      vertex -3.82683 -9.2388 1.2
    endloop
  endfacet
  facet normal -0.321438 -0.946931 -0
    outer loop
      vertex -2.58819 -9.65926 1.2
      vertex -3.82683 -9.2388 0
      vertex -2.58819 -9.65926 0
    endloop
  endfacet
  facet normal 0.442293 -0.896871 0
    outer loop
      vertex 3.82683 -9.2388 0
      vertex 5 -8.66025 1.2
      vertex 3.82683 -9.2388 1.2
    endloop
  endfacet
  facet normal 0.442293 -0.896871 0
    outer loop
      vertex 5 -8.66025 1.2
      vertex 3.82683 -9.2388 0
      vertex 5 -8.66025 0
    endloop
  endfacet
  facet normal -0.442293 0.896871 0
    outer loop
      vertex -3.82683 9.2388 0
      vertex -5 8.66025 1.2
      vertex -3.82683 9.2388 1.2
    endloop
  endfacet
  facet normal -0.442293 0.896871 0
    outer loop
      vertex -5 8.66025 1.2
      vertex -3.82683 9.2388 0
      vertex -5 8.66025 0
    endloop
  endfacet
  facet normal 0 0 1
    outer loop
      vertex 8.2 0 1.2
      vertex 10 0 1.2
      vertex 9.91445 1.30526 1.2
    endloop
  endfacet
  facet normal 0 0 1
    outer loop
      vertex 8.12985 1.07031 1.2
      vertex 9.91445 1.30526 1.2
      vertex 9.65926 2.58819 1.2
    endloop
  endfacet
  facet normal 0 0 1
    outer loop
      vertex 10 0 1.2
      vertex 8.2 0 1.2
      vertex 9.91445 -1.30526 1.2
    endloop
  endfacet
  facet normal 0 0 1
    outer loop
      vertex 7.92059 2.12232 1.2
      vertex 9.65926 2.58819 1.2
      vertex 9.2388 3.82683 1.2
    endloop
  endfacet
  facet normal -0 0 1
    outer loop
      vertex 8.12985 -1.07031 1.2
      vertex 9.91445 -1.30526 1.2
      vertex 8.2 0 1.2
    endloop
  endfacet
  facet normal 0 0 1
    outer loop
      vertex 7.57581 3.138 1.2
      vertex 9.2388 3.82683 1.2
      vertex 8.66025 5 1.2
    endloop
  endfacet
  facet normal 0 0 1
    outer loop
      vertex 9.91445 -1.30526 1.2
      vertex 8.12985 -1.07031 1.2
      vertex 9.65926 -2.58819 1.2
    endloop
  endfacet
  facet normal -0 0 1
    outer loop
      vertex 7.92059 -2.12232 1.2
      vertex 9.65926 -2.58819 1.2
      vertex 8.12985 -1.07031 1.2
    endloop
  endfacet
  facet normal 0 0 1
    outer loop
      vertex 9.91445 1.30526 1.2
      vertex 8.12985 1.07031 1.2
      vertex 8.2 0 1.2
    endloop
  endfacet
  facet normal 0 0 1
    outer loop
      vertex 7.10141 4.1 1.2
      vertex 8.66025 5 1.2
      vertex 7.93353 6.08761 1.2
    endloop
  endfacet
  facet normal 0 0 1
    outer loop
      vertex 9.65926 2.58819 1.2
      vertex 7.92059 2.12232 1.2
      vertex 8.12985 1.07031 1.2
    endloop
  endfacet
  facet normal 0 0 1
    outer loop
      vertex 9.2388 3.82683 1.2
      vertex 7.57581 3.138 1.2
      vertex 7.92059 2.12232 1.2
    endloop
  endfacet
  facet normal 0 0 1
    outer loop
      vertex 8.66025 5 1.2
      vertex 7.10141 4.1 1.2
      vertex 7.57581 3.138 1.2
    endloop
  endfacet
  facet normal 0 0 1
    outer loop
      vertex 6.5055 4.99184 1.2
      vertex 7.93353 6.08761 1.2
      vertex 7.07107 7.07107 1.2
    endloop
  endfacet
  facet normal 0 0 1
    outer loop
      vertex 7.93353 6.08761 1.2
      vertex 6.5055 4.99184 1.2
      vertex 7.10141 4.1 1.2
    endloop
  endfacet
  facet normal 0 0 1
    outer loop
      vertex 5.79827 5.79827 1.2
      vertex 7.07107 7.07107 1.2
      vertex 6.08761 7.93353 1.2
    endloop
  endfacet
  facet normal 0 0 1
    outer loop
      vertex 7.07107 7.07107 1.2
      vertex 5.79827 5.79827 1.2
      vertex 6.5055 4.99184 1.2
    endloop
  endfacet
  facet normal 0 0 1
    outer loop
      vertex 4.99184 6.5055 1.2
      vertex 6.08761 7.93353 1.2
      vertex 5 8.66025 1.2
    endloop
  endfacet
  facet normal 0 0 1
    outer loop
      vertex 6.08761 7.93353 1.2
      vertex 4.99184 6.5055 1.2
      vertex 5.79827 5.79827 1.2
    endloop
  endfacet
  facet normal 0 0 1
    outer loop
      vertex 5 8.66025 1.2
      vertex 4.1 7.10141 1.2
      vertex 4.99184 6.5055 1.2
    endloop
  endfacet
  facet normal 0 0 1
    outer loop
      vertex 3.82683 9.2388 1.2
      vertex 4.1 7.10141 1.2
      vertex 5 8.66025 1.2
    endloop
  endfacet
  facet normal 0 0 1
    outer loop
      vertex 3.82683 9.2388 1.2
      vertex 3.138 7.57581 1.2
      vertex 4.1 7.10141 1.2
    endloop
  endfacet
  facet normal 0 0 1
    outer loop
      vertex 2.58819 9.65926 1.2
      vertex 3.138 7.57581 1.2
      vertex 3.82683 9.2388 1.2
    endloop
  endfacet
  facet normal 0 0 1
    outer loop
      vertex 2.58819 9.65926 1.2
      vertex 2.12232 7.92059 1.2
      vertex 3.138 7.57581 1.2
    endloop
  endfacet
  facet normal 0 0 1
    outer loop
      vertex 1.30526 9.91445 1.2
      vertex 2.12232 7.92059 1.2
      vertex 2.58819 9.65926 1.2
    endloop
  endfacet
  facet normal 0 0 1
    outer loop
      vertex 1.30526 9.91445 1.2
      vertex 1.07031 8.12985 1.2
      vertex 2.12232 7.92059 1.2
    endloop
  endfacet
  facet normal 0 0 1
    outer loop
      vertex 0 10 1.2
      vertex 1.07031 8.12985 1.2
      vertex 1.30526 9.91445 1.2
    endloop
  endfacet
  facet normal 0 0 1
    outer loop
      vertex 0 10 1.2
      vertex 0 8.2 1.2
      vertex 1.07031 8.12985 1.2
    endloop
  endfacet
  facet normal 0 0 1
    outer loop
      vertex 0 10 1.2
      vertex -1.07031 8.12985 1.2
      vertex 0 8.2 1.2
    endloop
  endfacet
  facet normal -0 0 1
    outer loop
      vertex -1.30526 9.91445 1.2
      vertex -1.07031 8.12985 1.2
      vertex 0 10 1.2
    endloop
  endfacet
  facet normal 0 0 1
    outer loop
      vertex -1.30526 9.91445 1.2
      vertex -2.12232 7.92059 1.2
      vertex -1.07031 8.12985 1.2
    endloop
  endfacet
  facet normal -0 0 1
    outer loop
      vertex -2.58819 9.65926 1.2
      vertex -2.12232 7.92059 1.2
      vertex -1.30526 9.91445 1.2
    endloop
  endfacet
  facet normal 0 0 1
    outer loop
      vertex -2.58819 9.65926 1.2
      vertex -3.138 7.57581 1.2
      vertex -2.12232 7.92059 1.2
    endloop
  endfacet
  facet normal -0 0 1
    outer loop
      vertex -3.82683 9.2388 1.2
      vertex -3.138 7.57581 1.2
      vertex -2.58819 9.65926 1.2
    endloop
  endfacet
  facet normal 0 0 1
    outer loop
      vertex -3.82683 9.2388 1.2
      vertex -4.1 7.10141 1.2
      vertex -3.138 7.57581 1.2
    endloop
  endfacet
  facet normal -0 0 1
    outer loop
      vertex -5 8.66025 1.2
      vertex -4.1 7.10141 1.2
      vertex -3.82683 9.2388 1.2
    endloop
  endfacet
  facet normal 0 0 1
    outer loop
      vertex -4.1 7.10141 1.2
      vertex -5 8.66025 1.2
      vertex -4.99184 6.5055 1.2
    endloop
  endfacet
  facet normal -0 0 1
    outer loop
      vertex -6.08761 7.93353 1.2
      vertex -4.99184 6.5055 1.2
      vertex -5 8.66025 1.2
    endloop
  endfacet
  facet normal 0 0 1
    outer loop
      vertex -4.99184 6.5055 1.2
      vertex -6.08761 7.93353 1.2
      vertex -5.79827 5.79827 1.2
    endloop
  endfacet
  facet normal -0 0 1
    outer loop
      vertex -7.07107 7.07107 1.2
      vertex -5.79827 5.79827 1.2
      vertex -6.08761 7.93353 1.2
    endloop
  endfacet
  facet normal 0 0 1
    outer loop
      vertex -5.79827 5.79827 1.2
      vertex -7.07107 7.07107 1.2
      vertex -6.5055 4.99184 1.2
    endloop
  endfacet
  facet normal -0 0 1
    outer loop
      vertex -7.93353 6.08761 1.2
      vertex -6.5055 4.99184 1.2
      vertex -7.07107 7.07107 1.2
    endloop
  endfacet
  facet normal 0 0 1
    outer loop
      vertex -6.5055 4.99184 1.2
      vertex -7.93353 6.08761 1.2
      vertex -7.10141 4.1 1.2
    endloop
  endfacet
  facet normal -0 0 1
    outer loop
      vertex -8.66025 5 1.2
      vertex -7.10141 4.1 1.2
      vertex -7.93353 6.08761 1.2
    endloop
  endfacet
  facet normal 0 0 1
    outer loop
      vertex -7.10141 4.1 1.2
      vertex -8.66025 5 1.2
      vertex -7.57581 3.138 1.2
    endloop
  endfacet
  facet normal -0 0 1
    outer loop
      vertex -9.2388 3.82683 1.2
      vertex -7.57581 3.138 1.2
      vertex -8.66025 5 1.2
    endloop
  endfacet
  facet normal 0 0 1
    outer loop
      vertex -7.57581 3.138 1.2
      vertex -9.2388 3.82683 1.2
      vertex -7.92059 2.12232 1.2
    endloop
  endfacet
  facet normal -0 0 1
    outer loop
      vertex -9.65926 2.58819 1.2
      vertex -7.92059 2.12232 1.2
      vertex -9.2388 3.82683 1.2
    endloop
  endfacet
  facet normal 0 0 1
    outer loop
      vertex 9.65926 -2.58819 1.2
      vertex 7.92059 -2.12232 1.2
      vertex 9.2388 -3.82683 1.2
    endloop
  endfacet
  facet normal -0 0 1
    outer loop
      vertex 7.57581 -3.138 1.2
      vertex 9.2388 -3.82683 1.2
      vertex 7.92059 -2.12232 1.2
    endloop
  endfacet
  facet normal 0 0 1
    outer loop
      vertex 9.2388 -3.82683 1.2
      vertex 7.57581 -3.138 1.2
      vertex 8.66025 -5 1.2
    endloop
  endfacet
  facet normal -0 0 1
    outer loop
      vertex 7.10141 -4.1 1.2
      vertex 8.66025 -5 1.2
      vertex 7.57581 -3.138 1.2
    endloop
  endfacet
  facet normal 0 0 1
    outer loop
      vertex 8.66025 -5 1.2
      vertex 7.10141 -4.1 1.2
      vertex 7.93353 -6.08761 1.2
    endloop
  endfacet
  facet normal -0 0 1
    outer loop
      vertex 6.5055 -4.99184 1.2
      vertex 7.93353 -6.08761 1.2
      vertex 7.10141 -4.1 1.2
    endloop
  endfacet
  facet normal 0 0 1
    outer loop
      vertex 7.93353 -6.08761 1.2
      vertex 6.5055 -4.99184 1.2
      vertex 7.07107 -7.07107 1.2
    endloop
  endfacet
  facet normal -0 0 1
    outer loop
      vertex 5.79827 -5.79827 1.2
      vertex 7.07107 -7.07107 1.2
      vertex 6.5055 -4.99184 1.2
    endloop
  endfacet
  facet normal 0 0 1
    outer loop
      vertex 7.07107 -7.07107 1.2
      vertex 5.79827 -5.79827 1.2
      vertex 6.08761 -7.93353 1.2
    endloop
  endfacet
  facet normal -0 0 1
    outer loop
      vertex 4.99184 -6.5055 1.2
      vertex 6.08761 -7.93353 1.2
      vertex 5.79827 -5.79827 1.2
    endloop
  endfacet
  facet normal 0 0 1
    outer loop
      vertex 6.08761 -7.93353 1.2
      vertex 4.99184 -6.5055 1.2
      vertex 5 -8.66025 1.2
    endloop
  endfacet
  facet normal -0 0 1
    outer loop
      vertex 4.1 -7.10141 1.2
      vertex 5 -8.66025 1.2
      vertex 4.99184 -6.5055 1.2
    endloop
  endfacet
  facet normal 0 0 1
    outer loop
      vertex 4.1 -7.10141 1.2
      vertex 3.82683 -9.2388 1.2
      vertex 5 -8.66025 1.2
    endloop
  endfacet
  facet normal -0 0 1
    outer loop
      vertex 3.138 -7.57581 1.2
      vertex 3.82683 -9.2388 1.2
      vertex 4.1 -7.10141 1.2
    endloop
  endfacet
  facet normal 0 0 1
    outer loop
      vertex 3.138 -7.57581 1.2
      vertex 2.58819 -9.65926 1.2
      vertex 3.82683 -9.2388 1.2
    endloop
  endfacet
  facet normal -0 0 1
    outer loop
      vertex 2.12232 -7.92059 1.2
      vertex 2.58819 -9.65926 1.2
      vertex 3.138 -7.57581 1.2
    endloop
  endfacet
  facet normal 0 0 1
    outer loop
      vertex 2.12232 -7.92059 1.2
      vertex 1.30526 -9.91445 1.2
      vertex 2.58819 -9.65926 1.2
    endloop
  endfacet
  facet normal -0 0 1
    outer loop
      vertex 1.07031 -8.12985 1.2
      vertex 1.30526 -9.91445 1.2
      vertex 2.12232 -7.92059 1.2
    endloop
  endfacet
  facet normal -0 0 1
    outer loop
      vertex 0 -8.2 1.2
      vertex 1.30526 -9.91445 1.2
      vertex 1.07031 -8.12985 1.2
    endloop
  endfacet
  facet normal 0 0 1
    outer loop
      vertex 0 -8.2 1.2
      vertex 0 -10 1.2
      vertex 1.30526 -9.91445 1.2
    endloop
  endfacet
  facet normal 0 0 1
    outer loop
      vertex -1.07031 -8.12985 1.2
      vertex 0 -10 1.2
      vertex 0 -8.2 1.2
    endloop
  endfacet
  facet normal 0 0 1
    outer loop
      vertex -1.07031 -8.12985 1.2
      vertex -1.30526 -9.91445 1.2
      vertex 0 -10 1.2
    endloop
  endfacet
  facet normal 0 0 1
    outer loop
      vertex -2.12232 -7.92059 1.2
      vertex -1.30526 -9.91445 1.2
      vertex -1.07031 -8.12985 1.2
    endloop
  endfacet
  facet normal 0 0 1
    outer loop
      vertex -2.12232 -7.92059 1.2
      vertex -2.58819 -9.65926 1.2
      vertex -1.30526 -9.91445 1.2
    endloop
  endfacet
  facet normal 0 0 1
    outer loop
      vertex -3.138 -7.57581 1.2
      vertex -2.58819 -9.65926 1.2
      vertex -2.12232 -7.92059 1.2
    endloop
  endfacet
  facet normal 0 0 1
    outer loop
      vertex -3.138 -7.57581 1.2
      vertex -3.82683 -9.2388 1.2
      vertex -2.58819 -9.65926 1.2
    endloop
  endfacet
  facet normal 0 0 1
    outer loop
      vertex -4.1 -7.10141 1.2
      vertex -3.82683 -9.2388 1.2
      vertex -3.138 -7.57581 1.2
    endloop
  endfacet
  facet normal 0 0 1
    outer loop
      vertex -5 -8.66025 1.2
      vertex -4.1 -7.10141 1.2
      vertex -4.99184 -6.5055 1.2
    endloop
  endfacet
  facet normal 0 0 1
    outer loop
      vertex -4.1 -7.10141 1.2
      vertex -5 -8.66025 1.2
      vertex -3.82683 -9.2388 1.2
    endloop
  endfacet
  facet normal 0 0 1
    outer loop
      vertex -6.08761 -7.93353 1.2
      vertex -4.99184 -6.5055 1.2
      vertex -5.79827 -5.79827 1.2
    endloop
  endfacet
  facet normal 0 0 1
    outer loop
      vertex -4.99184 -6.5055 1.2
      vertex -6.08761 -7.93353 1.2
      vertex -5 -8.66025 1.2
    endloop
  endfacet
  facet normal 0 0 1
    outer loop
      vertex -7.07107 -7.07107 1.2
      vertex -5.79827 -5.79827 1.2
      vertex -6.5055 -4.99184 1.2
    endloop
  endfacet
  facet normal 0 0 1
    outer loop
      vertex -5.79827 -5.79827 1.2
      vertex -7.07107 -7.07107 1.2
      vertex -6.08761 -7.93353 1.2
    endloop
  endfacet
  facet normal 0 0 1
    outer loop
      vertex -7.93353 -6.08761 1.2
      vertex -6.5055 -4.99184 1.2
      vertex -7.10141 -4.1 1.2
    endloop
  endfacet
  facet normal 0 0 1
    outer loop
      vertex -8.66025 -5 1.2
      vertex -7.10141 -4.1 1.2
      vertex -7.57581 -3.138 1.2
    endloop
  endfacet
  facet normal 0 0 1
    outer loop
      vertex -9.2388 -3.82683 1.2
      vertex -7.57581 -3.138 1.2
      vertex -7.92059 -2.12232 1.2
    endloop
  endfacet
  facet normal 0 0 1
    outer loop
      vertex -6.5055 -4.99184 1.2
      vertex -7.93353 -6.08761 1.2
      vertex -7.07107 -7.07107 1.2
    endloop
  endfacet
  facet normal 0 0 1
    outer loop
      vertex -9.65926 -2.58819 1.2
      vertex -7.92059 -2.12232 1.2
      vertex -8.12985 -1.07031 1.2
    endloop
  endfacet
  facet normal 0 0 1
    outer loop
      vertex -9.91445 -1.30526 1.2
      vertex -8.12985 -1.07031 1.2
      vertex -8.2 0 1.2
    endloop
  endfacet
  facet normal 0 0 1
    outer loop
      vertex -7.92059 2.12232 1.2
      vertex -9.65926 2.58819 1.2
      vertex -8.12985 1.07031 1.2
    endloop
  endfacet
  facet normal 0 0 1
    outer loop
      vertex -7.10141 -4.1 1.2
      vertex -8.66025 -5 1.2
      vertex -7.93353 -6.08761 1.2
    endloop
  endfacet
  facet normal -0 0 1
    outer loop
      vertex -9.91445 1.30526 1.2
      vertex -8.12985 1.07031 1.2
      vertex -9.65926 2.58819 1.2
    endloop
  endfacet
  facet normal 0 0 1
    outer loop
      vertex -7.57581 -3.138 1.2
      vertex -9.2388 -3.82683 1.2
      vertex -8.66025 -5 1.2
    endloop
  endfacet
  facet normal 0 0 1
    outer loop
      vertex -8.12985 1.07031 1.2
      vertex -9.91445 1.30526 1.2
      vertex -8.2 0 1.2
    endloop
  endfacet
  facet normal 0 0 1
    outer loop
      vertex -7.92059 -2.12232 1.2
      vertex -9.65926 -2.58819 1.2
      vertex -9.2388 -3.82683 1.2
    endloop
  endfacet
  facet normal 0 0 1
    outer loop
      vertex -10 0 1.2
      vertex -8.2 0 1.2
      vertex -9.91445 1.30526 1.2
    endloop
  endfacet
  facet normal 0 0 1
    outer loop
      vertex -8.12985 -1.07031 1.2
      vertex -9.91445 -1.30526 1.2
      vertex -9.65926 -2.58819 1.2
    endloop
  endfacet
  facet normal 0 0 1
    outer loop
      vertex -8.2 0 1.2
      vertex -10 0 1.2
      vertex -9.91445 -1.30526 1.2
    endloop
  endfacet
  facet normal 0.980785 -0.19509 0
    outer loop
      vertex 9.65926 -2.58819 1.2
      vertex 9.91445 -1.30526 0
      vertex 9.91445 -1.30526 1.2
    endloop
  endfacet
  facet normal 0.980785 -0.19509 0
    outer loop
      vertex 9.91445 -1.30526 0
      vertex 9.65926 -2.58819 1.2
      vertex 9.65926 -2.58819 0
    endloop
  endfacet
  facet normal -0.946931 -0.321438 0
    outer loop
      vertex -9.2388 -3.82683 0
      vertex -9.65926 -2.58819 1.2
      vertex -9.65926 -2.58819 0
    endloop
  endfacet
  facet normal -0.946931 -0.321438 0
    outer loop
      vertex -9.65926 -2.58819 1.2
      vertex -9.2388 -3.82683 0
      vertex -9.2388 -3.82683 1.2
    endloop
  endfacet
  facet normal 0.946931 -0.321438 0
    outer loop
      vertex 9.2388 -3.82683 1.2
      vertex 9.65926 -2.58819 0
      vertex 9.65926 -2.58819 1.2
    endloop
  endfacet
  facet normal 0.946931 -0.321438 0
    outer loop
      vertex 9.65926 -2.58819 0
      vertex 9.2388 -3.82683 1.2
      vertex 9.2388 -3.82683 0
    endloop
  endfacet
  facet normal -0.751844 -0.659341 0
    outer loop
      vertex -7.07107 -7.07107 0
      vertex -7.93353 -6.08761 1.2
      vertex -7.93353 -6.08761 0
    endloop
  endfacet
  facet normal -0.751844 -0.659341 0
    outer loop
      vertex -7.93353 -6.08761 1.2
      vertex -7.07107 -7.07107 0
      vertex -7.07107 -7.07107 1.2
    endloop
  endfacet
  facet normal 0.555571 0.831469 -0
    outer loop
      vertex 6.08761 7.93353 0
      vertex 5 8.66025 1.2
      vertex 6.08761 7.93353 1.2
    endloop
  endfacet
  facet normal 0.555571 0.831469 0
    outer loop
      vertex 5 8.66025 1.2
      vertex 6.08761 7.93353 0
      vertex 5 8.66025 0
    endloop
  endfacet
  facet normal 0.442293 0.896871 -0
    outer loop
      vertex 5 8.66025 0
      vertex 3.82683 9.2388 1.2
      vertex 5 8.66025 1.2
    endloop
  endfacet
  facet normal 0.442293 0.896871 0
    outer loop
      vertex 3.82683 9.2388 1.2
      vertex 5 8.66025 0
      vertex 3.82683 9.2388 0
    endloop
  endfacet
  facet normal -0.19509 0.980785 0
    outer loop
      vertex -1.30526 9.91445 0
      vertex -2.58819 9.65926 1.2
      vertex -1.30526 9.91445 1.2
    endloop
  endfacet
  facet normal -0.19509 0.980785 0
    outer loop
      vertex -2.58819 9.65926 1.2
      vertex -1.30526 9.91445 0
      vertex -2.58819 9.65926 0
    endloop
  endfacet
  facet normal -0.442293 -0.896871 0
    outer loop
      vertex -5 -8.66025 0
      vertex -3.82683 -9.2388 1.2
      vertex -5 -8.66025 1.2
    endloop
  endfacet
  facet normal -0.442293 -0.896871 -0
    outer loop
      vertex -3.82683 -9.2388 1.2
      vertex -5 -8.66025 0
      vertex -3.82683 -9.2388 0
    endloop
  endfacet
  facet normal -0.0654022 0.997859 0
    outer loop
      vertex 0 10 0
      vertex -1.30526 9.91445 1.2
      vertex 0 10 1.2
    endloop
  endfacet
  facet normal -0.0654022 0.997859 0
    outer loop
      vertex -1.30526 9.91445 1.2
      vertex 0 10 0
      vertex -1.30526 9.91445 0
    endloop
  endfacet
  facet normal -0.751844 0.659341 0
    outer loop
      vertex -7.93353 6.08761 0
      vertex -7.07107 7.07107 1.2
      vertex -7.07107 7.07107 0
    endloop
  endfacet
  facet normal -0.751844 0.659341 0
    outer loop
      vertex -7.07107 7.07107 1.2
      vertex -7.93353 6.08761 0
      vertex -7.93353 6.08761 1.2
    endloop
  endfacet
  facet normal 0.997859 -0.0654022 0
    outer loop
      vertex 9.91445 -1.30526 1.2
      vertex 10 0 0
      vertex 10 0 1.2
    endloop
  endfacet
  facet normal 0.997859 -0.0654022 0
    outer loop
      vertex 10 0 0
      vertex 9.91445 -1.30526 1.2
      vertex 9.91445 -1.30526 0
    endloop
  endfacet
  facet normal -0.946931 0.321438 0
    outer loop
      vertex -9.65926 2.58819 0
      vertex -9.2388 3.82683 1.2
      vertex -9.2388 3.82683 0
    endloop
  endfacet
  facet normal -0.946931 0.321438 0
    outer loop
      vertex -9.2388 3.82683 1.2
      vertex -9.65926 2.58819 0
      vertex -9.65926 2.58819 1.2
    endloop
  endfacet
  facet normal -0.659341 -0.751844 0
    outer loop
      vertex -7.07107 -7.07107 0
      vertex -6.08761 -7.93353 1.2
      vertex -7.07107 -7.07107 1.2
    endloop
  endfacet
  facet normal -0.659341 -0.751844 -0
    outer loop
      vertex -6.08761 -7.93353 1.2
      vertex -7.07107 -7.07107 0
      vertex -6.08761 -7.93353 0
    endloop
  endfacet
  facet normal 0 0 -1
    outer loop
      vertex 6 0 0
      vertex 10 0 0
      vertex 9.91445 -1.30526 0
    endloop
  endfacet
  facet normal 0 0 -1
    outer loop
      vertex 5.94867 -0.783156 0
      vertex 9.91445 -1.30526 0
      vertex 9.65926 -2.58819 0
    endloop
  endfacet
  facet normal 0 0 -1
    outer loop
      vertex 10 0 0
      vertex 6 0 0
      vertex 9.91445 1.30526 0
    endloop
  endfacet
  facet normal 0 0 -1
    outer loop
      vertex 5.79555 -1.55291 0
      vertex 9.65926 -2.58819 0
      vertex 9.2388 -3.82683 0
    endloop
  endfacet
  facet normal 0 0 -1
    outer loop
      vertex 5.94867 0.783156 0
      vertex 9.91445 1.30526 0
      vertex 6 0 0
    endloop
  endfacet
  facet normal 0 0 -1
    outer loop
      vertex 5.54328 -2.2961 0
      vertex 9.2388 -3.82683 0
      vertex 8.66025 -5 0
    endloop
  endfacet
  facet normal -0 0 -1
    outer loop
      vertex 9.91445 1.30526 0
      vertex 5.94867 0.783156 0
      vertex 9.65926 2.58819 0
    endloop
  endfacet
  facet normal 0 0 -1
    outer loop
      vertex 5.19615 -3 0
      vertex 8.66025 -5 0
      vertex 7.93353 -6.08761 0
    endloop
  endfacet
  facet normal 0 0 -1
    outer loop
      vertex 5.79555 1.55291 0
      vertex 9.65926 2.58819 0
      vertex 5.94867 0.783156 0
    endloop
  endfacet
  facet normal 0 0 -1
    outer loop
      vertex 4.76012 -3.65257 0
      vertex 7.93353 -6.08761 0
      vertex 7.07107 -7.07107 0
    endloop
  endfacet
  facet normal -0 0 -1
    outer loop
      vertex 9.65926 2.58819 0
      vertex 5.79555 1.55291 0
      vertex 9.2388 3.82683 0
    endloop
  endfacet
  facet normal 0 0 -1
    outer loop
      vertex 4.24264 -4.24264 0
      vertex 7.07107 -7.07107 0
      vertex 6.08761 -7.93353 0
    endloop
  endfacet
  facet normal 0 0 -1
    outer loop
      vertex 5.54328 2.2961 0
      vertex 9.2388 3.82683 0
      vertex 5.79555 1.55291 0
    endloop
  endfacet
  facet normal -0 0 -1
    outer loop
      vertex 9.2388 3.82683 0
      vertex 5.54328 2.2961 0
      vertex 8.66025 5 0
    endloop
  endfacet
  facet normal 0 0 -1
    outer loop
      vertex 9.91445 -1.30526 0
      vertex 5.94867 -0.783156 0
      vertex 6 0 0
    endloop
  endfacet
  facet normal 0 0 -1
    outer loop
      vertex 9.65926 -2.58819 0
      vertex 5.79555 -1.55291 0
      vertex 5.94867 -0.783156 0
    endloop
  endfacet
  facet normal 0 0 -1
    outer loop
      vertex 9.2388 -3.82683 0
      vertex 5.54328 -2.2961 0
      vertex 5.79555 -1.55291 0
    endloop
  endfacet
  facet normal 0 0 -1
    outer loop
      vertex 8.66025 -5 0
      vertex 5.19615 -3 0
      vertex 5.54328 -2.2961 0
    endloop
  endfacet
  facet normal 0 0 -1
    outer loop
      vertex 3.65257 -4.76012 0
      vertex 6.08761 -7.93353 0
      vertex 5 -8.66025 0
    endloop
  endfacet
  facet normal 0 0 -1
    outer loop
      vertex 7.93353 -6.08761 0
      vertex 4.76012 -3.65257 0
      vertex 5.19615 -3 0
    endloop
  endfacet
  facet normal 0 0 -1
    outer loop
      vertex 7.07107 -7.07107 0
      vertex 4.24264 -4.24264 0
      vertex 4.76012 -3.65257 0
    endloop
  endfacet
  facet normal 0 0 -1
    outer loop
      vertex 3 -5.19615 0
      vertex 5 -8.66025 0
      vertex 3.82683 -9.2388 0
    endloop
  endfacet
  facet normal 0 0 -1
    outer loop
      vertex 6.08761 -7.93353 0
      vertex 3.65257 -4.76012 0
      vertex 4.24264 -4.24264 0
    endloop
  endfacet
  facet normal 0 0 -1
    outer loop
      vertex 5 -8.66025 0
      vertex 3 -5.19615 0
      vertex 3.65257 -4.76012 0
    endloop
  endfacet
  facet normal 0 0 -1
    outer loop
      vertex 2.2961 -5.54328 0
      vertex 3.82683 -9.2388 0
      vertex 2.58819 -9.65926 0
    endloop
  endfacet
  facet normal 0 0 -1
    outer loop
      vertex 3.82683 -9.2388 0
      vertex 2.2961 -5.54328 0
      vertex 3 -5.19615 0
    endloop
  endfacet
  facet normal 0 0 -1
    outer loop
      vertex 2.58819 -9.65926 0
      vertex 1.55291 -5.79555 0
      vertex 2.2961 -5.54328 0
    endloop
  endfacet
  facet normal 0 0 -1
    outer loop
      vertex 1.30526 -9.91445 0
      vertex 1.55291 -5.79555 0
      vertex 2.58819 -9.65926 0
    endloop
  endfacet
  facet normal 0 0 -1
    outer loop
      vertex 1.30526 -9.91445 0
      vertex 0.783156 -5.94867 0
      vertex 1.55291 -5.79555 0
    endloop
  endfacet
  facet normal 0 0 -1
    outer loop
      vertex 0 -10 0
      vertex 0.783156 -5.94867 0
      vertex 1.30526 -9.91445 0
    endloop
  endfacet
  facet normal 0 0 -1
    outer loop
      vertex 0 -10 0
      vertex 0 -6 0
      vertex 0.783156 -5.94867 0
    endloop
  endfacet
  facet normal 0 0 -1
    outer loop
      vertex 0 -10 0
      vertex -0.783156 -5.94867 0
      vertex 0 -6 0
    endloop
  endfacet
  facet normal 0 0 -1
    outer loop
      vertex -1.30526 -9.91445 0
      vertex -0.783156 -5.94867 0
      vertex 0 -10 0
    endloop
  endfacet
  facet normal 0 0 -1
    outer loop
      vertex -1.30526 -9.91445 0
      vertex -1.55291 -5.79555 0
      vertex -0.783156 -5.94867 0
    endloop
  endfacet
  facet normal 0 0 -1
    outer loop
      vertex -2.58819 -9.65926 0
      vertex -1.55291 -5.79555 0
      vertex -1.30526 -9.91445 0
    endloop
  endfacet
  facet normal -0 0 -1
    outer loop
      vertex -1.55291 -5.79555 0
      vertex -2.58819 -9.65926 0
      vertex -2.2961 -5.54328 0
    endloop
  endfacet
  facet normal 0 0 -1
    outer loop
      vertex -3.82683 -9.2388 0
      vertex -2.2961 -5.54328 0
      vertex -2.58819 -9.65926 0
    endloop
  endfacet
  facet normal -0 0 -1
    outer loop
      vertex -2.2961 -5.54328 0
      vertex -3.82683 -9.2388 0
      vertex -3 -5.19615 0
    endloop
  endfacet
  facet normal 0 0 -1
    outer loop
      vertex -5 -8.66025 0
      vertex -3 -5.19615 0
      vertex -3.82683 -9.2388 0
    endloop
  endfacet
  facet normal -0 0 -1
    outer loop
      vertex -3 -5.19615 0
      vertex -5 -8.66025 0
      vertex -3.65257 -4.76012 0
    endloop
  endfacet
  facet normal 0 0 -1
    outer loop
      vertex -6.08761 -7.93353 0
      vertex -3.65257 -4.76012 0
      vertex -5 -8.66025 0
    endloop
  endfacet
  facet normal -0 0 -1
    outer loop
      vertex -3.65257 -4.76012 0
      vertex -6.08761 -7.93353 0
      vertex -4.24264 -4.24264 0
    endloop
  endfacet
  facet normal 0 0 -1
    outer loop
      vertex -7.07107 -7.07107 0
      vertex -4.24264 -4.24264 0
      vertex -6.08761 -7.93353 0
    endloop
  endfacet
  facet normal -0 0 -1
    outer loop
      vertex -4.24264 -4.24264 0
      vertex -7.07107 -7.07107 0
      vertex -4.76012 -3.65257 0
    endloop
  endfacet
  facet normal 0 0 -1
    outer loop
      vertex -7.93353 -6.08761 0
      vertex -4.76012 -3.65257 0
      vertex -7.07107 -7.07107 0
    endloop
  endfacet
  facet normal -0 0 -1
    outer loop
      vertex -4.76012 -3.65257 0
      vertex -7.93353 -6.08761 0
      vertex -5.19615 -3 0
    endloop
  endfacet
  facet normal -0 0 -1
    outer loop
      vertex -5.19615 -3 0
      vertex -8.66025 -5 0
      vertex -5.54328 -2.2961 0
    endloop
  endfacet
  facet normal 0 0 -1
    outer loop
      vertex -8.66025 -5 0
      vertex -5.19615 -3 0
      vertex -7.93353 -6.08761 0
    endloop
  endfacet
  facet normal 0 0 -1
    outer loop
      vertex 5.19615 3 0
      vertex 8.66025 5 0
      vertex 5.54328 2.2961 0
    endloop
  endfacet
  facet normal -0 0 -1
    outer loop
      vertex 8.66025 5 0
      vertex 5.19615 3 0
      vertex 7.93353 6.08761 0
    endloop
  endfacet
  facet normal 0 0 -1
    outer loop
      vertex 4.76012 3.65257 0
      vertex 7.93353 6.08761 0
      vertex 5.19615 3 0
    endloop
  endfacet
  facet normal -0 0 -1
    outer loop
      vertex 7.93353 6.08761 0
      vertex 4.76012 3.65257 0
      vertex 7.07107 7.07107 0
    endloop
  endfacet
  facet normal 0 0 -1
    outer loop
      vertex 4.24264 4.24264 0
      vertex 7.07107 7.07107 0
      vertex 4.76012 3.65257 0
    endloop
  endfacet
  facet normal -0 0 -1
    outer loop
      vertex 7.07107 7.07107 0
      vertex 4.24264 4.24264 0
      vertex 6.08761 7.93353 0
    endloop
  endfacet
  facet normal 0 0 -1
    outer loop
      vertex 3.65257 4.76012 0
      vertex 6.08761 7.93353 0
      vertex 4.24264 4.24264 0
    endloop
  endfacet
  facet normal -0 0 -1
    outer loop
      vertex 6.08761 7.93353 0
      vertex 3.65257 4.76012 0
      vertex 5 8.66025 0
    endloop
  endfacet
  facet normal 0 0 -1
    outer loop
      vertex 3 5.19615 0
      vertex 5 8.66025 0
      vertex 3.65257 4.76012 0
    endloop
  endfacet
  facet normal -0 0 -1
    outer loop
      vertex 5 8.66025 0
      vertex 3 5.19615 0
      vertex 3.82683 9.2388 0
    endloop
  endfacet
  facet normal 0 0 -1
    outer loop
      vertex 2.2961 5.54328 0
      vertex 3.82683 9.2388 0
      vertex 3 5.19615 0
    endloop
  endfacet
  facet normal -0 0 -1
    outer loop
      vertex 3.82683 9.2388 0
      vertex 2.2961 5.54328 0
      vertex 2.58819 9.65926 0
    endloop
  endfacet
  facet normal 0 0 -1
    outer loop
      vertex 1.55291 5.79555 0
      vertex 2.58819 9.65926 0
      vertex 2.2961 5.54328 0
    endloop
  endfacet
  facet normal 0 0 -1
    outer loop
      vertex 1.55291 5.79555 0
      vertex 1.30526 9.91445 0
      vertex 2.58819 9.65926 0
    endloop
  endfacet
  facet normal 0 0 -1
    outer loop
      vertex 0.783156 5.94867 0
      vertex 1.30526 9.91445 0
      vertex 1.55291 5.79555 0
    endloop
  endfacet
  facet normal 0 0 -1
    outer loop
      vertex 0 6 0
      vertex 1.30526 9.91445 0
      vertex 0.783156 5.94867 0
    endloop
  endfacet
  facet normal 0 0 -1
    outer loop
      vertex 0 6 0
      vertex 0 10 0
      vertex 1.30526 9.91445 0
    endloop
  endfacet
  facet normal 0 0 -1
    outer loop
      vertex -0.783156 5.94867 0
      vertex 0 10 0
      vertex 0 6 0
    endloop
  endfacet
  facet normal 0 0 -1
    outer loop
      vertex -0.783156 5.94867 0
      vertex -1.30526 9.91445 0
      vertex 0 10 0
    endloop
  endfacet
  facet normal 0 0 -1
    outer loop
      vertex -1.55291 5.79555 0
      vertex -1.30526 9.91445 0
      vertex -0.783156 5.94867 0
    endloop
  endfacet
  facet normal 0 0 -1
    outer loop
      vertex -2.58819 9.65926 0
      vertex -1.55291 5.79555 0
      vertex -2.2961 5.54328 0
    endloop
  endfacet
  facet normal 0 0 -1
    outer loop
      vertex -1.55291 5.79555 0
      vertex -2.58819 9.65926 0
      vertex -1.30526 9.91445 0
    endloop
  endfacet
  facet normal 0 0 -1
    outer loop
      vertex -3.82683 9.2388 0
      vertex -2.2961 5.54328 0
      vertex -3 5.19615 0
    endloop
  endfacet
  facet normal 0 0 -1
    outer loop
      vertex -5 8.66025 0
      vertex -3 5.19615 0
      vertex -3.65257 4.76012 0
    endloop
  endfacet
  facet normal 0 0 -1
    outer loop
      vertex -2.2961 5.54328 0
      vertex -3.82683 9.2388 0
      vertex -2.58819 9.65926 0
    endloop
  endfacet
  facet normal 0 0 -1
    outer loop
      vertex -6.08761 7.93353 0
      vertex -3.65257 4.76012 0
      vertex -4.24264 4.24264 0
    endloop
  endfacet
  facet normal 0 0 -1
    outer loop
      vertex -7.07107 7.07107 0
      vertex -4.24264 4.24264 0
      vertex -4.76012 3.65257 0
    endloop
  endfacet
  facet normal 0 0 -1
    outer loop
      vertex -3 5.19615 0
      vertex -5 8.66025 0
      vertex -3.82683 9.2388 0
    endloop
  endfacet
  facet normal 0 0 -1
    outer loop
      vertex -7.93353 6.08761 0
      vertex -4.76012 3.65257 0
      vertex -5.19615 3 0
    endloop
  endfacet
  facet normal 0 0 -1
    outer loop
      vertex -8.66025 5 0
      vertex -5.19615 3 0
      vertex -5.54328 2.2961 0
    endloop
  endfacet
  facet normal 0 0 -1
    outer loop
      vertex -9.2388 3.82683 0
      vertex -5.54328 2.2961 0
      vertex -5.79555 1.55291 0
    endloop
  endfacet
  facet normal 0 0 -1
    outer loop
      vertex -9.65926 2.58819 0
      vertex -5.79555 1.55291 0
      vertex -5.94867 0.783156 0
    endloop
  endfacet
  facet normal 0 0 -1
    outer loop
      vertex -3.65257 4.76012 0
      vertex -6.08761 7.93353 0
      vertex -5 8.66025 0
    endloop
  endfacet
  facet normal 0 0 -1
    outer loop
      vertex -9.91445 1.30526 0
      vertex -5.94867 0.783156 0
      vertex -6 0 0
    endloop
  endfacet
  facet normal 0 0 -1
    outer loop
      vertex -9.2388 -3.82683 0
      vertex -5.54328 -2.2961 0
      vertex -8.66025 -5 0
    endloop
  endfacet
  facet normal -0 0 -1
    outer loop
      vertex -5.54328 -2.2961 0
      vertex -9.2388 -3.82683 0
      vertex -5.79555 -1.55291 0
    endloop
  endfacet
  facet normal 0 0 -1
    outer loop
      vertex -4.24264 4.24264 0
      vertex -7.07107 7.07107 0
      vertex -6.08761 7.93353 0
    endloop
  endfacet
  facet normal 0 0 -1
    outer loop
      vertex -9.65926 -2.58819 0
      vertex -5.79555 -1.55291 0
      vertex -9.2388 -3.82683 0
    endloop
  endfacet
  facet normal 0 0 -1
    outer loop
      vertex -4.76012 3.65257 0
      vertex -7.93353 6.08761 0
      vertex -7.07107 7.07107 0
    endloop
  endfacet
  facet normal -0 0 -1
    outer loop
      vertex -5.79555 -1.55291 0
      vertex -9.65926 -2.58819 0
      vertex -5.94867 -0.783156 0
    endloop
  endfacet
  facet normal 0 0 -1
    outer loop
      vertex -5.19615 3 0
      vertex -8.66025 5 0
      vertex -7.93353 6.08761 0
    endloop
  endfacet
  facet normal 0 0 -1
    outer loop
      vertex -9.91445 -1.30526 0
      vertex -5.94867 -0.783156 0
      vertex -9.65926 -2.58819 0
    endloop
  endfacet
  facet normal 0 0 -1
    outer loop
      vertex -5.54328 2.2961 0
      vertex -9.2388 3.82683 0
      vertex -8.66025 5 0
    endloop
  endfacet
  facet normal -0 0 -1
    outer loop
      vertex -5.94867 -0.783156 0
      vertex -9.91445 -1.30526 0
      vertex -6 0 0
    endloop
  endfacet
  facet normal 0 0 -1
    outer loop
      vertex -5.79555 1.55291 0
      vertex -9.65926 2.58819 0
      vertex -9.2388 3.82683 0
    endloop
  endfacet
  facet normal 0 0 -1
    outer loop
      vertex -10 0 0
      vertex -6 0 0
      vertex -9.91445 -1.30526 0
    endloop
  endfacet
  facet normal 0 0 -1
    outer loop
      vertex -5.94867 0.783156 0
      vertex -9.91445 1.30526 0
      vertex -9.65926 2.58819 0
    endloop
  endfacet
  facet normal 0 0 -1
    outer loop
      vertex -6 0 0
      vertex -10 0 0
      vertex -9.91445 1.30526 0
    endloop
  endfacet
  facet normal 0.0654022 0.997859 -0
    outer loop
      vertex 1.30526 9.91445 0
      vertex 0 10 1.2
      vertex 1.30526 9.91445 1.2
    endloop
  endfacet
  facet normal 0.0654022 0.997859 0
    outer loop
      vertex 0 10 1.2
      vertex 1.30526 9.91445 0
      vertex 0 10 0
    endloop
  endfacet
  facet normal 0.831469 0.555571 0
    outer loop
      vertex 8.66025 5 1.2
      vertex 7.93353 6.08761 0
      vertex 7.93353 6.08761 1.2
    endloop
  endfacet
  facet normal 0.831469 0.555571 0
    outer loop
      vertex 7.93353 6.08761 0
      vertex 8.66025 5 1.2
      vertex 8.66025 5 0
    endloop
  endfacet
  facet normal -0.896871 -0.442293 0
    outer loop
      vertex -8.66025 -5 0
      vertex -9.2388 -3.82683 1.2
      vertex -9.2388 -3.82683 0
    endloop
  endfacet
  facet normal -0.896871 -0.442293 0
    outer loop
      vertex -9.2388 -3.82683 1.2
      vertex -8.66025 -5 0
      vertex -8.66025 -5 1.2
    endloop
  endfacet
  facet normal 0.831469 -0.555571 0
    outer loop
      vertex 7.93353 -6.08761 1.2
      vertex 8.66025 -5 0
      vertex 8.66025 -5 1.2
    endloop
  endfacet
  facet normal 0.831469 -0.555571 0
    outer loop
      vertex 8.66025 -5 0
      vertex 7.93353 -6.08761 1.2
      vertex 7.93353 -6.08761 0
    endloop
  endfacet
  facet normal -0.0654022 -0.997859 0
    outer loop
      vertex -1.30526 -9.91445 0
      vertex 0 -10 1.2
      vertex -1.30526 -9.91445 1.2
    endloop
  endfacet
  facet normal -0.0654022 -0.997859 -0
    outer loop
      vertex 0 -10 1.2
      vertex -1.30526 -9.91445 0
      vertex 0 -10 0
    endloop
  endfacet
  facet normal -0.980785 0.19509 0
    outer loop
      vertex -9.91445 1.30526 0
      vertex -9.65926 2.58819 1.2
      vertex -9.65926 2.58819 0
    endloop
  endfacet
  facet normal -0.980785 0.19509 0
    outer loop
      vertex -9.65926 2.58819 1.2
      vertex -9.91445 1.30526 0
      vertex -9.91445 1.30526 1.2
    endloop
  endfacet
  facet normal -0.555571 -0.831469 0
    outer loop
      vertex -6.08761 -7.93353 0
      vertex -5 -8.66025 1.2
      vertex -6.08761 -7.93353 1.2
    endloop
  endfacet
  facet normal -0.555571 -0.831469 -0
    outer loop
      vertex -5 -8.66025 1.2
      vertex -6.08761 -7.93353 0
      vertex -5 -8.66025 0
    endloop
  endfacet
  facet normal -0.19509 -0.980785 0
    outer loop
      vertex -2.58819 -9.65926 0
      vertex -1.30526 -9.91445 1.2
      vertex -2.58819 -9.65926 1.2
    endloop
  endfacet
  facet normal -0.19509 -0.980785 -0
    outer loop
      vertex -1.30526 -9.91445 1.2
      vertex -2.58819 -9.65926 0
      vertex -1.30526 -9.91445 0
    endloop
  endfacet
  facet normal -0.980785 -0.19509 0
    outer loop
      vertex -9.65926 -2.58819 0
      vertex -9.91445 -1.30526 1.2
      vertex -9.91445 -1.30526 0
    endloop
  endfacet
  facet normal -0.980785 -0.19509 0
    outer loop
      vertex -9.91445 -1.30526 1.2
      vertex -9.65926 -2.58819 0
      vertex -9.65926 -2.58819 1.2
    endloop
  endfacet
  facet normal 0.555571 -0.831469 0
    outer loop
      vertex 5 -8.66025 0
      vertex 6.08761 -7.93353 1.2
      vertex 5 -8.66025 1.2
    endloop
  endfacet
  facet normal 0.555571 -0.831469 0
    outer loop
      vertex 6.08761 -7.93353 1.2
      vertex 5 -8.66025 0
      vertex 6.08761 -7.93353 0
    endloop
  endfacet
  facet normal -0.997859 0.0654022 0
    outer loop
      vertex -10 0 0
      vertex -9.91445 1.30526 1.2
      vertex -9.91445 1.30526 0
    endloop
  endfacet
  facet normal -0.997859 0.0654022 0
    outer loop
      vertex -9.91445 1.30526 1.2
      vertex -10 0 0
      vertex -10 0 1.2
    endloop
  endfacet
  facet normal -0.831469 0.555571 0
    outer loop
      vertex -8.66025 5 0
      vertex -7.93353 6.08761 1.2
      vertex -7.93353 6.08761 0
    endloop
  endfacet
  facet normal -0.831469 0.555571 0
    outer loop
      vertex -7.93353 6.08761 1.2
      vertex -8.66025 5 0
      vertex -8.66025 5 1.2
    endloop
  endfacet
  facet normal 0.659351 -0.751835 0
    outer loop
      vertex 4.99184 -6.5055 1.2
      vertex 5.79827 -5.79827 3.8
      vertex 4.99184 -6.5055 3.8
    endloop
  endfacet
  facet normal 0.659351 -0.751835 0
    outer loop
      vertex 5.79827 -5.79827 3.8
      vertex 4.99184 -6.5055 1.2
      vertex 5.79827 -5.79827 1.2
    endloop
  endfacet
  facet normal 0.980785 0.195092 0
    outer loop
      vertex 8.12985 1.07031 3.8
      vertex 7.92059 2.12232 1.2
      vertex 7.92059 2.12232 3.8
    endloop
  endfacet
  facet normal 0.980785 0.195092 0
    outer loop
      vertex 7.92059 2.12232 1.2
      vertex 8.12985 1.07031 3.8
      vertex 8.12985 1.07031 1.2
    endloop
  endfacet
  facet normal 0.997859 0.0654014 0
    outer loop
      vertex 8.2 0 3.8
      vertex 8.12985 1.07031 1.2
      vertex 8.12985 1.07031 3.8
    endloop
  endfacet
  facet normal 0.997859 0.0654014 0
    outer loop
      vertex 8.12985 1.07031 1.2
      vertex 8.2 0 3.8
      vertex 8.2 0 1.2
    endloop
  endfacet
  facet normal 0.321442 0.946929 -0
    outer loop
      vertex 3.138 7.57581 1.2
      vertex 2.12232 7.92059 3.8
      vertex 3.138 7.57581 3.8
    endloop
  endfacet
  facet normal 0.321442 0.946929 0
    outer loop
      vertex 2.12232 7.92059 3.8
      vertex 3.138 7.57581 1.2
      vertex 2.12232 7.92059 1.2
    endloop
  endfacet
  facet normal 0.555571 -0.831469 0
    outer loop
      vertex 4.1 -7.10141 1.2
      vertex 4.99184 -6.5055 3.8
      vertex 4.1 -7.10141 3.8
    endloop
  endfacet
  facet normal 0.555571 -0.831469 0
    outer loop
      vertex 4.99184 -6.5055 3.8
      vertex 4.1 -7.10141 1.2
      vertex 4.99184 -6.5055 1.2
    endloop
  endfacet
  facet normal -0.997859 -0.0654014 0
    outer loop
      vertex -8.12985 -1.07031 1.2
      vertex -8.2 0 3.8
      vertex -8.2 0 1.2
    endloop
  endfacet
  facet normal -0.997859 -0.0654014 0
    outer loop
      vertex -8.2 0 3.8
      vertex -8.12985 -1.07031 1.2
      vertex -8.12985 -1.07031 3.8
    endloop
  endfacet
  facet normal -0.896875 0.442284 0
    outer loop
      vertex -7.57581 3.138 1.2
      vertex -7.10141 4.1 3.8
      vertex -7.10141 4.1 1.2
    endloop
  endfacet
  facet normal -0.896875 0.442284 0
    outer loop
      vertex -7.10141 4.1 3.8
      vertex -7.57581 3.138 1.2
      vertex -7.57581 3.138 3.8
    endloop
  endfacet
  facet normal -0.980785 0.195092 0
    outer loop
      vertex -8.12985 1.07031 1.2
      vertex -7.92059 2.12232 3.8
      vertex -7.92059 2.12232 1.2
    endloop
  endfacet
  facet normal -0.980785 0.195092 0
    outer loop
      vertex -7.92059 2.12232 3.8
      vertex -8.12985 1.07031 1.2
      vertex -8.12985 1.07031 3.8
    endloop
  endfacet
  facet normal 0.0654014 0.997859 -0
    outer loop
      vertex 1.07031 8.12985 1.2
      vertex 0 8.2 3.8
      vertex 1.07031 8.12985 3.8
    endloop
  endfacet
  facet normal 0.0654014 0.997859 0
    outer loop
      vertex 0 8.2 3.8
      vertex 1.07031 8.12985 1.2
      vertex 0 8.2 1.2
    endloop
  endfacet
  facet normal -0.321442 0.946929 0
    outer loop
      vertex -2.12232 7.92059 1.2
      vertex -3.138 7.57581 3.8
      vertex -2.12232 7.92059 3.8
    endloop
  endfacet
  facet normal -0.321442 0.946929 0
    outer loop
      vertex -3.138 7.57581 3.8
      vertex -2.12232 7.92059 1.2
      vertex -3.138 7.57581 1.2
    endloop
  endfacet
  facet normal -0.442284 0.896875 0
    outer loop
      vertex -3.138 7.57581 1.2
      vertex -4.1 7.10141 3.8
      vertex -3.138 7.57581 3.8
    endloop
  endfacet
  facet normal -0.442284 0.896875 0
    outer loop
      vertex -4.1 7.10141 3.8
      vertex -3.138 7.57581 1.2
      vertex -4.1 7.10141 1.2
    endloop
  endfacet
  facet normal 0.997859 -0.0654014 0
    outer loop
      vertex 8.12985 -1.07031 3.8
      vertex 8.2 0 1.2
      vertex 8.2 0 3.8
    endloop
  endfacet
  facet normal 0.997859 -0.0654014 0
    outer loop
      vertex 8.2 0 1.2
      vertex 8.12985 -1.07031 3.8
      vertex 8.12985 -1.07031 1.2
    endloop
  endfacet
  facet normal -0.946929 0.321442 0
    outer loop
      vertex -7.92059 2.12232 1.2
      vertex -7.57581 3.138 3.8
      vertex -7.57581 3.138 1.2
    endloop
  endfacet
  facet normal -0.946929 0.321442 0
    outer loop
      vertex -7.57581 3.138 3.8
      vertex -7.92059 2.12232 1.2
      vertex -7.92059 2.12232 3.8
    endloop
  endfacet
  facet normal 0.751835 0.659351 0
    outer loop
      vertex 6.5055 4.99184 3.8
      vertex 5.79827 5.79827 1.2
      vertex 5.79827 5.79827 3.8
    endloop
  endfacet
  facet normal 0.751835 0.659351 0
    outer loop
      vertex 5.79827 5.79827 1.2
      vertex 6.5055 4.99184 3.8
      vertex 6.5055 4.99184 1.2
    endloop
  endfacet
  facet normal -0.659351 0.751835 0
    outer loop
      vertex -4.99184 6.5055 1.2
      vertex -5.79827 5.79827 3.8
      vertex -4.99184 6.5055 3.8
    endloop
  endfacet
  facet normal -0.659351 0.751835 0
    outer loop
      vertex -5.79827 5.79827 3.8
      vertex -4.99184 6.5055 1.2
      vertex -5.79827 5.79827 1.2
    endloop
  endfacet
  facet normal -0.946929 -0.321442 0
    outer loop
      vertex -7.57581 -3.138 1.2
      vertex -7.92059 -2.12232 3.8
      vertex -7.92059 -2.12232 1.2
    endloop
  endfacet
  facet normal -0.946929 -0.321442 0
    outer loop
      vertex -7.92059 -2.12232 3.8
      vertex -7.57581 -3.138 1.2
      vertex -7.57581 -3.138 3.8
    endloop
  endfacet
  facet normal -0.555571 0.831469 0
    outer loop
      vertex -4.1 7.10141 1.2
      vertex -4.99184 6.5055 3.8
      vertex -4.1 7.10141 3.8
    endloop
  endfacet
  facet normal -0.555571 0.831469 0
    outer loop
      vertex -4.99184 6.5055 3.8
      vertex -4.1 7.10141 1.2
      vertex -4.99184 6.5055 1.2
    endloop
  endfacet
  facet normal -0.831469 -0.555571 0
    outer loop
      vertex -6.5055 -4.99184 1.2
      vertex -7.10141 -4.1 3.8
      vertex -7.10141 -4.1 1.2
    endloop
  endfacet
  facet normal -0.831469 -0.555571 0
    outer loop
      vertex -7.10141 -4.1 3.8
      vertex -6.5055 -4.99184 1.2
      vertex -6.5055 -4.99184 3.8
    endloop
  endfacet
  facet normal 0.659351 0.751835 -0
    outer loop
      vertex 5.79827 5.79827 1.2
      vertex 4.99184 6.5055 3.8
      vertex 5.79827 5.79827 3.8
    endloop
  endfacet
  facet normal 0.659351 0.751835 0
    outer loop
      vertex 4.99184 6.5055 3.8
      vertex 5.79827 5.79827 1.2
      vertex 4.99184 6.5055 1.2
    endloop
  endfacet
  facet normal -0.659351 -0.751835 0
    outer loop
      vertex -5.79827 -5.79827 1.2
      vertex -4.99184 -6.5055 3.8
      vertex -5.79827 -5.79827 3.8
    endloop
  endfacet
  facet normal -0.659351 -0.751835 -0
    outer loop
      vertex -4.99184 -6.5055 3.8
      vertex -5.79827 -5.79827 1.2
      vertex -4.99184 -6.5055 1.2
    endloop
  endfacet
  facet normal 0.195092 0.980785 -0
    outer loop
      vertex 2.12232 7.92059 1.2
      vertex 1.07031 8.12985 3.8
      vertex 2.12232 7.92059 3.8
    endloop
  endfacet
  facet normal 0.195092 0.980785 0
    outer loop
      vertex 1.07031 8.12985 3.8
      vertex 2.12232 7.92059 1.2
      vertex 1.07031 8.12985 1.2
    endloop
  endfacet
  facet normal 0.831469 -0.555571 0
    outer loop
      vertex 6.5055 -4.99184 3.8
      vertex 7.10141 -4.1 1.2
      vertex 7.10141 -4.1 3.8
    endloop
  endfacet
  facet normal 0.831469 -0.555571 0
    outer loop
      vertex 7.10141 -4.1 1.2
      vertex 6.5055 -4.99184 3.8
      vertex 6.5055 -4.99184 1.2
    endloop
  endfacet
  facet normal 0.831469 0.555571 0
    outer loop
      vertex 7.10141 4.1 3.8
      vertex 6.5055 4.99184 1.2
      vertex 6.5055 4.99184 3.8
    endloop
  endfacet
  facet normal 0.831469 0.555571 0
    outer loop
      vertex 6.5055 4.99184 1.2
      vertex 7.10141 4.1 3.8
      vertex 7.10141 4.1 1.2
    endloop
  endfacet
  facet normal -0.442284 -0.896875 0
    outer loop
      vertex -4.1 -7.10141 1.2
      vertex -3.138 -7.57581 3.8
      vertex -4.1 -7.10141 3.8
    endloop
  endfacet
  facet normal -0.442284 -0.896875 -0
    outer loop
      vertex -3.138 -7.57581 3.8
      vertex -4.1 -7.10141 1.2
      vertex -3.138 -7.57581 1.2
    endloop
  endfacet
  facet normal -0.997859 0.0654014 0
    outer loop
      vertex -8.2 0 1.2
      vertex -8.12985 1.07031 3.8
      vertex -8.12985 1.07031 1.2
    endloop
  endfacet
  facet normal -0.997859 0.0654014 0
    outer loop
      vertex -8.12985 1.07031 3.8
      vertex -8.2 0 1.2
      vertex -8.2 0 3.8
    endloop
  endfacet
  facet normal -0.751835 -0.659351 0
    outer loop
      vertex -5.79827 -5.79827 1.2
      vertex -6.5055 -4.99184 3.8
      vertex -6.5055 -4.99184 1.2
    endloop
  endfacet
  facet normal -0.751835 -0.659351 0
    outer loop
      vertex -6.5055 -4.99184 3.8
      vertex -5.79827 -5.79827 1.2
      vertex -5.79827 -5.79827 3.8
    endloop
  endfacet
  facet normal 0.946929 0.321442 0
    outer loop
      vertex 7.92059 2.12232 3.8
      vertex 7.57581 3.138 1.2
      vertex 7.57581 3.138 3.8
    endloop
  endfacet
  facet normal 0.946929 0.321442 0
    outer loop
      vertex 7.57581 3.138 1.2
      vertex 7.92059 2.12232 3.8
      vertex 7.92059 2.12232 1.2
    endloop
  endfacet
  facet normal 0.195092 -0.980785 0
    outer loop
      vertex 1.07031 -8.12985 1.2
      vertex 2.12232 -7.92059 3.8
      vertex 1.07031 -8.12985 3.8
    endloop
  endfacet
  facet normal 0.195092 -0.980785 0
    outer loop
      vertex 2.12232 -7.92059 3.8
      vertex 1.07031 -8.12985 1.2
      vertex 2.12232 -7.92059 1.2
    endloop
  endfacet
  facet normal 0.442284 0.896875 -0
    outer loop
      vertex 4.1 7.10141 1.2
      vertex 3.138 7.57581 3.8
      vertex 4.1 7.10141 3.8
    endloop
  endfacet
  facet normal 0.442284 0.896875 0
    outer loop
      vertex 3.138 7.57581 3.8
      vertex 4.1 7.10141 1.2
      vertex 3.138 7.57581 1.2
    endloop
  endfacet
  facet normal 0.321442 -0.946929 0
    outer loop
      vertex 2.12232 -7.92059 1.2
      vertex 3.138 -7.57581 3.8
      vertex 2.12232 -7.92059 3.8
    endloop
  endfacet
  facet normal 0.321442 -0.946929 0
    outer loop
      vertex 3.138 -7.57581 3.8
      vertex 2.12232 -7.92059 1.2
      vertex 3.138 -7.57581 1.2
    endloop
  endfacet
  facet normal 0.555571 0.831469 -0
    outer loop
      vertex 4.99184 6.5055 1.2
      vertex 4.1 7.10141 3.8
      vertex 4.99184 6.5055 3.8
    endloop
  endfacet
  facet normal 0.555571 0.831469 0
    outer loop
      vertex 4.1 7.10141 3.8
      vertex 4.99184 6.5055 1.2
      vertex 4.1 7.10141 1.2
    endloop
  endfacet
  facet normal 0.0654014 -0.997859 0
    outer loop
      vertex 0 -8.2 1.2
      vertex 1.07031 -8.12985 3.8
      vertex 0 -8.2 3.8
    endloop
  endfacet
  facet normal 0.0654014 -0.997859 0
    outer loop
      vertex 1.07031 -8.12985 3.8
      vertex 0 -8.2 1.2
      vertex 1.07031 -8.12985 1.2
    endloop
  endfacet
  facet normal 0.896875 0.442284 0
    outer loop
      vertex 7.57581 3.138 3.8
      vertex 7.10141 4.1 1.2
      vertex 7.10141 4.1 3.8
    endloop
  endfacet
  facet normal 0.896875 0.442284 0
    outer loop
      vertex 7.10141 4.1 1.2
      vertex 7.57581 3.138 3.8
      vertex 7.57581 3.138 1.2
    endloop
  endfacet
  facet normal -0.896875 -0.442284 0
    outer loop
      vertex -7.10141 -4.1 1.2
      vertex -7.57581 -3.138 3.8
      vertex -7.57581 -3.138 1.2
    endloop
  endfacet
  facet normal -0.896875 -0.442284 0
    outer loop
      vertex -7.57581 -3.138 3.8
      vertex -7.10141 -4.1 1.2
      vertex -7.10141 -4.1 3.8
    endloop
  endfacet
  facet normal -0.980785 -0.195092 0
    outer loop
      vertex -7.92059 -2.12232 1.2
      vertex -8.12985 -1.07031 3.8
      vertex -8.12985 -1.07031 1.2
    endloop
  endfacet
  facet normal -0.980785 -0.195092 0
    outer loop
      vertex -8.12985 -1.07031 3.8
      vertex -7.92059 -2.12232 1.2
      vertex -7.92059 -2.12232 3.8
    endloop
  endfacet
  facet normal 0 0 1
    outer loop
      vertex 6 0 3.8
      vertex 8.2 0 3.8
      vertex 8.12985 1.07031 3.8
    endloop
  endfacet
  facet normal 0 0 1
    outer loop
      vertex 5.94867 0.783156 3.8
      vertex 8.12985 1.07031 3.8
      vertex 7.92059 2.12232 3.8
    endloop
  endfacet
  facet normal 0 0 1
    outer loop
      vertex 8.2 0 3.8
      vertex 6 0 3.8
      vertex 8.12985 -1.07031 3.8
    endloop
  endfacet
  facet normal 0 0 1
    outer loop
      vertex 5.79555 1.55291 3.8
      vertex 7.92059 2.12232 3.8
      vertex 7.57581 3.138 3.8
    endloop
  endfacet
  facet normal -0 0 1
    outer loop
      vertex 5.94867 -0.783156 3.8
      vertex 8.12985 -1.07031 3.8
      vertex 6 0 3.8
    endloop
  endfacet
  facet normal 0 0 1
    outer loop
      vertex 5.54328 2.2961 3.8
      vertex 7.57581 3.138 3.8
      vertex 7.10141 4.1 3.8
    endloop
  endfacet
  facet normal 0 0 1
    outer loop
      vertex 8.12985 -1.07031 3.8
      vertex 5.94867 -0.783156 3.8
      vertex 7.92059 -2.12232 3.8
    endloop
  endfacet
  facet normal 0 0 1
    outer loop
      vertex 5.19615 3 3.8
      vertex 7.10141 4.1 3.8
      vertex 6.5055 4.99184 3.8
    endloop
  endfacet
  facet normal -0 0 1
    outer loop
      vertex 5.79555 -1.55291 3.8
      vertex 7.92059 -2.12232 3.8
      vertex 5.94867 -0.783156 3.8
    endloop
  endfacet
  facet normal 0 0 1
    outer loop
      vertex 7.92059 -2.12232 3.8
      vertex 5.79555 -1.55291 3.8
      vertex 7.57581 -3.138 3.8
    endloop
  endfacet
  facet normal 0 0 1
    outer loop
      vertex 8.12985 1.07031 3.8
      vertex 5.94867 0.783156 3.8
      vertex 6 0 3.8
    endloop
  endfacet
  facet normal 0 0 1
    outer loop
      vertex 4.76012 3.65257 3.8
      vertex 6.5055 4.99184 3.8
      vertex 5.79827 5.79827 3.8
    endloop
  endfacet
  facet normal 0 0 1
    outer loop
      vertex 7.92059 2.12232 3.8
      vertex 5.79555 1.55291 3.8
      vertex 5.94867 0.783156 3.8
    endloop
  endfacet
  facet normal 0 0 1
    outer loop
      vertex 7.57581 3.138 3.8
      vertex 5.54328 2.2961 3.8
      vertex 5.79555 1.55291 3.8
    endloop
  endfacet
  facet normal 0 0 1
    outer loop
      vertex 7.10141 4.1 3.8
      vertex 5.19615 3 3.8
      vertex 5.54328 2.2961 3.8
    endloop
  endfacet
  facet normal 0 0 1
    outer loop
      vertex 4.24264 4.24264 3.8
      vertex 5.79827 5.79827 3.8
      vertex 4.99184 6.5055 3.8
    endloop
  endfacet
  facet normal 0 0 1
    outer loop
      vertex 6.5055 4.99184 3.8
      vertex 4.76012 3.65257 3.8
      vertex 5.19615 3 3.8
    endloop
  endfacet
  facet normal 0 0 1
    outer loop
      vertex 5.79827 5.79827 3.8
      vertex 4.24264 4.24264 3.8
      vertex 4.76012 3.65257 3.8
    endloop
  endfacet
  facet normal 0 0 1
    outer loop
      vertex 3.65257 4.76012 3.8
      vertex 4.99184 6.5055 3.8
      vertex 4.1 7.10141 3.8
    endloop
  endfacet
  facet normal 0 0 1
    outer loop
      vertex 4.99184 6.5055 3.8
      vertex 3.65257 4.76012 3.8
      vertex 4.24264 4.24264 3.8
    endloop
  endfacet
  facet normal 0 0 1
    outer loop
      vertex 3 5.19615 3.8
      vertex 4.1 7.10141 3.8
      vertex 3.138 7.57581 3.8
    endloop
  endfacet
  facet normal 0 0 1
    outer loop
      vertex 4.1 7.10141 3.8
      vertex 3 5.19615 3.8
      vertex 3.65257 4.76012 3.8
    endloop
  endfacet
  facet normal 0 0 1
    outer loop
      vertex 3.138 7.57581 3.8
      vertex 2.2961 5.54328 3.8
      vertex 3 5.19615 3.8
    endloop
  endfacet
  facet normal 0 0 1
    outer loop
      vertex 2.12232 7.92059 3.8
      vertex 2.2961 5.54328 3.8
      vertex 3.138 7.57581 3.8
    endloop
  endfacet
  facet normal 0 0 1
    outer loop
      vertex 2.12232 7.92059 3.8
      vertex 1.55291 5.79555 3.8
      vertex 2.2961 5.54328 3.8
    endloop
  endfacet
  facet normal 0 0 1
    outer loop
      vertex 1.07031 8.12985 3.8
      vertex 1.55291 5.79555 3.8
      vertex 2.12232 7.92059 3.8
    endloop
  endfacet
  facet normal 0 0 1
    outer loop
      vertex 1.07031 8.12985 3.8
      vertex 0.783156 5.94867 3.8
      vertex 1.55291 5.79555 3.8
    endloop
  endfacet
  facet normal 0 0 1
    outer loop
      vertex 0 8.2 3.8
      vertex 0.783156 5.94867 3.8
      vertex 1.07031 8.12985 3.8
    endloop
  endfacet
  facet normal 0 0 1
    outer loop
      vertex 0 8.2 3.8
      vertex 0 6 3.8
      vertex 0.783156 5.94867 3.8
    endloop
  endfacet
  facet normal 0 0 1
    outer loop
      vertex 0 8.2 3.8
      vertex -0.783156 5.94867 3.8
      vertex 0 6 3.8
    endloop
  endfacet
  facet normal -0 0 1
    outer loop
      vertex -1.07031 8.12985 3.8
      vertex -0.783156 5.94867 3.8
      vertex 0 8.2 3.8
    endloop
  endfacet
  facet normal 0 0 1
    outer loop
      vertex -1.07031 8.12985 3.8
      vertex -1.55291 5.79555 3.8
      vertex -0.783156 5.94867 3.8
    endloop
  endfacet
  facet normal -0 0 1
    outer loop
      vertex -2.12232 7.92059 3.8
      vertex -1.55291 5.79555 3.8
      vertex -1.07031 8.12985 3.8
    endloop
  endfacet
  facet normal 0 0 1
    outer loop
      vertex -2.12232 7.92059 3.8
      vertex -2.2961 5.54328 3.8
      vertex -1.55291 5.79555 3.8
    endloop
  endfacet
  facet normal -0 0 1
    outer loop
      vertex -3.138 7.57581 3.8
      vertex -2.2961 5.54328 3.8
      vertex -2.12232 7.92059 3.8
    endloop
  endfacet
  facet normal 0 0 1
    outer loop
      vertex -2.2961 5.54328 3.8
      vertex -3.138 7.57581 3.8
      vertex -3 5.19615 3.8
    endloop
  endfacet
  facet normal -0 0 1
    outer loop
      vertex -4.1 7.10141 3.8
      vertex -3 5.19615 3.8
      vertex -3.138 7.57581 3.8
    endloop
  endfacet
  facet normal 0 0 1
    outer loop
      vertex -3 5.19615 3.8
      vertex -4.1 7.10141 3.8
      vertex -3.65257 4.76012 3.8
    endloop
  endfacet
  facet normal -0 0 1
    outer loop
      vertex -4.99184 6.5055 3.8
      vertex -3.65257 4.76012 3.8
      vertex -4.1 7.10141 3.8
    endloop
  endfacet
  facet normal 0 0 1
    outer loop
      vertex -3.65257 4.76012 3.8
      vertex -4.99184 6.5055 3.8
      vertex -4.24264 4.24264 3.8
    endloop
  endfacet
  facet normal -0 0 1
    outer loop
      vertex -5.79827 5.79827 3.8
      vertex -4.24264 4.24264 3.8
      vertex -4.99184 6.5055 3.8
    endloop
  endfacet
  facet normal 0 0 1
    outer loop
      vertex -4.24264 4.24264 3.8
      vertex -5.79827 5.79827 3.8
      vertex -4.76012 3.65257 3.8
    endloop
  endfacet
  facet normal -0 0 1
    outer loop
      vertex -6.5055 4.99184 3.8
      vertex -4.76012 3.65257 3.8
      vertex -5.79827 5.79827 3.8
    endloop
  endfacet
  facet normal 0 0 1
    outer loop
      vertex -4.76012 3.65257 3.8
      vertex -6.5055 4.99184 3.8
      vertex -5.19615 3 3.8
    endloop
  endfacet
  facet normal -0 0 1
    outer loop
      vertex -7.10141 4.1 3.8
      vertex -5.19615 3 3.8
      vertex -6.5055 4.99184 3.8
    endloop
  endfacet
  facet normal 0 0 1
    outer loop
      vertex -5.19615 3 3.8
      vertex -7.10141 4.1 3.8
      vertex -5.54328 2.2961 3.8
    endloop
  endfacet
  facet normal -0 0 1
    outer loop
      vertex -7.57581 3.138 3.8
      vertex -5.54328 2.2961 3.8
      vertex -7.10141 4.1 3.8
    endloop
  endfacet
  facet normal 0 0 1
    outer loop
      vertex -5.54328 2.2961 3.8
      vertex -7.57581 3.138 3.8
      vertex -5.79555 1.55291 3.8
    endloop
  endfacet
  facet normal -0 0 1
    outer loop
      vertex 5.54328 -2.2961 3.8
      vertex 7.57581 -3.138 3.8
      vertex 5.79555 -1.55291 3.8
    endloop
  endfacet
  facet normal 0 0 1
    outer loop
      vertex 7.57581 -3.138 3.8
      vertex 5.54328 -2.2961 3.8
      vertex 7.10141 -4.1 3.8
    endloop
  endfacet
  facet normal -0 0 1
    outer loop
      vertex 5.19615 -3 3.8
      vertex 7.10141 -4.1 3.8
      vertex 5.54328 -2.2961 3.8
    endloop
  endfacet
  facet normal 0 0 1
    outer loop
      vertex 7.10141 -4.1 3.8
      vertex 5.19615 -3 3.8
      vertex 6.5055 -4.99184 3.8
    endloop
  endfacet
  facet normal -0 0 1
    outer loop
      vertex 4.76012 -3.65257 3.8
      vertex 6.5055 -4.99184 3.8
      vertex 5.19615 -3 3.8
    endloop
  endfacet
  facet normal 0 0 1
    outer loop
      vertex 6.5055 -4.99184 3.8
      vertex 4.76012 -3.65257 3.8
      vertex 5.79827 -5.79827 3.8
    endloop
  endfacet
  facet normal -0 0 1
    outer loop
      vertex 4.24264 -4.24264 3.8
      vertex 5.79827 -5.79827 3.8
      vertex 4.76012 -3.65257 3.8
    endloop
  endfacet
  facet normal 0 0 1
    outer loop
      vertex 5.79827 -5.79827 3.8
      vertex 4.24264 -4.24264 3.8
      vertex 4.99184 -6.5055 3.8
    endloop
  endfacet
  facet normal -0 0 1
    outer loop
      vertex 3.65257 -4.76012 3.8
      vertex 4.99184 -6.5055 3.8
      vertex 4.24264 -4.24264 3.8
    endloop
  endfacet
  facet normal 0 0 1
    outer loop
      vertex 4.99184 -6.5055 3.8
      vertex 3.65257 -4.76012 3.8
      vertex 4.1 -7.10141 3.8
    endloop
  endfacet
  facet normal -0 0 1
    outer loop
      vertex 3 -5.19615 3.8
      vertex 4.1 -7.10141 3.8
      vertex 3.65257 -4.76012 3.8
    endloop
  endfacet
  facet normal 0 0 1
    outer loop
      vertex 4.1 -7.10141 3.8
      vertex 3 -5.19615 3.8
      vertex 3.138 -7.57581 3.8
    endloop
  endfacet
  facet normal -0 0 1
    outer loop
      vertex 2.2961 -5.54328 3.8
      vertex 3.138 -7.57581 3.8
      vertex 3 -5.19615 3.8
    endloop
  endfacet
  facet normal 0 0 1
    outer loop
      vertex 2.2961 -5.54328 3.8
      vertex 2.12232 -7.92059 3.8
      vertex 3.138 -7.57581 3.8
    endloop
  endfacet
  facet normal -0 0 1
    outer loop
      vertex 1.55291 -5.79555 3.8
      vertex 2.12232 -7.92059 3.8
      vertex 2.2961 -5.54328 3.8
    endloop
  endfacet
  facet normal 0 0 1
    outer loop
      vertex 1.55291 -5.79555 3.8
      vertex 1.07031 -8.12985 3.8
      vertex 2.12232 -7.92059 3.8
    endloop
  endfacet
  facet normal -0 0 1
    outer loop
      vertex 0.783156 -5.94867 3.8
      vertex 1.07031 -8.12985 3.8
      vertex 1.55291 -5.79555 3.8
    endloop
  endfacet
  facet normal -0 0 1
    outer loop
      vertex 0 -6 3.8
      vertex 1.07031 -8.12985 3.8
      vertex 0.783156 -5.94867 3.8
    endloop
  endfacet
  facet normal 0 0 1
    outer loop
      vertex 0 -6 3.8
      vertex 0 -8.2 3.8
      vertex 1.07031 -8.12985 3.8
    endloop
  endfacet
  facet normal 0 0 1
    outer loop
      vertex -0.783156 -5.94867 3.8
      vertex 0 -8.2 3.8
      vertex 0 -6 3.8
    endloop
  endfacet
  facet normal 0 0 1
    outer loop
      vertex -0.783156 -5.94867 3.8
      vertex -1.07031 -8.12985 3.8
      vertex 0 -8.2 3.8
    endloop
  endfacet
  facet normal 0 0 1
    outer loop
      vertex -1.55291 -5.79555 3.8
      vertex -1.07031 -8.12985 3.8
      vertex -0.783156 -5.94867 3.8
    endloop
  endfacet
  facet normal 0 0 1
    outer loop
      vertex -1.55291 -5.79555 3.8
      vertex -2.12232 -7.92059 3.8
      vertex -1.07031 -8.12985 3.8
    endloop
  endfacet
  facet normal 0 0 1
    outer loop
      vertex -2.2961 -5.54328 3.8
      vertex -2.12232 -7.92059 3.8
      vertex -1.55291 -5.79555 3.8
    endloop
  endfacet
  facet normal 0 0 1
    outer loop
      vertex -3.138 -7.57581 3.8
      vertex -2.2961 -5.54328 3.8
      vertex -3 -5.19615 3.8
    endloop
  endfacet
  facet normal 0 0 1
    outer loop
      vertex -2.2961 -5.54328 3.8
      vertex -3.138 -7.57581 3.8
      vertex -2.12232 -7.92059 3.8
    endloop
  endfacet
  facet normal 0 0 1
    outer loop
      vertex -4.1 -7.10141 3.8
      vertex -3 -5.19615 3.8
      vertex -3.65257 -4.76012 3.8
    endloop
  endfacet
  facet normal 0 0 1
    outer loop
      vertex -3 -5.19615 3.8
      vertex -4.1 -7.10141 3.8
      vertex -3.138 -7.57581 3.8
    endloop
  endfacet
  facet normal 0 0 1
    outer loop
      vertex -4.99184 -6.5055 3.8
      vertex -3.65257 -4.76012 3.8
      vertex -4.24264 -4.24264 3.8
    endloop
  endfacet
  facet normal 0 0 1
    outer loop
      vertex -5.79827 -5.79827 3.8
      vertex -4.24264 -4.24264 3.8
      vertex -4.76012 -3.65257 3.8
    endloop
  endfacet
  facet normal 0 0 1
    outer loop
      vertex -3.65257 -4.76012 3.8
      vertex -4.99184 -6.5055 3.8
      vertex -4.1 -7.10141 3.8
    endloop
  endfacet
  facet normal 0 0 1
    outer loop
      vertex -6.5055 -4.99184 3.8
      vertex -4.76012 -3.65257 3.8
      vertex -5.19615 -3 3.8
    endloop
  endfacet
  facet normal 0 0 1
    outer loop
      vertex -7.10141 -4.1 3.8
      vertex -5.19615 -3 3.8
      vertex -5.54328 -2.2961 3.8
    endloop
  endfacet
  facet normal 0 0 1
    outer loop
      vertex -7.57581 -3.138 3.8
      vertex -5.54328 -2.2961 3.8
      vertex -5.79555 -1.55291 3.8
    endloop
  endfacet
  facet normal 0 0 1
    outer loop
      vertex -4.24264 -4.24264 3.8
      vertex -5.79827 -5.79827 3.8
      vertex -4.99184 -6.5055 3.8
    endloop
  endfacet
  facet normal 0 0 1
    outer loop
      vertex -7.92059 -2.12232 3.8
      vertex -5.79555 -1.55291 3.8
      vertex -5.94867 -0.783156 3.8
    endloop
  endfacet
  facet normal 0 0 1
    outer loop
      vertex -8.12985 -1.07031 3.8
      vertex -5.94867 -0.783156 3.8
      vertex -6 0 3.8
    endloop
  endfacet
  facet normal -0 0 1
    outer loop
      vertex -7.92059 2.12232 3.8
      vertex -5.79555 1.55291 3.8
      vertex -7.57581 3.138 3.8
    endloop
  endfacet
  facet normal 0 0 1
    outer loop
      vertex -4.76012 -3.65257 3.8
      vertex -6.5055 -4.99184 3.8
      vertex -5.79827 -5.79827 3.8
    endloop
  endfacet
  facet normal 0 0 1
    outer loop
      vertex -5.79555 1.55291 3.8
      vertex -7.92059 2.12232 3.8
      vertex -5.94867 0.783156 3.8
    endloop
  endfacet
  facet normal 0 0 1
    outer loop
      vertex -5.19615 -3 3.8
      vertex -7.10141 -4.1 3.8
      vertex -6.5055 -4.99184 3.8
    endloop
  endfacet
  facet normal -0 0 1
    outer loop
      vertex -8.12985 1.07031 3.8
      vertex -5.94867 0.783156 3.8
      vertex -7.92059 2.12232 3.8
    endloop
  endfacet
  facet normal 0 0 1
    outer loop
      vertex -5.54328 -2.2961 3.8
      vertex -7.57581 -3.138 3.8
      vertex -7.10141 -4.1 3.8
    endloop
  endfacet
  facet normal 0 0 1
    outer loop
      vertex -5.94867 0.783156 3.8
      vertex -8.12985 1.07031 3.8
      vertex -6 0 3.8
    endloop
  endfacet
  facet normal 0 0 1
    outer loop
      vertex -5.79555 -1.55291 3.8
      vertex -7.92059 -2.12232 3.8
      vertex -7.57581 -3.138 3.8
    endloop
  endfacet
  facet normal 0 0 1
    outer loop
      vertex -8.2 0 3.8
      vertex -6 0 3.8
      vertex -8.12985 1.07031 3.8
    endloop
  endfacet
  facet normal 0 0 1
    outer loop
      vertex -5.94867 -0.783156 3.8
      vertex -8.12985 -1.07031 3.8
      vertex -7.92059 -2.12232 3.8
    endloop
  endfacet
  facet normal 0 0 1
    outer loop
      vertex -6 0 3.8
      vertex -8.2 0 3.8
      vertex -8.12985 -1.07031 3.8
    endloop
  endfacet
  facet normal 0.896875 -0.442284 0
    outer loop
      vertex 7.10141 -4.1 3.8
      vertex 7.57581 -3.138 1.2
      vertex 7.57581 -3.138 3.8
    endloop
  endfacet
  facet normal 0.896875 -0.442284 0
    outer loop
      vertex 7.57581 -3.138 1.2
      vertex 7.10141 -4.1 3.8
      vertex 7.10141 -4.1 1.2
    endloop
  endfacet
  facet normal -0.751835 0.659351 0
    outer loop
      vertex -6.5055 4.99184 1.2
      vertex -5.79827 5.79827 3.8
      vertex -5.79827 5.79827 1.2
    endloop
  endfacet
  facet normal -0.751835 0.659351 0
    outer loop
      vertex -5.79827 5.79827 3.8
      vertex -6.5055 4.99184 1.2
      vertex -6.5055 4.99184 3.8
    endloop
  endfacet
  facet normal 0.980785 -0.195092 0
    outer loop
      vertex 7.92059 -2.12232 3.8
      vertex 8.12985 -1.07031 1.2
      vertex 8.12985 -1.07031 3.8
    endloop
  endfacet
  facet normal 0.980785 -0.195092 0
    outer loop
      vertex 8.12985 -1.07031 1.2
      vertex 7.92059 -2.12232 3.8
      vertex 7.92059 -2.12232 1.2
    endloop
  endfacet
  facet normal -0.195092 0.980785 0
    outer loop
      vertex -1.07031 8.12985 1.2
      vertex -2.12232 7.92059 3.8
      vertex -1.07031 8.12985 3.8
    endloop
  endfacet
  facet normal -0.195092 0.980785 0
    outer loop
      vertex -2.12232 7.92059 3.8
      vertex -1.07031 8.12985 1.2
      vertex -2.12232 7.92059 1.2
    endloop
  endfacet
  facet normal 0.442284 -0.896875 0
    outer loop
      vertex 3.138 -7.57581 1.2
      vertex 4.1 -7.10141 3.8
      vertex 3.138 -7.57581 3.8
    endloop
  endfacet
  facet normal 0.442284 -0.896875 0
    outer loop
      vertex 4.1 -7.10141 3.8
      vertex 3.138 -7.57581 1.2
      vertex 4.1 -7.10141 1.2
    endloop
  endfacet
  facet normal 0.946929 -0.321442 0
    outer loop
      vertex 7.57581 -3.138 3.8
      vertex 7.92059 -2.12232 1.2
      vertex 7.92059 -2.12232 3.8
    endloop
  endfacet
  facet normal 0.946929 -0.321442 0
    outer loop
      vertex 7.92059 -2.12232 1.2
      vertex 7.57581 -3.138 3.8
      vertex 7.57581 -3.138 1.2
    endloop
  endfacet
  facet normal -0.0654014 0.997859 0
    outer loop
      vertex 0 8.2 1.2
      vertex -1.07031 8.12985 3.8
      vertex 0 8.2 3.8
    endloop
  endfacet
  facet normal -0.0654014 0.997859 0
    outer loop
      vertex -1.07031 8.12985 3.8
      vertex 0 8.2 1.2
      vertex -1.07031 8.12985 1.2
    endloop
  endfacet
  facet normal -0.321442 -0.946929 0
    outer loop
      vertex -3.138 -7.57581 1.2
      vertex -2.12232 -7.92059 3.8
      vertex -3.138 -7.57581 3.8
    endloop
  endfacet
  facet normal -0.321442 -0.946929 -0
    outer loop
      vertex -2.12232 -7.92059 3.8
      vertex -3.138 -7.57581 1.2
      vertex -2.12232 -7.92059 1.2
    endloop
  endfacet
  facet normal -0.195092 -0.980785 0
    outer loop
      vertex -2.12232 -7.92059 1.2
      vertex -1.07031 -8.12985 3.8
      vertex -2.12232 -7.92059 3.8
    endloop
  endfacet
  facet normal -0.195092 -0.980785 -0
    outer loop
      vertex -1.07031 -8.12985 3.8
      vertex -2.12232 -7.92059 1.2
      vertex -1.07031 -8.12985 1.2
    endloop
  endfacet
  facet normal -0.555571 -0.831469 0
    outer loop
      vertex -4.99184 -6.5055 1.2
      vertex -4.1 -7.10141 3.8
      vertex -4.99184 -6.5055 3.8
    endloop
  endfacet
  facet normal -0.555571 -0.831469 -0
    outer loop
      vertex -4.1 -7.10141 3.8
      vertex -4.99184 -6.5055 1.2
      vertex -4.1 -7.10141 1.2
    endloop
  endfacet
  facet normal -0.0654014 -0.997859 0
    outer loop
      vertex -1.07031 -8.12985 1.2
      vertex 0 -8.2 3.8
      vertex -1.07031 -8.12985 3.8
    endloop
  endfacet
  facet normal -0.0654014 -0.997859 -0
    outer loop
      vertex 0 -8.2 3.8
      vertex -1.07031 -8.12985 1.2
      vertex 0 -8.2 1.2
    endloop
  endfacet
  facet normal -0.831469 0.555571 0
    outer loop
      vertex -7.10141 4.1 1.2
      vertex -6.5055 4.99184 3.8
      vertex -6.5055 4.99184 1.2
    endloop
  endfacet
  facet normal -0.831469 0.555571 0
    outer loop
      vertex -6.5055 4.99184 3.8
      vertex -7.10141 4.1 1.2
      vertex -7.10141 4.1 3.8
    endloop
  endfacet
  facet normal 0.751835 -0.659351 0
    outer loop
      vertex 5.79827 -5.79827 3.8
      vertex 6.5055 -4.99184 1.2
      vertex 6.5055 -4.99184 3.8
    endloop
  endfacet
  facet normal 0.751835 -0.659351 0
    outer loop
      vertex 6.5055 -4.99184 1.2
      vertex 5.79827 -5.79827 3.8
      vertex 5.79827 -5.79827 1.2
    endloop
  endfacet
  facet normal -0.980784 -0.195098 0
    outer loop
      vertex 5.94867 0.783156 0
      vertex 5.79555 1.55291 3.8
      vertex 5.79555 1.55291 0
    endloop
  endfacet
  facet normal -0.980784 -0.195098 0
    outer loop
      vertex 5.79555 1.55291 3.8
      vertex 5.94867 0.783156 0
      vertex 5.94867 0.783156 3.8
    endloop
  endfacet
  facet normal -0.997859 -0.0654022 0
    outer loop
      vertex 6 0 0
      vertex 5.94867 0.783156 3.8
      vertex 5.94867 0.783156 0
    endloop
  endfacet
  facet normal -0.997859 -0.0654022 0
    outer loop
      vertex 5.94867 0.783156 3.8
      vertex 6 0 0
      vertex 6 0 3.8
    endloop
  endfacet
  facet normal -0.946934 -0.321429 0
    outer loop
      vertex 5.79555 1.55291 0
      vertex 5.54328 2.2961 3.8
      vertex 5.54328 2.2961 0
    endloop
  endfacet
  facet normal -0.946934 -0.321429 0
    outer loop
      vertex 5.54328 2.2961 3.8
      vertex 5.79555 1.55291 0
      vertex 5.79555 1.55291 3.8
    endloop
  endfacet
  facet normal -0.831472 -0.555567 0
    outer loop
      vertex 5.19615 3 0
      vertex 4.76012 3.65257 3.8
      vertex 4.76012 3.65257 0
    endloop
  endfacet
  facet normal -0.831472 -0.555567 0
    outer loop
      vertex 4.76012 3.65257 3.8
      vertex 5.19615 3 0
      vertex 5.19615 3 3.8
    endloop
  endfacet
  facet normal 0.659348 0.751838 -0
    outer loop
      vertex -3.65257 -4.76012 0
      vertex -4.24264 -4.24264 3.8
      vertex -3.65257 -4.76012 3.8
    endloop
  endfacet
  facet normal 0.659348 0.751838 0
    outer loop
      vertex -4.24264 -4.24264 3.8
      vertex -3.65257 -4.76012 0
      vertex -4.24264 -4.24264 0
    endloop
  endfacet
  facet normal -0.751838 0.659348 0
    outer loop
      vertex 4.24264 -4.24264 0
      vertex 4.76012 -3.65257 3.8
      vertex 4.76012 -3.65257 0
    endloop
  endfacet
  facet normal -0.751838 0.659348 0
    outer loop
      vertex 4.76012 -3.65257 3.8
      vertex 4.24264 -4.24264 0
      vertex 4.24264 -4.24264 3.8
    endloop
  endfacet
  facet normal -0.659348 -0.751838 0
    outer loop
      vertex 3.65257 4.76012 0
      vertex 4.24264 4.24264 3.8
      vertex 3.65257 4.76012 3.8
    endloop
  endfacet
  facet normal -0.659348 -0.751838 -0
    outer loop
      vertex 4.24264 4.24264 3.8
      vertex 3.65257 4.76012 0
      vertex 4.24264 4.24264 0
    endloop
  endfacet
  facet normal 0.442294 -0.89687 0
    outer loop
      vertex -3 5.19615 0
      vertex -2.2961 5.54328 3.8
      vertex -3 5.19615 3.8
    endloop
  endfacet
  facet normal 0.442294 -0.89687 0
    outer loop
      vertex -2.2961 5.54328 3.8
      vertex -3 5.19615 0
      vertex -2.2961 5.54328 0
    endloop
  endfacet
  facet normal -0.442294 -0.89687 0
    outer loop
      vertex 2.2961 5.54328 0
      vertex 3 5.19615 3.8
      vertex 2.2961 5.54328 3.8
    endloop
  endfacet
  facet normal -0.442294 -0.89687 -0
    outer loop
      vertex 3 5.19615 3.8
      vertex 2.2961 5.54328 0
      vertex 3 5.19615 0
    endloop
  endfacet
  facet normal -0.89687 0.442294 0
    outer loop
      vertex 5.19615 -3 0
      vertex 5.54328 -2.2961 3.8
      vertex 5.54328 -2.2961 0
    endloop
  endfacet
  facet normal -0.89687 0.442294 0
    outer loop
      vertex 5.54328 -2.2961 3.8
      vertex 5.19615 -3 0
      vertex 5.19615 -3 3.8
    endloop
  endfacet
  facet normal -0.321429 0.946934 0
    outer loop
      vertex 2.2961 -5.54328 0
      vertex 1.55291 -5.79555 3.8
      vertex 2.2961 -5.54328 3.8
    endloop
  endfacet
  facet normal -0.321429 0.946934 0
    outer loop
      vertex 1.55291 -5.79555 3.8
      vertex 2.2961 -5.54328 0
      vertex 1.55291 -5.79555 0
    endloop
  endfacet
  facet normal -0.89687 -0.442294 0
    outer loop
      vertex 5.54328 2.2961 0
      vertex 5.19615 3 3.8
      vertex 5.19615 3 0
    endloop
  endfacet
  facet normal -0.89687 -0.442294 0
    outer loop
      vertex 5.19615 3 3.8
      vertex 5.54328 2.2961 0
      vertex 5.54328 2.2961 3.8
    endloop
  endfacet
  facet normal 0.89687 -0.442294 0
    outer loop
      vertex -5.54328 2.2961 3.8
      vertex -5.19615 3 0
      vertex -5.19615 3 3.8
    endloop
  endfacet
  facet normal 0.89687 -0.442294 0
    outer loop
      vertex -5.19615 3 0
      vertex -5.54328 2.2961 3.8
      vertex -5.54328 2.2961 0
    endloop
  endfacet
  facet normal -0.751838 -0.659348 0
    outer loop
      vertex 4.76012 3.65257 0
      vertex 4.24264 4.24264 3.8
      vertex 4.24264 4.24264 0
    endloop
  endfacet
  facet normal -0.751838 -0.659348 0
    outer loop
      vertex 4.24264 4.24264 3.8
      vertex 4.76012 3.65257 0
      vertex 4.76012 3.65257 3.8
    endloop
  endfacet
  facet normal -0.980784 0.195098 0
    outer loop
      vertex 5.79555 -1.55291 0
      vertex 5.94867 -0.783156 3.8
      vertex 5.94867 -0.783156 0
    endloop
  endfacet
  facet normal -0.980784 0.195098 0
    outer loop
      vertex 5.94867 -0.783156 3.8
      vertex 5.79555 -1.55291 0
      vertex 5.79555 -1.55291 3.8
    endloop
  endfacet
  facet normal -0.997859 0.0654022 0
    outer loop
      vertex 5.94867 -0.783156 0
      vertex 6 0 3.8
      vertex 6 0 0
    endloop
  endfacet
  facet normal -0.997859 0.0654022 0
    outer loop
      vertex 6 0 3.8
      vertex 5.94867 -0.783156 0
      vertex 5.94867 -0.783156 3.8
    endloop
  endfacet
  facet normal 0.555567 0.831472 -0
    outer loop
      vertex -3 -5.19615 0
      vertex -3.65257 -4.76012 3.8
      vertex -3 -5.19615 3.8
    endloop
  endfacet
  facet normal 0.555567 0.831472 0
    outer loop
      vertex -3.65257 -4.76012 3.8
      vertex -3 -5.19615 0
      vertex -3.65257 -4.76012 0
    endloop
  endfacet
  facet normal 0.946934 0.321429 0
    outer loop
      vertex -5.54328 -2.2961 3.8
      vertex -5.79555 -1.55291 0
      vertex -5.79555 -1.55291 3.8
    endloop
  endfacet
  facet normal 0.946934 0.321429 0
    outer loop
      vertex -5.79555 -1.55291 0
      vertex -5.54328 -2.2961 3.8
      vertex -5.54328 -2.2961 0
    endloop
  endfacet
  facet normal 0.997859 0.0654022 0
    outer loop
      vertex -5.94867 -0.783156 3.8
      vertex -6 0 0
      vertex -6 0 3.8
    endloop
  endfacet
  facet normal 0.997859 0.0654022 0
    outer loop
      vertex -6 0 0
      vertex -5.94867 -0.783156 3.8
      vertex -5.94867 -0.783156 0
    endloop
  endfacet
  facet normal 0.751838 0.659348 0
    outer loop
      vertex -4.24264 -4.24264 3.8
      vertex -4.76012 -3.65257 0
      vertex -4.76012 -3.65257 3.8
    endloop
  endfacet
  facet normal 0.751838 0.659348 0
    outer loop
      vertex -4.76012 -3.65257 0
      vertex -4.24264 -4.24264 3.8
      vertex -4.24264 -4.24264 0
    endloop
  endfacet
  facet normal 0.321429 -0.946934 0
    outer loop
      vertex -2.2961 5.54328 0
      vertex -1.55291 5.79555 3.8
      vertex -2.2961 5.54328 3.8
    endloop
  endfacet
  facet normal 0.321429 -0.946934 0
    outer loop
      vertex -1.55291 5.79555 3.8
      vertex -2.2961 5.54328 0
      vertex -1.55291 5.79555 0
    endloop
  endfacet
  facet normal -0.659348 0.751838 0
    outer loop
      vertex 4.24264 -4.24264 0
      vertex 3.65257 -4.76012 3.8
      vertex 4.24264 -4.24264 3.8
    endloop
  endfacet
  facet normal -0.659348 0.751838 0
    outer loop
      vertex 3.65257 -4.76012 3.8
      vertex 4.24264 -4.24264 0
      vertex 3.65257 -4.76012 0
    endloop
  endfacet
  facet normal -0.0654022 0.997859 0
    outer loop
      vertex 0.783156 -5.94867 0
      vertex 0 -6 3.8
      vertex 0.783156 -5.94867 3.8
    endloop
  endfacet
  facet normal -0.0654022 0.997859 0
    outer loop
      vertex 0 -6 3.8
      vertex 0.783156 -5.94867 0
      vertex 0 -6 0
    endloop
  endfacet
  facet normal -0.195098 -0.980784 0
    outer loop
      vertex 0.783156 5.94867 0
      vertex 1.55291 5.79555 3.8
      vertex 0.783156 5.94867 3.8
    endloop
  endfacet
  facet normal -0.195098 -0.980784 -0
    outer loop
      vertex 1.55291 5.79555 3.8
      vertex 0.783156 5.94867 0
      vertex 1.55291 5.79555 0
    endloop
  endfacet
  facet normal -0.321429 -0.946934 0
    outer loop
      vertex 1.55291 5.79555 0
      vertex 2.2961 5.54328 3.8
      vertex 1.55291 5.79555 3.8
    endloop
  endfacet
  facet normal -0.321429 -0.946934 -0
    outer loop
      vertex 2.2961 5.54328 3.8
      vertex 1.55291 5.79555 0
      vertex 2.2961 5.54328 0
    endloop
  endfacet
  facet normal -0.946934 0.321429 0
    outer loop
      vertex 5.54328 -2.2961 0
      vertex 5.79555 -1.55291 3.8
      vertex 5.79555 -1.55291 0
    endloop
  endfacet
  facet normal -0.946934 0.321429 0
    outer loop
      vertex 5.79555 -1.55291 3.8
      vertex 5.54328 -2.2961 0
      vertex 5.54328 -2.2961 3.8
    endloop
  endfacet
  facet normal 0.195098 -0.980784 0
    outer loop
      vertex -1.55291 5.79555 0
      vertex -0.783156 5.94867 3.8
      vertex -1.55291 5.79555 3.8
    endloop
  endfacet
  facet normal 0.195098 -0.980784 0
    outer loop
      vertex -0.783156 5.94867 3.8
      vertex -1.55291 5.79555 0
      vertex -0.783156 5.94867 0
    endloop
  endfacet
  facet normal 0.946934 -0.321429 0
    outer loop
      vertex -5.79555 1.55291 3.8
      vertex -5.54328 2.2961 0
      vertex -5.54328 2.2961 3.8
    endloop
  endfacet
  facet normal 0.946934 -0.321429 0
    outer loop
      vertex -5.54328 2.2961 0
      vertex -5.79555 1.55291 3.8
      vertex -5.79555 1.55291 0
    endloop
  endfacet
  facet normal -0.555567 -0.831472 0
    outer loop
      vertex 3 5.19615 0
      vertex 3.65257 4.76012 3.8
      vertex 3 5.19615 3.8
    endloop
  endfacet
  facet normal -0.555567 -0.831472 -0
    outer loop
      vertex 3.65257 4.76012 3.8
      vertex 3 5.19615 0
      vertex 3.65257 4.76012 0
    endloop
  endfacet
  facet normal -0.195098 0.980784 0
    outer loop
      vertex 1.55291 -5.79555 0
      vertex 0.783156 -5.94867 3.8
      vertex 1.55291 -5.79555 3.8
    endloop
  endfacet
  facet normal -0.195098 0.980784 0
    outer loop
      vertex 0.783156 -5.94867 3.8
      vertex 1.55291 -5.79555 0
      vertex 0.783156 -5.94867 0
    endloop
  endfacet
  facet normal -0.442294 0.89687 0
    outer loop
      vertex 3 -5.19615 0
      vertex 2.2961 -5.54328 3.8
      vertex 3 -5.19615 3.8
    endloop
  endfacet
  facet normal -0.442294 0.89687 0
    outer loop
      vertex 2.2961 -5.54328 3.8
      vertex 3 -5.19615 0
      vertex 2.2961 -5.54328 0
    endloop
  endfacet
  facet normal 0.442294 0.89687 -0
    outer loop
      vertex -2.2961 -5.54328 0
      vertex -3 -5.19615 3.8
      vertex -2.2961 -5.54328 3.8
    endloop
  endfacet
  facet normal 0.442294 0.89687 0
    outer loop
      vertex -3 -5.19615 3.8
      vertex -2.2961 -5.54328 0
      vertex -3 -5.19615 0
    endloop
  endfacet
  facet normal 0.751838 -0.659348 0
    outer loop
      vertex -4.76012 3.65257 3.8
      vertex -4.24264 4.24264 0
      vertex -4.24264 4.24264 3.8
    endloop
  endfacet
  facet normal 0.751838 -0.659348 0
    outer loop
      vertex -4.24264 4.24264 0
      vertex -4.76012 3.65257 3.8
      vertex -4.76012 3.65257 0
    endloop
  endfacet
  facet normal 0.89687 0.442294 0
    outer loop
      vertex -5.19615 -3 3.8
      vertex -5.54328 -2.2961 0
      vertex -5.54328 -2.2961 3.8
    endloop
  endfacet
  facet normal 0.89687 0.442294 0
    outer loop
      vertex -5.54328 -2.2961 0
      vertex -5.19615 -3 3.8
      vertex -5.19615 -3 0
    endloop
  endfacet
  facet normal 0.997859 -0.0654022 0
    outer loop
      vertex -6 0 3.8
      vertex -5.94867 0.783156 0
      vertex -5.94867 0.783156 3.8
    endloop
  endfacet
  facet normal 0.997859 -0.0654022 0
    outer loop
      vertex -5.94867 0.783156 0
      vertex -6 0 3.8
      vertex -6 0 0
    endloop
  endfacet
  facet normal 0.831472 0.555567 0
    outer loop
      vertex -4.76012 -3.65257 3.8
      vertex -5.19615 -3 0
      vertex -5.19615 -3 3.8
    endloop
  endfacet
  facet normal 0.831472 0.555567 0
    outer loop
      vertex -5.19615 -3 0
      vertex -4.76012 -3.65257 3.8
      vertex -4.76012 -3.65257 0
    endloop
  endfacet
  facet normal 0.555567 -0.831472 0
    outer loop
      vertex -3.65257 4.76012 0
      vertex -3 5.19615 3.8
      vertex -3.65257 4.76012 3.8
    endloop
  endfacet
  facet normal 0.555567 -0.831472 0
    outer loop
      vertex -3 5.19615 3.8
      vertex -3.65257 4.76012 0
      vertex -3 5.19615 0
    endloop
  endfacet
  facet normal -0.831472 0.555567 0
    outer loop
      vertex 4.76012 -3.65257 0
      vertex 5.19615 -3 3.8
      vertex 5.19615 -3 0
    endloop
  endfacet
  facet normal -0.831472 0.555567 0
    outer loop
      vertex 5.19615 -3 3.8
      vertex 4.76012 -3.65257 0
      vertex 4.76012 -3.65257 3.8
    endloop
  endfacet
  facet normal 0.0654022 0.997859 -0
    outer loop
      vertex 0 -6 0
      vertex -0.783156 -5.94867 3.8
      vertex 0 -6 3.8
    endloop
  endfacet
  facet normal 0.0654022 0.997859 0
    outer loop
      vertex -0.783156 -5.94867 3.8
      vertex 0 -6 0
      vertex -0.783156 -5.94867 0
    endloop
  endfacet
  facet normal -0.0654022 -0.997859 0
    outer loop
      vertex 0 6 0
      vertex 0.783156 5.94867 3.8
      vertex 0 6 3.8
    endloop
  endfacet
  facet normal -0.0654022 -0.997859 -0
    outer loop
      vertex 0.783156 5.94867 3.8
      vertex 0 6 0
      vertex 0.783156 5.94867 0
    endloop
  endfacet
  facet normal 0.659348 -0.751838 0
    outer loop
      vertex -4.24264 4.24264 0
      vertex -3.65257 4.76012 3.8
      vertex -4.24264 4.24264 3.8
    endloop
  endfacet
  facet normal 0.659348 -0.751838 0
    outer loop
      vertex -3.65257 4.76012 3.8
      vertex -4.24264 4.24264 0
      vertex -3.65257 4.76012 0
    endloop
  endfacet
  facet normal -0.555567 0.831472 0
    outer loop
      vertex 3.65257 -4.76012 0
      vertex 3 -5.19615 3.8
      vertex 3.65257 -4.76012 3.8
    endloop
  endfacet
  facet normal -0.555567 0.831472 0
    outer loop
      vertex 3 -5.19615 3.8
      vertex 3.65257 -4.76012 0
      vertex 3 -5.19615 0
    endloop
  endfacet
  facet normal 0.980784 -0.195098 0
    outer loop
      vertex -5.94867 0.783156 3.8
      vertex -5.79555 1.55291 0
      vertex -5.79555 1.55291 3.8
    endloop
  endfacet
  facet normal 0.980784 -0.195098 0
    outer loop
      vertex -5.79555 1.55291 0
      vertex -5.94867 0.783156 3.8
      vertex -5.94867 0.783156 0
    endloop
  endfacet
  facet normal 0.0654022 -0.997859 0
    outer loop
      vertex -0.783156 5.94867 0
      vertex 0 6 3.8
      vertex -0.783156 5.94867 3.8
    endloop
  endfacet
  facet normal 0.0654022 -0.997859 0
    outer loop
      vertex 0 6 3.8
      vertex -0.783156 5.94867 0
      vertex 0 6 0
    endloop
  endfacet
  facet normal 0.321429 0.946934 -0
    outer loop
      vertex -1.55291 -5.79555 0
      vertex -2.2961 -5.54328 3.8
      vertex -1.55291 -5.79555 3.8
    endloop
  endfacet
  facet normal 0.321429 0.946934 0
    outer loop
      vertex -2.2961 -5.54328 3.8
      vertex -1.55291 -5.79555 0
      vertex -2.2961 -5.54328 0
    endloop
  endfacet
  facet normal 0.980784 0.195098 0
    outer loop
      vertex -5.79555 -1.55291 3.8
      vertex -5.94867 -0.783156 0
      vertex -5.94867 -0.783156 3.8
    endloop
  endfacet
  facet normal 0.980784 0.195098 0
    outer loop
      vertex -5.94867 -0.783156 0
      vertex -5.79555 -1.55291 3.8
      vertex -5.79555 -1.55291 0
    endloop
  endfacet
  facet normal 0.195098 0.980784 -0
    outer loop
      vertex -0.783156 -5.94867 0
      vertex -1.55291 -5.79555 3.8
      vertex -0.783156 -5.94867 3.8
    endloop
  endfacet
  facet normal 0.195098 0.980784 0
    outer loop
      vertex -1.55291 -5.79555 3.8
      vertex -0.783156 -5.94867 0
      vertex -1.55291 -5.79555 0
    endloop
  endfacet
  facet normal 0.831472 -0.555567 0
    outer loop
      vertex -5.19615 3 3.8
      vertex -4.76012 3.65257 0
      vertex -4.76012 3.65257 3.8
    endloop
  endfacet
  facet normal 0.831472 -0.555567 0
    outer loop
      vertex -4.76012 3.65257 0
      vertex -5.19615 3 3.8
      vertex -5.19615 3 0
    endloop
  endfacet
endsolid OpenSCAD_Model
